<?xml version="1.0" encoding="UTF-8"?>
<svg width="430px" height="300px" viewBox="0 0 430 300" version="1.1" xmlns="http://www.w3.org/2000/svg" xmlns:xlink="http://www.w3.org/1999/xlink">
    <!-- Generator: Sketch 56.3 (81716) - https://sketch.com -->
    <title>technology</title>
    <desc>Created with Sketch.</desc>
    <defs>
        <linearGradient x1="-57.5277158%" y1="8.9418793%" x2="279.191734%" y2="137.863878%" id="linearGradient-1">
            <stop stop-color="#F07295" offset="0%"></stop>
            <stop stop-color="#F06995" offset="99%"></stop>
        </linearGradient>
        <linearGradient x1="-78.6479327%" y1="104.915352%" x2="162.236554%" y2="1.76240683%" id="linearGradient-2">
            <stop stop-color="#FC9250" offset="0%"></stop>
            <stop stop-color="#FBE6D1" offset="100%"></stop>
        </linearGradient>
        <linearGradient x1="51.3715509%" y1="0.426364723%" x2="48.6547085%" y2="98.672153%" id="linearGradient-3">
            <stop stop-color="#FFFFFF" offset="0%"></stop>
            <stop stop-color="#AAD7FF" offset="100%"></stop>
        </linearGradient>
        <linearGradient x1="50.3580338%" y1="49.0386791%" x2="49.8944583%" y2="50.4400374%" id="linearGradient-4">
            <stop stop-color="#FFFFFF" offset="0%"></stop>
            <stop stop-color="#AAD7FF" offset="100%"></stop>
        </linearGradient>
        <linearGradient x1="6.54124498e-13%" y1="50%" x2="100%" y2="50%" id="linearGradient-5">
            <stop stop-color="#F07295" offset="0%"></stop>
            <stop stop-color="#F06995" offset="99%"></stop>
        </linearGradient>
        <linearGradient x1="0%" y1="50%" x2="100%" y2="50%" id="linearGradient-6">
            <stop stop-color="#FC9250" offset="0%"></stop>
            <stop stop-color="#FB8E5F" offset="100%"></stop>
        </linearGradient>
        <linearGradient x1="-140.27618%" y1="50%" x2="50.4027618%" y2="50%" id="linearGradient-7">
            <stop stop-color="#24553A" offset="0%"></stop>
            <stop stop-color="#49BE55" offset="100%"></stop>
        </linearGradient>
        <linearGradient x1="63.3336778%" y1="-62.9203316%" x2="49.5066531%" y2="54.178883%" id="linearGradient-8">
            <stop stop-color="#FFFFFF" offset="0%"></stop>
            <stop stop-color="#AAD7FF" offset="100%"></stop>
        </linearGradient>
        <linearGradient x1="68.6968248%" y1="21.2731873%" x2="46.1493196%" y2="72.573677%" id="linearGradient-9">
            <stop stop-color="#92DD9F" offset="10%"></stop>
            <stop stop-color="#41C79F" offset="100%"></stop>
        </linearGradient>
        <linearGradient x1="11.7441121%" y1="86.0701634%" x2="83.6468645%" y2="21.3118501%" id="linearGradient-10">
            <stop stop-color="#92DD9F" offset="10%"></stop>
            <stop stop-color="#41C79F" offset="100%"></stop>
        </linearGradient>
        <linearGradient x1="54.7594141%" y1="116.946034%" x2="47.8677105%" y2="13.7591836%" id="linearGradient-11">
            <stop stop-color="#92DD9F" offset="10%"></stop>
            <stop stop-color="#41DD9F" offset="100%"></stop>
        </linearGradient>
        <linearGradient x1="52.8154139%" y1="48.8378876%" x2="26.8971202%" y2="115.230041%" id="linearGradient-12">
            <stop stop-color="#92DD9F" offset="10%"></stop>
            <stop stop-color="#41C79F" offset="100%"></stop>
        </linearGradient>
        <linearGradient x1="0%" y1="50%" x2="100%" y2="50%" id="linearGradient-13">
            <stop stop-color="#FFFFFF" offset="0%"></stop>
            <stop stop-color="#AAD7FF" offset="100%"></stop>
        </linearGradient>
        <linearGradient x1="0.0568181818%" y1="50%" x2="100%" y2="50%" id="linearGradient-14">
            <stop stop-color="#F07295" offset="0%"></stop>
            <stop stop-color="#F06995" offset="99%"></stop>
        </linearGradient>
        <linearGradient x1="67.5929795%" y1="-63.1303452%" x2="55.554594%" y2="8.21908767%" id="linearGradient-15">
            <stop stop-color="#FFFFFF" offset="0%"></stop>
            <stop stop-color="#AAD7FF" offset="100%"></stop>
        </linearGradient>
        <linearGradient x1="0%" y1="50.00489%" x2="100%" y2="50.00489%" id="linearGradient-16">
            <stop stop-color="#F07295" offset="0%"></stop>
            <stop stop-color="#F06995" offset="99%"></stop>
        </linearGradient>
        <linearGradient x1="-56.5400149%" y1="9.32406596%" x2="275.273121%" y2="136.37058%" id="linearGradient-17">
            <stop stop-color="#6362D7" offset="0%"></stop>
            <stop stop-color="#FF8FE2" offset="100%"></stop>
        </linearGradient>
        <linearGradient x1="2.00800637%" y1="-55.6908307%" x2="86.3317069%" y2="130.012523%" id="linearGradient-18">
            <stop stop-color="#F09376" offset="0%"></stop>
            <stop stop-color="#F07295" offset="100%"></stop>
        </linearGradient>
        <linearGradient x1="49.5917793%" y1="-16.4313706%" x2="50.259009%" y2="92.1124705%" id="linearGradient-19">
            <stop stop-color="#FC9250" offset="0%"></stop>
            <stop stop-color="#FBE6D1" offset="100%"></stop>
        </linearGradient>
        <linearGradient x1="47.6811997%" y1="48.0739974%" x2="90.4609831%" y2="83.5709563%" id="linearGradient-20">
            <stop stop-color="#F6F3FF" offset="0%"></stop>
            <stop stop-color="#E5D6FF" offset="100%"></stop>
        </linearGradient>
        <linearGradient x1="47.7077664%" y1="48.1947529%" x2="89.6587817%" y2="81.5339963%" id="linearGradient-21">
            <stop stop-color="#F6F3FF" offset="0%"></stop>
            <stop stop-color="#E5D6FF" offset="100%"></stop>
        </linearGradient>
        <linearGradient x1="51.2598702%" y1="15.9558328%" x2="45.8771988%" y2="161.598112%" id="linearGradient-22">
            <stop stop-color="#F6F3FF" offset="0%"></stop>
            <stop stop-color="#E5D6FF" offset="100%"></stop>
        </linearGradient>
        <linearGradient x1="3.91536667%" y1="-54.6875%" x2="84.8874556%" y2="129.25%" id="linearGradient-23">
            <stop stop-color="#F09376" offset="0%"></stop>
            <stop stop-color="#F07295" offset="100%"></stop>
        </linearGradient>
        <linearGradient x1="49.1207503%" y1="-50.4929285%" x2="50.7939891%" y2="140.697458%" id="linearGradient-24">
            <stop stop-color="#FC9250" offset="0%"></stop>
            <stop stop-color="#FBE6D1" offset="100%"></stop>
        </linearGradient>
        <linearGradient x1="47.7495108%" y1="48.2298239%" x2="89.3969045%" y2="80.7993831%" id="linearGradient-25">
            <stop stop-color="#F6F3FF" offset="0%"></stop>
            <stop stop-color="#E5D6FF" offset="100%"></stop>
        </linearGradient>
        <linearGradient x1="47.8004292%" y1="48.3481921%" x2="88.6802575%" y2="78.9673668%" id="linearGradient-26">
            <stop stop-color="#F6F3FF" offset="0%"></stop>
            <stop stop-color="#E5D6FF" offset="100%"></stop>
        </linearGradient>
        <linearGradient x1="51.3367742%" y1="15.8762058%" x2="45.6183511%" y2="161.796624%" id="linearGradient-27">
            <stop stop-color="#F6F3FF" offset="0%"></stop>
            <stop stop-color="#E5D6FF" offset="100%"></stop>
        </linearGradient>
        <linearGradient x1="-1.89872126%" y1="-57.7118408%" x2="89.2870734%" y2="131.539585%" id="linearGradient-28">
            <stop stop-color="#F09376" offset="0%"></stop>
            <stop stop-color="#F07295" offset="100%"></stop>
        </linearGradient>
        <linearGradient x1="49.5635794%" y1="-16.8443456%" x2="50.7070278%" y2="158.519485%" id="linearGradient-29">
            <stop stop-color="#FC9250" offset="0%"></stop>
            <stop stop-color="#FBE6D1" offset="100%"></stop>
        </linearGradient>
        <linearGradient x1="47.7430328%" y1="48.2341803%" x2="89.3889834%" y2="80.8044307%" id="linearGradient-30">
            <stop stop-color="#F6F3FF" offset="0%"></stop>
            <stop stop-color="#E5D6FF" offset="100%"></stop>
        </linearGradient>
        <linearGradient x1="47.7806273%" y1="48.3431545%" x2="88.6565398%" y2="78.9613027%" id="linearGradient-31">
            <stop stop-color="#F6F3FF" offset="0%"></stop>
            <stop stop-color="#E5D6FF" offset="100%"></stop>
        </linearGradient>
        <linearGradient x1="0.00525983159%" y1="49.9956935%" x2="100.024007%" y2="49.9956935%" id="linearGradient-32">
            <stop stop-color="#F6F3FF" offset="0%"></stop>
            <stop stop-color="#E5D6FF" offset="100%"></stop>
        </linearGradient>
        <linearGradient x1="51.3393728%" y1="15.879973%" x2="45.6176871%" y2="161.791976%" id="linearGradient-33">
            <stop stop-color="#F6F3FF" offset="0%"></stop>
            <stop stop-color="#E5D6FF" offset="100%"></stop>
        </linearGradient>
        <linearGradient x1="3.91280556%" y1="-54.6875%" x2="84.8874556%" y2="129.25%" id="linearGradient-34">
            <stop stop-color="#F09376" offset="0%"></stop>
            <stop stop-color="#F07295" offset="100%"></stop>
        </linearGradient>
        <linearGradient x1="49.4724502%" y1="-9.96621252%" x2="50.8295144%" y2="144.704696%" id="linearGradient-35">
            <stop stop-color="#FC9250" offset="0%"></stop>
            <stop stop-color="#FBE6D1" offset="100%"></stop>
        </linearGradient>
        <linearGradient x1="41.8822956%" y1="74.7488279%" x2="61.7014561%" y2="-14.7745712%" id="linearGradient-36">
            <stop stop-color="#FC9250" offset="0%"></stop>
            <stop stop-color="#FBE6D1" offset="100%"></stop>
        </linearGradient>
        <linearGradient x1="-15.0320607%" y1="62.9488457%" x2="136.70731%" y2="33.3694287%" id="linearGradient-37">
            <stop stop-color="#FC9250" offset="0%"></stop>
            <stop stop-color="#FBE6D1" offset="100%"></stop>
        </linearGradient>
        <linearGradient x1="55.1773228%" y1="19.5436351%" x2="46.547386%" y2="144.936831%" id="linearGradient-38">
            <stop stop-color="#F09376" offset="0%"></stop>
            <stop stop-color="#F07295" offset="100%"></stop>
        </linearGradient>
        <linearGradient x1="0%" y1="50.0041808%" x2="254.17181%" y2="50.0041808%" id="linearGradient-39">
            <stop stop-color="#FC9250" offset="0%"></stop>
            <stop stop-color="#FBE6D1" offset="100%"></stop>
        </linearGradient>
        <linearGradient x1="-64.1773665%" y1="50.0013576%" x2="152.973986%" y2="50.0013576%" id="linearGradient-40">
            <stop stop-color="#FC9250" offset="0%"></stop>
            <stop stop-color="#FBE6D1" offset="100%"></stop>
        </linearGradient>
        <linearGradient x1="0%" y1="50%" x2="100%" y2="50%" id="linearGradient-41">
            <stop stop-color="#F07295" offset="0%"></stop>
            <stop stop-color="#F03295" offset="99%"></stop>
        </linearGradient>
        <linearGradient x1="51.7623364%" y1="43.4043846%" x2="44.612286%" y2="70.0423103%" id="linearGradient-42">
            <stop stop-color="#F09376" offset="0%"></stop>
            <stop stop-color="#F07295" offset="100%"></stop>
        </linearGradient>
        <linearGradient x1="51.7623364%" y1="43.3811606%" x2="44.612286%" y2="70.0190863%" id="linearGradient-43">
            <stop stop-color="#00B56C" offset="0%"></stop>
            <stop stop-color="#1DBE75" offset="22%"></stop>
            <stop stop-color="#68D58C" offset="68%"></stop>
            <stop stop-color="#9EE69D" offset="100%"></stop>
        </linearGradient>
        <linearGradient x1="79.0828758%" y1="20.7144849%" x2="178.008396%" y2="-78.8906262%" id="linearGradient-44">
            <stop stop-color="#F09376" offset="0%"></stop>
            <stop stop-color="#F07295" offset="100%"></stop>
        </linearGradient>
        <linearGradient x1="50.3642394%" y1="42.7441522%" x2="49.6597442%" y2="58.17746%" id="linearGradient-45">
            <stop stop-color="#7BA5FF" offset="0%"></stop>
            <stop stop-color="#8588FF" offset="40%"></stop>
            <stop stop-color="#9555FF" offset="100%"></stop>
        </linearGradient>
        <linearGradient x1="103.083509%" y1="49.9972241%" x2="-23.5144744%" y2="49.9972241%" id="linearGradient-46">
            <stop stop-color="#42417D" offset="0%"></stop>
            <stop stop-color="#6362D7" stop-opacity="0" offset="100%"></stop>
        </linearGradient>
        <linearGradient x1="-3.08350867%" y1="49.9972241%" x2="123.514474%" y2="49.9972241%" id="linearGradient-47">
            <stop stop-color="#42417D" offset="0%"></stop>
            <stop stop-color="#6362D7" stop-opacity="0" offset="100%"></stop>
        </linearGradient>
        <linearGradient x1="52.2971207%" y1="40.1339989%" x2="104.764562%" y2="4.34996431%" id="linearGradient-48">
            <stop stop-color="#6362D7" offset="0%"></stop>
            <stop stop-color="#FF8FE2" offset="100%"></stop>
        </linearGradient>
        <linearGradient x1="-261.213518%" y1="459.52381%" x2="123.271889%" y2="-46.5437788%" id="linearGradient-49">
            <stop stop-color="#C6FFB5" offset="0%"></stop>
            <stop stop-color="#89D83E" offset="100%"></stop>
        </linearGradient>
        <linearGradient x1="0%" y1="50%" x2="100%" y2="50%" id="linearGradient-50">
            <stop stop-color="#F6F3FF" offset="0%"></stop>
            <stop stop-color="#E5D6FF" offset="100%"></stop>
        </linearGradient>
        <linearGradient x1="0%" y1="50.0117952%" x2="100%" y2="50.0117952%" id="linearGradient-51">
            <stop stop-color="#F6F3FF" offset="0%"></stop>
            <stop stop-color="#E5D6FF" offset="100%"></stop>
        </linearGradient>
        <linearGradient x1="0.00190951544%" y1="49.9954154%" x2="99.9946741%" y2="49.9954154%" id="linearGradient-52">
            <stop stop-color="#F6F3FF" offset="0%"></stop>
            <stop stop-color="#E5D6FF" offset="100%"></stop>
        </linearGradient>
    </defs>
    <g id="technology" stroke="none" stroke-width="1" fill="none" fill-rule="evenodd">
        <g id="Group-13" transform="translate(32.000000, 39.000000)">
            <g id="ytuky" transform="translate(0.000000, 0.440000)" fill-rule="nonzero">
                <rect id="Rectangle" fill="#D8712B" opacity="0.05" x="223.861059" y="160.911774" width="59.5368846" height="57.3070444" rx="4.93696038"></rect>
                <rect id="Rectangle" fill="#0000FF" opacity="0.05" x="206.420578" y="147.067613" width="28.7629622" height="27.6868021" rx="2.38488018"></rect>
                <g id="Group-25" transform="translate(0.034542, 0.484882)">
                    <rect id="Rectangle" fill="#12B51E" opacity="0.05" x="25.0697821" y="139.297371" width="28.7629622" height="27.6868021" rx="2.38488018"></rect>
                    <rect id="Rectangle" fill="#D8712B" opacity="0.05" x="7.23562071" y="155.088652" width="28.7629622" height="27.6868021" rx="2.38488018"></rect>
                    <rect id="Rectangle" fill="#0000FF" opacity="0.05" x="36.579223" y="13.8426411" width="48.8117638" height="26.150082" rx="3.01872023"></rect>
                    <rect id="Rectangle" fill="#0000FF" opacity="0.05" x="17.2585015" y="-1.81188398e-13" width="28.7629622" height="27.6868021" rx="2.38488018"></rect>
                    <path d="M23.525462,65.9740851 L23.525462,83.6502893 L0.923060222,83.6502893 C0.477088784,83.6574408 0.0912863659,83.3410828 0.0110601517,82.9023264 C-0.0563572945,82.4774309 0.190078149,82.0652116 0.596260197,81.9234463 L4.32330048,79.1707261 L4.32330048,65.9740851 C4.32330048,65.3646278 4.81736325,64.870565 5.42682057,64.870565 L22.4219419,64.870565 C23.0313992,64.870565 23.525462,65.3646278 23.525462,65.9740851 Z" id="Path" fill="url(#linearGradient-1)"></path>
                    <path d="M11.8214611,76.7128859 L11.047781,79.0552061 C10.9603679,79.3175744 10.716308,79.4957381 10.439781,79.4990461 L10.439781,79.4990461 C10.2318978,79.497404 10.0374444,79.3960494 9.91703851,79.2265781 C9.79663261,79.0571068 9.76491789,78.8401297 9.83178091,78.643286 L12.8854611,69.6676854 C12.974179,69.4071438 13.2182331,69.2314248 13.4934612,69.2299253 L14.1531412,69.2299253 C14.4286702,69.2304981 14.6732069,69.4065645 14.7611413,69.6676854 L17.8254615,78.643286 C17.8923245,78.8401297 17.8606098,79.0571068 17.7402039,79.2265781 C17.619798,79.3960494 17.4253446,79.497404 17.2174615,79.4990461 L17.1673015,79.4990461 C16.891974,79.4964074 16.6482746,79.3203346 16.5593014,79.0597661 L15.7613014,76.7068059 C15.6721961,76.4465515 15.4283799,76.2710039 15.1533013,76.2690459 L12.4294611,76.2690459 C12.1523176,76.2704911 11.9072878,76.4493629 11.8214611,76.7128859 Z M14.9465813,75.2324066 C15.0396811,75.2326318 15.1271179,75.1877278 15.181174,75.1119284 C15.2352302,75.036129 15.2492024,74.9388338 15.2186613,74.8508858 L14.3294613,72.2760056 C14.1668212,71.8017655 13.9525012,71.0600055 13.8400212,70.6678454 C13.8306831,70.6361711 13.8016034,70.6144272 13.7685812,70.6144272 C13.735559,70.6144272 13.7064794,70.6361711 13.6971412,70.6678454 C13.5664212,71.1831255 13.4281012,71.7318455 13.2411412,72.2577656 L12.3641011,74.8508858 C12.3340504,74.9384844 12.3483143,75.0352143 12.4023709,75.1104104 C12.4564275,75.1856065 12.5435731,75.2299435 12.6361811,75.2293658 L14.9465813,75.2324066 Z" id="Shape" fill="#42417D"></path>
                    <polygon id="Path" fill="#C94776" points="19.7087417 78.273926 23.526982 83.6501664 23.526982 77.713046"></polygon>
                    <path d="M20.7727417,60.2330446 L44.5197036,60.2330446 C45.3331528,60.2330446 45.9925837,60.8924755 45.9925837,61.7059247 L45.9925837,77.539766 C45.9925837,78.3532152 45.3331528,79.0126461 44.5197036,79.0126461 L20.7727417,79.0126461 C20.1229897,79.0126461 19.5962617,78.485918 19.5962617,77.836166 L19.5962617,61.4095247 C19.5962617,60.7597727 20.1229897,60.2330446 20.7727417,60.2330446 L20.7727417,60.2330446 Z" id="Path" fill="url(#linearGradient-2)"></path>
                    <circle id="Oval" fill="#42417D" cx="38.2968231" cy="69.6220854" r="1.15368009"></circle>
                    <circle id="Oval" fill="#42417D" cx="32.7944227" cy="69.6220854" r="1.15368009"></circle>
                    <circle id="Oval" fill="#42417D" cx="27.2935422" cy="69.6220854" r="1.15368009"></circle>
                </g>
                <rect id="Rectangle" fill="url(#linearGradient-3)" x="119.614891" y="25.2152837" width="150.498252" height="102.230648" rx="6.4888805"></rect>
                <path d="M263.625782,25.2152837 L126.103771,25.2152837 C122.520062,25.2152837 119.614891,28.1204545 119.614891,31.7041642 L119.614891,33.7683244 L270.114663,33.7683244 L270.114663,31.7041642 C270.114663,28.1204545 267.209492,25.2152837 263.625782,25.2152837 L263.625782,25.2152837 Z" id="Path" fill="url(#linearGradient-4)"></path>
                <path d="M173.532335,88.1600082 L158.209214,88.1600082 C157.174924,88.1596053 156.182859,88.5701926 155.451363,89.3014032 C154.719867,90.0326138 154.308894,91.0245193 154.308894,92.0588088 L154.308894,127.447452 L177.431135,127.447452 L177.431135,92.0542488 C177.428619,89.9027819 175.683804,88.1600082 173.532335,88.1600082 L173.532335,88.1600082 Z" id="Path" fill="#0000FF" opacity="0.02"></path>
                <path d="M270.114663,81.2409659 L211.243538,81.2409659 C209.963619,81.2397579 208.735709,81.7473555 207.830242,82.6519672 C206.924775,83.5565789 206.416018,84.7840093 206.416018,86.0639284 L206.416018,112.17601 C206.416857,114.83931 208.575678,116.998132 211.238978,116.998971 L270.110103,116.998971 L270.114663,81.2409659 Z" id="Path" fill="#0000FF" opacity="0.02"></path>
                <path d="M126.103771,25.2152837 C122.520062,25.2152837 119.614891,28.1204545 119.614891,31.7041642 L119.614891,78.7466478 L153.302654,78.7466478 C161.308706,78.7466478 167.798895,72.2564596 167.798895,64.2504067 L167.798895,25.2152837 L126.103771,25.2152837 Z" id="Path" fill="#0000FF" opacity="0.02"></path>
                <circle id="Oval" fill="url(#linearGradient-5)" cx="127.591852" cy="29.492564" r="1.3208801"></circle>
                <circle id="Oval" fill="url(#linearGradient-6)" cx="132.271932" cy="29.492564" r="1.3208801"></circle>
                <circle id="Oval" fill="url(#linearGradient-7)" cx="136.952012" cy="29.492564" r="1.3208801"></circle>
                <rect id="Rectangle" fill="url(#linearGradient-8)" x="155.763534" y="43.4598451" width="77.2144859" height="83.9860865" rx="4.31832033"></rect>
                <path d="M185.101056,87.4288885 L173.488255,92.1910489 C171.258858,93.1042984 169.677586,95.1271242 169.329535,97.5110493 L164.976254,127.444412 L226.969459,127.444412 L219.709939,96.4759292 C219.312885,94.7809565 218.153278,93.3654045 216.569618,92.6424889 L202.851617,86.3846484 L185.101056,87.4288885 Z" id="Path" fill="url(#linearGradient-9)"></path>
                <path d="M192.839377,113.56985 C193.410897,112.79161 194.009777,109.93401 194.009777,109.93401 C194.009777,109.93401 199.496977,105.83001 200.132337,104.29025 C200.767697,102.75049 194.450577,103.12441 194.450577,103.12441 L186.672736,107.33785 L182.590016,109.32905 C182.590016,109.32905 178.790016,101.07393 176.877855,103.12441 C176.877855,103.12441 176.791215,110.22281 176.358015,110.94481 C176.054015,111.46313 169.735375,116.264811 166.215055,118.929371 L164.976254,127.441372 L184.117616,127.441372 C186.817136,123.120011 192.407697,114.159611 192.839377,113.56985 Z" id="Path" fill="#6FA895" opacity="0.62"></path>
                <path d="M190.328336,98.0536893 C190.328336,98.0536893 192.739057,95.8481691 193.398737,93.708009 C197.060417,98.4823293 197.715537,97.7876893 197.715537,97.7876893 C197.715537,97.7876893 202.702657,92.4281689 204.403537,87.0488885 L202.850097,86.3876884 L185.099536,87.4288885 L183.614496,88.0368885 C185.400496,91.2912088 187.247296,95.0182491 190.328336,98.0536893 Z" id="Path" fill="#6FA895" opacity="0.62"></path>
                <path d="M178.212415,56.2248061 C178.212415,56.2248061 176.923455,61.9324065 180.483296,64.6942467 L184.020336,61.2316865 L182.877296,58.0396862 L178.212415,56.2248061 Z" id="Path" fill="#2C345B"></path>
                <path d="M180.398176,58.0412062 C180.398176,58.0412062 178.864496,71.6178473 179.157856,72.7122474 C179.451216,73.8066474 182.368096,79.6936079 185.215056,79.8881679 C188.062016,80.0827279 187.843136,79.8729679 187.843136,79.8729679 L187.843136,92.4889689 L193.395697,92.5604089 L201.167457,89.9353687 L199.966657,72.8794474 L194.408017,58.4789663 L180.398176,58.0412062 Z" id="Path" fill="#FCB0AA"></path>
                <path d="M192.690417,60.6312864 C192.690417,60.6312864 193.228497,66.3252069 194.566097,66.3252069 C195.903697,66.3252069 196.271537,64.8553668 196.271537,64.8553668 L198.689857,72.5678473 L198.689857,73.4889674 C198.68919,74.9201875 199.261802,76.2920469 200.279777,77.2980877 L200.279777,77.2980877 C200.279777,77.2980877 201.506417,64.5802467 202.515697,62.1923265 C203.524977,59.8044064 202.413857,52.4506458 196.996577,53.1848059 L195.320017,53.7563259 C195.320017,53.7563259 195.633137,51.4504857 193.521857,50.3484856 C191.410576,49.2464856 183.880496,50.8987257 181.494096,47.1336854 C179.107696,43.3686451 175.341135,44.3794452 174.698175,46.7673654 C174.055215,49.1552855 173.504975,57.4180062 180.208176,59.9913664 C187.922176,62.9492866 191.129376,61.8260065 192.690417,60.6312864 Z" id="Path" fill="#2C345B"></path>
                <rect id="Rectangle" fill="#42417D" x="195.315457" y="61.3502465" width="5.85504045" height="11.9350409" rx="2.5855202"></rect>
                <path d="M191.672016,79.8729679 L191.491136,78.9792078 C194.44504,78.3846054 196.756074,76.0795589 197.358337,73.1272074 L197.802177,70.9672872 L198.695937,71.1512072 L198.252097,73.3111274 C197.575254,76.6212084 194.983964,79.2053153 191.672016,79.8729679 Z" id="Path" fill="#42417D"></path>
                <rect id="Rectangle" fill="#42417D" x="185.640656" y="78.2328878" width="6.60136051" height="2.5824802" rx="1.2912401"></rect>
                <path d="M200.719057,83.5300882 C199.281137,87.4820885 196.428097,91.2820888 193.398737,92.5634489 C193.398737,92.5634489 195.776017,96.1521692 197.666897,96.8316092 C199.170177,95.4742491 204.646737,88.2618486 204.405057,87.0488885 C204.163377,85.8359284 200.719057,83.5300882 200.719057,83.5300882 Z" id="Path" fill="url(#linearGradient-10)"></path>
                <path d="M187.844656,84.3600083 C187.996656,85.7796884 190.963696,90.6771287 193.398737,92.5680089 L190.416496,96.8361692 C190.416496,96.8361692 184.763616,90.0356887 184.184496,87.5140085 C184.342576,87.1233685 187.466176,84.3113682 187.844656,84.3600083 Z" id="Path" fill="url(#linearGradient-11)"></path>
                <path d="M186.672736,105.91665 C186.672736,105.91665 187.957136,105.47585 188.942096,103.18977 C189.528816,100.207529 191.054896,96.5382492 191.485056,96.8316092 C191.915217,97.1249692 191.751057,98.9140094 191.684176,100.008409 C191.617296,101.10281 197.186577,98.2163293 198.980177,97.0231292 C200.773777,95.8299291 202.260337,94.8388891 202.856177,95.5350491 C203.452017,96.2312092 202.774097,101.69865 200.576177,103.88593 C198.378257,106.07321 194.104017,107.36521 194.104017,107.36521 L191.488096,110.94481 L186.672736,105.91665 Z" id="Path" fill="#FCB0AA"></path>
                <path d="M165.832015,120.992011 L185.634576,105.44393 C185.634576,105.44393 192.833297,108.47025 192.833297,111.24425 C190.942416,114.892251 178.332495,127.445932 178.332495,127.445932 L163.328574,127.445932 C163.450077,125.08198 164.327657,122.819561 165.832015,120.992011 Z" id="Path" fill="url(#linearGradient-12)"></path>
                <path d="M213.005218,127.447452 C212.948978,123.661131 211.208578,109.51145 210.983618,108.98249 C210.758658,108.45353 207.791618,122.736971 207.172978,127.447452 L213.005218,127.447452 Z" id="Path" fill="#6FA895" opacity="0.62"></path>
                <rect id="Rectangle" fill="url(#linearGradient-13)" x="202.851617" y="104.27201" width="8.30072064" height="1.17344009" rx="0.586720045"></rect>
                <circle id="Oval" fill="url(#linearGradient-14)" cx="226.969459" cy="50.2740056" r="1.3376001"></circle>
                <path d="M284.220264,50.2740056 L257.700822,50.2740056 C256.273718,50.2740056 255.116691,51.4309019 255.116691,52.8580058 L255.116691,71.3108072 C255.108599,71.8492294 255.49018,72.3149638 256.019701,72.4128073 C256.533574,72.4955373 257.032724,72.1975847 257.203782,71.7060073 L260.528022,67.2022469 L279.962743,67.2022469 C282.313267,67.2022469 284.218744,65.2967707 284.218744,62.9462466 L284.220264,50.2740056 Z" id="Path" fill="url(#linearGradient-15)"></path>
                <circle id="Oval" fill="#FFFFFF" cx="263.464662" cy="59.2845663" r="1.39536011"></circle>
                <circle id="Oval" fill="#FFFFFF" cx="270.114663" cy="59.2845663" r="1.39536011"></circle>
                <circle id="Oval" fill="#FFFFFF" cx="276.764663" cy="59.2845663" r="1.39536011"></circle>
                <rect id="Rectangle" fill="#9476F7" x="105.360344" y="74.1547275" width="19.4909615" height="5.80640045" rx="1.17496009"></rect>
                <rect id="Rectangle" fill="#9476F7" x="105.360344" y="84.2779282" width="19.4909615" height="5.80640045" rx="1.17496009"></rect>
                <path d="M134.272252,117.144891 L119.614891,117.144891 L119.614891,120.958571 C119.61573,124.541933 122.520409,127.446612 126.103771,127.447452 L136.540092,127.447452 L136.540092,119.412731 C136.540092,118.160237 135.524746,117.144891 134.272252,117.144891 Z" id="Path" fill="#0000FF" opacity="0.15"></path>
                <rect id="Rectangle" fill="url(#linearGradient-16)" x="110.77609" y="119.880891" width="23.9400018" height="15.5420012" rx="2.26784017"></rect>
                <path d="M128.105612,124.602011 L125.714651,125.735931 L125.714651,124.839131 C125.730992,124.456798 125.435668,124.13296 125.053451,124.114091 L117.576571,124.114091 C117.194574,124.132953 116.899687,124.457056 116.916891,124.839131 L116.916891,130.463132 C116.899687,130.845207 117.194574,131.16931 117.576571,131.188172 L125.053451,131.188172 C125.435668,131.169303 125.730992,130.845465 125.714651,130.463132 L125.714651,129.566332 L128.105612,130.700252 C128.332092,130.808172 128.575292,130.592332 128.575292,130.280732 L128.575292,125.021531 C128.575292,124.709931 128.332092,124.488011 128.105612,124.602011 Z" id="Path" fill="#FFFFFF"></path>
                <path d="M258.725302,117.071931 L287.238984,117.071931 C288.106999,117.071931 288.810664,117.775596 288.810664,118.643611 L288.810664,134.279852 C288.810664,135.147867 288.106999,135.851532 287.238984,135.851532 L258.725302,135.851532 L258.725302,117.071931 Z" id="Path" fill="#C5A1F7"></path>
                <polygon id="Path" fill="#422D9B" points="264.203382 131.736892 258.725302 135.851532 258.725302 127.242252"></polygon>
                <path d="M264.632022,114.276651 L264.632022,130.844652 C264.632022,131.454356 264.138205,131.948853 263.528502,131.949815 L242.03266,131.949815 C241.586689,131.956966 241.200887,131.640608 241.12066,131.201852 C241.053243,130.776956 241.299678,130.364737 241.70586,130.222972 L245.432901,127.470252 L245.432901,114.276651 C245.4329,113.666947 245.926718,113.172449 246.536421,113.17161 L263.533062,113.17161 C264.140983,113.174955 264.632022,113.66872 264.632022,114.276651 Z" id="Path" fill="url(#linearGradient-17)"></path>
                <circle id="Oval" fill="#FFFFFF" cx="279.269623" cy="126.088571" r="1.15368009"></circle>
                <circle id="Oval" fill="#FFFFFF" cx="273.768743" cy="126.088571" r="1.15368009"></circle>
                <circle id="Oval" fill="#FFFFFF" cx="268.266342" cy="126.088571" r="1.15368009"></circle>
                <path d="M252.928021,124.522971 L252.154341,126.865292 C252.066928,127.12766 251.822868,127.305824 251.546341,127.309132 L251.546341,127.309132 C251.338458,127.307489 251.144005,127.206135 251.023599,127.036664 C250.903193,126.867192 250.871478,126.650215 250.938341,126.453371 L254.001141,117.485371 C254.090247,117.225116 254.334063,117.049569 254.609141,117.047611 L255.268821,117.047611 C255.5439,117.049569 255.787716,117.225116 255.876821,117.485371 L258.939622,126.453371 C259.006485,126.650215 258.97477,126.867192 258.854364,127.036664 C258.733958,127.206135 258.539505,127.307489 258.331622,127.309132 L258.281462,127.309132 C258.005682,127.307873 257.761267,127.131282 257.673462,126.869852 L256.873942,124.516891 C256.784836,124.256637 256.54102,124.081089 256.265941,124.079131 L253.536021,124.079131 C253.259187,124.081514 253.014647,124.260029 252.928021,124.522971 Z M256.053141,123.042491 C256.145865,123.042547 256.232915,122.997846 256.286895,122.922454 C256.340876,122.847063 256.355148,122.750253 256.325221,122.662491 L255.436021,120.087611 C255.273381,119.613371 255.059061,118.871611 254.946581,118.479451 C254.937243,118.447776 254.908164,118.426033 254.875141,118.426033 C254.842119,118.426033 254.813039,118.447776 254.803701,118.479451 C254.672981,118.996251 254.536181,119.543451 254.347701,120.070891 L253.470661,122.654891 C253.440611,122.74249 253.454874,122.83922 253.508931,122.914416 C253.562988,122.989612 253.650133,123.033949 253.742741,123.033371 L256.053141,123.042491 Z" id="Shape" fill="#422D9B"></path>
            </g>
            <g id="uiluy" transform="translate(12.920000, 7.000000)">
                <g id="Group-27" transform="translate(227.248509, 16.271615)" fill-rule="nonzero">
                    <rect id="Rectangle" fill="url(#linearGradient-18)" x="33.4156819" y="158.278211" width="22.1640324" height="34.9575686"></rect>
                    <rect id="Rectangle" fill="url(#linearGradient-19)" x="0.688257303" y="158.444803" width="43.1923207" height="34.7909766"></rect>
                    <rect id="Rectangle" fill="url(#linearGradient-20)" x="31.0967698" y="163.125187" width="8.75763215" height="4.39340808"></rect>
                    <rect id="Rectangle" fill="url(#linearGradient-21)" x="34.0467859" y="169.441091" width="5.8088321" height="2.79072005"></rect>
                    <polygon id="Path" fill="url(#linearGradient-22)" points="18.7409936 172.618499 19.8062096 171.836611 20.8714257 172.618499 21.9366417 171.836611 23.0018577 172.618499 24.0682897 171.836611 24.8197777 172.504195 25.2429457 172.871427 25.2696977 172.871427 25.2696977 158.444803 17.5408016 158.444803 17.5408016 172.038467"></polygon>
                    <rect id="Rectangle" fill="url(#linearGradient-23)" x="55.6417303" y="129.260802" width="17.9384323" height="29.1840005"></rect>
                    <rect id="Rectangle" fill="url(#linearGradient-24)" x="26.6680978" y="129.260802" width="34.2291846" height="29.1840005"></rect>
                    <rect id="Rectangle" fill="url(#linearGradient-25)" x="52.1615382" y="149.148483" width="6.83513612" height="3.23091206"></rect>
                    <rect id="Rectangle" fill="url(#linearGradient-26)" x="54.4634262" y="153.792387" width="4.53324808" height="2.05260804"></rect>
                    <polygon id="Path" fill="url(#linearGradient-27)" points="40.628994 141.149635 41.577474 140.494211 42.524738 141.149635 43.473218 140.494211 44.4216981 141.149635 45.3701781 140.494211 46.0401941 141.054787 46.4159381 141.362435 46.4402581 141.362435 46.4402581 129.260802 39.56013 129.260802 39.56013 140.663235"></polygon>
                    <rect id="Rectangle" fill="url(#linearGradient-28)" x="83.3312667" y="158.278211" width="23.5186564" height="34.9575686"></rect>
                    <rect id="Rectangle" fill="url(#linearGradient-29)" x="48.6010901" y="158.444803" width="45.8346888" height="34.7909766"></rect>
                    <rect id="Rectangle" fill="url(#linearGradient-30)" x="80.8700827" y="163.125187" width="9.29388816" height="4.39340808"></rect>
                    <rect id="Rectangle" fill="url(#linearGradient-31)" x="84.0000667" y="169.441091" width="6.16390411" height="2.79072005"></rect>
                    <path d="M81.0342427,178.150083 C81.0160041,178.149708 80.9979423,178.146424 80.9807387,178.140355 C80.9393883,178.126261 80.9053612,178.096267 80.8861901,178.057012 C80.8670191,178.017757 80.8642856,177.97248 80.8785947,177.931203 C80.9138587,177.829059 81.7601947,175.406787 83.0284827,175.166019 C83.4966427,175.077251 83.9514267,175.287619 84.3806747,175.788611 C85.1467548,176.684803 86.4478748,177.011907 87.5896988,176.977859 C87.0465244,176.409127 86.6289252,175.7326 86.3639708,174.992131 C86.1669788,174.427907 86.3128988,174.099587 86.4697628,173.923267 C86.7543068,173.602243 87.3148828,173.506179 88.0067868,173.659395 C88.8908188,173.855171 89.9694108,174.487491 90.2466588,175.412867 C90.4156829,175.974659 90.1347868,176.507267 89.4757148,176.861123 C89.1323163,177.039395 88.7629965,177.162501 88.3813148,177.225923 C88.6655868,177.438189 88.9911701,177.588553 89.3370908,177.667331 C89.9341468,177.788931 90.4667549,177.594371 90.9178909,177.090947 C90.9564002,177.044468 91.0173103,177.02287 91.0764979,177.034709 C91.1356855,177.046547 91.1836021,177.089912 91.2012705,177.147628 C91.2189388,177.205344 91.2035086,177.268101 91.1610909,177.311043 C90.6333469,177.898371 89.9779228,178.134275 89.2689948,177.990787 C88.7662586,177.874511 88.3008447,177.63365 87.9155868,177.290371 C86.6071708,177.411971 85.0421788,177.078787 84.1228827,176.002627 C83.7763227,175.596483 83.4261147,175.422595 83.0832027,175.489475 C82.1857947,175.659715 81.4075547,177.387651 81.1825947,178.043075 C81.1591666,178.105335 81.1007145,178.147497 81.0342427,178.150083 L81.0342427,178.150083 Z M87.4072988,173.918403 C87.0935708,173.918403 86.8455068,173.995011 86.7153948,174.142147 C86.5852828,174.289283 86.5597468,174.551939 86.6752668,174.883907 C86.95321,175.671359 87.4200022,176.378645 88.0347548,176.943811 C88.4820963,176.900162 88.9174774,176.774 89.3188508,176.571715 C89.6836508,176.373507 90.0873628,176.026947 89.9268508,175.507715 C89.6836508,174.708803 88.7242268,174.156739 87.9301788,173.980419 C87.7585761,173.941274 87.5832975,173.920485 87.4072988,173.918403 Z" id="Shape" fill="url(#linearGradient-32)"></path>
                    <polygon id="Path" fill="url(#linearGradient-33)" points="67.7579545 172.618499 68.8888345 171.836611 70.0184985 172.618499 71.1493785 171.836611 72.2802585 172.618499 73.4111386 171.836611 74.2088346 172.504195 74.6575386 172.871427 74.6867226 172.871427 74.6867226 158.444803 66.4848024 158.444803 66.4848024 172.038467"></polygon>
                    <rect id="Rectangle" fill="url(#linearGradient-34)" x="93.5845789" y="129.260802" width="17.9384323" height="29.1840005"></rect>
                    <rect id="Rectangle" fill="url(#linearGradient-35)" x="64.6109464" y="129.260802" width="34.2291846" height="29.1840005"></rect>
                    <rect id="Rectangle" fill="url(#linearGradient-25)" x="90.1043868" y="149.148483" width="6.83513612" height="3.23091206"></rect>
                    <rect id="Rectangle" fill="url(#linearGradient-26)" x="92.4062749" y="153.792387" width="4.53324808" height="2.05260804"></rect>
                    <polygon id="Path" fill="url(#linearGradient-27)" points="78.5718426 141.149635 79.5191067 140.494211 80.4675867 141.149635 81.4160667 140.494211 82.3645467 141.149635 83.3130267 140.494211 83.9830427 141.054787 84.3587867 141.362435 84.3831067 141.362435 84.3831067 129.260802 77.5029786 129.260802 77.5029786 140.663235"></polygon>
                    <path d="M86.3870748,8.86464033 C86.3870748,8.86464033 85.2440348,14.5640324 84.3575707,16.1156485 C83.4711067,17.6672645 81.3662107,20.3266565 81.3662107,21.2629765 C81.3662107,22.1992966 84.0596507,23.6791686 83.8371227,24.5656326 C83.7699317,24.91879 83.7292847,25.2764837 83.7155227,25.6357126 C83.4723227,29.4746247 86.0392988,32.9754888 89.7955228,33.7889928 C90.2998039,33.9109633 90.8205851,33.9499808 91.3374109,33.9045128 L91.1319069,43.6835849 C96.188035,45.305729 101.878915,44.703809 105.199811,41.9811849 L103.740611,32.0720007 C103.740611,32.0720007 105.796867,25.7792006 105.900227,23.1745286 C106.003587,20.5698565 98.213891,11.1288324 98.213891,11.1288324 L86.3870748,8.86464033 Z" id="Path" fill="#FCB0AA"></path>
                    <path d="M98.213891,11.1288324 L86.3858588,8.86464033 C86.3858588,8.86464033 86.2752028,9.41792034 86.0952348,10.2253444 C86.0380828,10.4831364 87.7781788,11.8061444 89.7432348,13.0221444 C92.7443229,14.8753284 94.5780509,18.0211205 95.0936349,21.5086086 C95.1037759,21.6494327 95.1782412,21.7777284 95.2954909,21.8563846 C96.0883229,22.3512966 98.001091,20.1539845 99.128323,22.9811846 C99.800771,24.6714246 97.376067,25.7427206 97.376067,25.7427206 C97.376067,25.7427206 99.546627,32.6982407 103.750339,32.0768647 C103.750339,32.0768647 105.806595,25.7840646 105.909955,23.1793926 C106.013315,20.5747205 98.213891,11.1288324 98.213891,11.1288324 Z" id="Path" fill="#430248"></path>
                    <path d="M87.5045788,6.38764829 C87.5045788,6.38764829 96.349763,1.1880322 103.227459,4.15872025 C110.105155,7.1294083 114.685827,13.2410244 105.965891,23.6888966 C103.715075,22.6139526 98.215107,16.6652805 98.215107,16.6652805 L88.7582748,9.24768034 L87.5045788,6.38764829 Z" id="Path" fill="url(#linearGradient-36)"></path>
                    <path d="M94.2874269,13.5875844 L98.215107,16.6689285 C98.215107,16.6689285 103.715075,22.6176006 105.965891,23.6925446 C112.227075,16.1910405 111.630019,10.9245444 108.250755,7.45164831 C105.121987,13.1571204 98.633411,13.8478084 94.2874269,13.5875844 Z" id="Path" fill="#000000" opacity="0.05"></path>
                    <path d="M87.5045788,6.38764829 L98.213891,16.6652805 C98.213891,16.6652805 76.9338906,2.91475223 75.6352026,1.0323842 C74.3365146,-0.849983833 81.2798747,1.61120021 87.5045788,6.38764829 Z" id="Path" fill="#2A305B"></path>
                    <path d="M97.783427,33.3439368 C95.4730269,34.0443528 91.3386269,33.9045128 91.3386269,33.9045128 L91.2486429,38.1836168 C93.528743,36.7126399 95.7115401,35.096054 97.783427,33.3439368 L97.783427,33.3439368 Z" id="Path" fill="#F4919A"></path>
                    <path d="M106.402435,178.810371 C106.402435,178.810371 112.374211,182.167747 112.753603,184.091459 C113.132995,186.015171 110.550211,188.653891 108.862403,189.432131 C107.302275,189.237571 103.935171,190.580035 103.935171,190.580035 L101.183363,195.209348 L92.0743069,195.209348 L88.6695068,192.081795 C88.6695068,192.081795 96.740099,188.273283 96.929795,187.609347 C97.119491,186.945411 98.433987,182.835331 98.433987,182.835331 L106.402435,178.810371 Z" id="Path" fill="#2A305B"></path>
                    <path d="M91.1610909,190.880387 L89.6325788,192.964612 L92.0767389,195.210564 L100.440387,195.210564 C100.305411,192.541444 98.288067,189.692355 96.710915,187.853763 C95.9253789,188.484867 93.2209949,189.866243 91.1610909,190.880387 Z" id="Path" fill="#000000" opacity="0.1"></path>
                    <path d="M75.5160346,104.291458 C75.5160346,104.291458 65.8609944,134.681731 65.8609944,140.753219 C65.8609944,146.824707 97.207043,183.455491 97.207043,183.455491 C97.207043,183.455491 106.271107,183.786243 107.066371,178.336131 C104.543171,170.280131 86.8528028,137.555139 86.8528028,137.555139 L89.7626908,98.4643859 L75.5160346,104.291458 Z" id="Path" fill="#353967"></path>
                    <path d="M102.390851,167.625603 C96.320579,155.069187 86.8528028,137.555139 86.8528028,137.555139 L87.8158748,124.610818 L79.3975067,113.241218 L72.4663065,122.25421 L73.7090586,154.148675 C82.3779227,166.008323 95.3380509,181.265475 97.020995,183.240259 L102.390851,167.625603 Z" id="Path" fill="#2A305B"></path>
                    <path d="M69.0298905,126.116226 C74.7450906,122.531458 81.7395227,118.427458 88.5150748,115.172226 L89.7626908,98.4643859 L75.5160346,104.301186 C75.5160346,104.301186 71.8485785,115.836162 69.0298905,126.116226 Z" id="Path" fill="#2A305B"></path>
                    <path d="M44.4545301,73.5631375 L20.7546896,64.2120973 C20.6714139,64.1808689 20.6292213,64.088045 20.6604496,64.0047693 C20.691678,63.9214936 20.7845019,63.8793009 20.8677777,63.9105293 L44.8776981,72.4225294 C45.1943472,72.534683 45.3601236,72.8822963 45.24797,73.1989454 C45.1358164,73.5155946 44.7882032,73.681371 44.4715541,73.5692175 L44.4545301,73.5631375 Z" id="Path" fill="#2A305B"></path>
                    <path d="M49.6492821,69.0967694 L25.9518737,59.7469452 C25.8717187,59.713418 25.8323766,59.6225496 25.8627763,59.541157 C25.8931759,59.4597644 25.9824535,59.4169347 26.0649617,59.4441612 L50.0760982,67.9561614 C50.2876453,68.0234284 50.4457179,68.2006408 50.488474,68.4184687 C50.53123,68.6362966 50.4518728,68.8601126 50.2814487,69.0023544 C50.1110247,69.1445961 49.8766255,69.1826519 49.6699541,69.1016334 L49.6492821,69.0967694 Z" id="Path" fill="#2A305B"></path>
                    <polygon id="Path" fill="#2A305B" points="43.479298 73.3807374 43.346754 75.1342095 45.3422101 76.8888975 45.9903381 74.6040335"></polygon>
                    <path d="M47.4933141,71.9884174 L44.6685461,71.6649614 C43.817346,72.3848334 43.745602,72.6170894 43.479298,73.3807374 L45.7726741,74.7669775 L47.4933141,71.9884174 Z" id="Path" fill="#353967"></path>
                    <polygon id="Path" fill="#2A305B" points="47.8568981 68.0169614 47.7243541 69.7704334 49.7198101 71.5251214 50.3679382 69.2402574"></polygon>
                    <path d="M51.8709142,66.6246413 L49.0461461,66.3011853 C48.1949461,67.0210573 48.1232021,67.2545293 47.8581141,68.0169614 L50.1514902,69.4019854 L51.8709142,66.6246413 Z" id="Path" fill="#353967"></path>
                    <path d="M83.3069467,183.567363 L69.8093465,191.518787 C69.8093465,191.518787 68.5532185,194.971012 69.6001945,195.703044 C70.6471705,196.435076 83.2996507,195.703044 83.2996507,195.703044 C83.2996507,195.703044 85.9201308,193.820676 87.2808348,194.029828 C88.6415388,194.23898 89.4781468,195.598468 90.1056028,195.598468 L94.5063069,195.598468 C94.9563071,195.598579 95.3858485,195.410494 95.6909691,195.079735 C95.9960898,194.748975 96.1489826,194.305686 96.1126429,193.857156 C95.7697309,189.635203 95.7077149,185.042371 93.8715549,182.835331 L83.3069467,183.567363 Z" id="Path" fill="#2A305B"></path>
                    <path d="M107.866499,99.9880339 C107.866499,99.9880339 107.380099,107.18797 105.525699,111.175234 C103.671299,115.162498 95.7247389,139.589507 95.7247389,139.589507 L95.2030749,183.384963 C95.2030749,183.384963 89.7578268,186.486979 86.4199068,185.765891 C83.0819867,185.044803 80.8858907,184.279939 81.3333787,182.937475 C81.7808667,181.595011 77.5990426,146.767555 76.4803226,137.823875 C75.3616026,128.880194 79.5726107,101.559106 79.5726107,101.559106 L107.866499,99.9880339 Z" id="Path" fill="#42417D"></path>
                    <path d="M77.0785946,121.265602 C87.1105948,115.472578 98.613955,109.853442 106.232195,109.32813 C107.511427,105.301954 107.866499,99.9880339 107.866499,99.9880339 L79.5726107,101.554242 C79.5726107,101.554242 78.0489626,111.440322 77.0785946,121.265602 Z" id="Path" fill="#353967"></path>
                    <polygon id="Path" fill="#42417D" points="44.5749141 74.9955855 52.1907222 65.6980493 68.3027225 70.5900174 63.4022424 80.2888336"></polygon>
                    <ellipse id="Oval" fill="#353967" cx="62.2251544" cy="69.5612814" rx="1.69024003" ry="1.04576002"></ellipse>
                    <ellipse id="Oval" fill="#2A305B" transform="translate(61.416026, 68.976876) rotate(-36.120000) translate(-61.416026, -68.976876) " cx="61.4160264" cy="68.9768758" rx="1" ry="1.40083202"></ellipse>
                    <polygon id="Path" fill="#2A305B" points="68.3027225 70.5900174 68.1288345 74.3048975 65.3308184 81.8112656 62.6154904 81.8112656"></polygon>
                    <path d="M63.1590424,67.8053774 C63.1590424,67.8053774 60.3294103,68.8231694 60.4984343,68.9496334 C61.2973463,70.3747854 64.5306904,69.4627854 64.5306904,69.4627854 L68.3002905,70.5900174 L68.1191065,74.5091855 L70.1242905,74.7669775 C70.1242905,74.7669775 70.2252185,70.7833614 70.0987545,69.5187214 C69.9552665,69.0724494 66.3777944,67.8053774 66.3777944,67.8053774 L63.1590424,67.8053774 Z" id="Path" fill="#FCB0AA"></path>
                    <path d="M69.7072025,68.9776014 C69.0408345,70.4976014 69.5965465,73.0268814 70.1206425,75.3506575 L85.9201308,73.8355215 L94.4649629,48.151169 L87.5240348,47.276865 L80.7910427,64.6060813 L69.7072025,68.9776014 Z" id="Path" fill="url(#linearGradient-37)"></path>
                    <ellipse id="Oval" fill="#353967" cx="56.5695383" cy="75.3506575" rx="1.69024003" ry="1.04576002"></ellipse>
                    <ellipse id="Oval" fill="#2A305B" transform="translate(55.761021, 74.766889) rotate(-36.120000) translate(-55.761021, -74.766889) " cx="55.7610211" cy="74.7668895" rx="1" ry="1.40083202"></ellipse>
                    <polygon id="Path" fill="#2A305B" points="44.9251221 79.0010895 44.5749141 74.9955855 57.9192983 78.4040335 57.2225303 81.8112656 55.4848662 81.2008336"></polygon>
                    <path d="M62.6154904,79.4400656 L59.6800663,76.8949775 C59.6800663,76.8949775 56.9221783,74.1419535 56.4151063,73.8549775 C55.9080343,73.5680015 55.7949463,75.8273295 56.4710423,76.6736655 C57.1471383,77.5200015 57.2225303,78.3128335 57.2225303,78.3128335 L55.2890902,81.1315216 L48.3578901,79.6662416 C48.3578901,79.6662416 51.3443862,84.9084176 52.3597462,85.3024017 C53.3751062,85.6963857 57.0376983,87.5714577 59.8004503,87.2480017 C62.6154904,86.7688977 62.6154904,79.4400656 62.6154904,79.4400656 Z" id="Path" fill="#FCB0AA"></path>
                    <path d="M103.346627,37.7592328 C103.346627,37.7592328 108.723779,39.1977609 108.042819,58.1430412 C107.363075,77.0518415 115.008067,103.051138 110.602499,104.45197 C110.602499,104.45197 83.7033627,107.189186 75.5160346,104.291458 C75.1430732,104.291326 74.7891128,104.126885 74.548464,103.841949 C74.3078151,103.557013 74.204923,103.180527 74.2672026,102.812802 C75.1293466,97.7651859 77.9711386,81.2725776 79.0716187,76.7332495 C80.3763867,71.3512334 84.5837468,52.7221131 88.3314588,45.912513 C102.270467,37.9246088 103.346627,37.7592328 103.346627,37.7592328 Z" id="Path" fill="url(#linearGradient-38)"></path>
                    <path d="M98.132419,81.8112656 C100.842883,72.8335374 105.204675,57.3161612 105.204675,57.3161612 L94.5038749,52.4241931 L81.5169947,66.6830093 C80.4225947,70.9912974 79.5507227,74.7560335 79.0716187,76.7332495 C77.9918106,81.1838096 75.2400026,97.1280019 74.3207066,102.505154 C81.7638427,93.5505298 96.842243,86.0855057 98.132419,81.8112656 Z" id="Path" fill="#000000" opacity="0.1"></path>
                    <path d="M85.9201308,51.5924491 C91.1416349,48.754305 101.443587,42.9479049 105.241155,39.3266569 L105.241155,39.3266569 C104.685443,38.7782409 104.171075,38.3100808 103.694403,37.9075848 C103.584176,37.8457182 103.46757,37.7959772 103.346627,37.7592328 C103.346627,37.7592328 102.270467,37.9246088 88.3314588,45.912513 C87.5374108,47.354689 86.7239068,49.328257 85.9201308,51.5924491 Z" id="Path" fill="#000000" opacity="0.1"></path>
                    <path d="M88.3314588,41.7890569 C88.3314588,41.7890569 85.6258588,48.653377 85.6258588,49.337985 C85.6258588,50.022593 101.815683,42.4979849 105.241155,39.3266569 C105.784707,36.5371528 104.990659,34.8529928 104.577219,34.8517768 C104.577219,34.8517768 93.7329309,38.1507848 88.3314588,41.7890569 Z" id="Path" fill="url(#linearGradient-39)"></path>
                    <path d="M82.1930907,72.8335374 L93.8362909,50.6828811 C96.827651,47.605185 108.130371,49.742913 104.522499,60.5640972 C100.914627,71.3852814 90.2952988,82.9859216 90.2952988,82.9859216 C90.2952988,82.9859216 79.3452187,91.4128018 60.5032983,87.4304017 C60.2600983,85.9979537 60.1141783,81.5863056 62.1047704,78.9743375 C65.9655704,77.8544015 82.1930907,72.8335374 82.1930907,72.8335374 Z" id="Path" fill="url(#linearGradient-40)"></path>
                    <path d="M91.4042909,55.3182731 L82.1955227,72.8286734 L85.0579868,72.8286734 C85.0579868,72.8286734 89.6204188,57.9533452 91.5149469,55.2854411 L91.4042909,55.3182731 Z" id="Path" fill="#000000" opacity="0.1"></path>
                    <path d="M108.270211,67.6047373 C108.259267,67.6752653 104.460483,92.1679378 108.380867,104.65869 C109.780483,104.53709 110.602499,104.45197 110.602499,104.45197 C114.305219,103.274882 109.495939,84.7235856 108.270211,67.6047373 Z" id="Path" fill="#000000" opacity="0.05"></path>
                    <ellipse id="Oval" fill="url(#linearGradient-41)" cx="49.5617301" cy="72.8238094" rx="1.20748802" ry="1"></ellipse>
                    <ellipse id="Oval" fill="url(#linearGradient-42)" cx="51.0063382" cy="70.5900174" rx="1.20748802" ry="1"></ellipse>
                    <ellipse id="Oval" fill="url(#linearGradient-43)" cx="52.4497302" cy="68.3574414" rx="1.20748802" ry="1"></ellipse>
                    <polygon id="Path" fill="#2A305B" points="59.0197783 74.9955855 61.4152984 71.0277774 66.4969624 71.2867854 62.6154904 78.4745615"></polygon>
                    <polygon id="Path" fill="#2A305B" points="54.8780822 69.1393294 55.7608983 67.8005134 56.5695383 68.0169614 55.7608983 69.5612814"></polygon>
                    <polygon id="Path" fill="#2A305B" points="56.4394263 69.5977614 57.3210263 68.2589454 58.1296663 68.4753934 57.3210263 70.0197134"></polygon>
                    <polygon id="Path" fill="#2A305B" points="57.9192983 70.2300814 58.8021143 68.8900494 59.6107543 69.1064974 58.8021143 70.6508174"></polygon>
                    <polygon id="Path" fill="#353967" points="95.2930589 175.840899 95.7247389 139.589507 93.1139869 149.346691"></polygon>
                </g>
                <g id="Group" opacity="0.3" transform="translate(366.319997, 174.684802)"></g>
                <g id="Group-26" fill-rule="nonzero">
                    <rect id="Rectangle" fill="url(#linearGradient-44)" x="39.0287367" y="12.8263682" width="41.4206087" height="31.6853125"></rect>
                    <polygon id="Path" fill="#000000" opacity="0.1" points="59.312833 15.4456323 59.586433 29.6801285 61.7922571 15.4456323 80.4493454 15.4456323 80.4493454 12.8263682 39.0287367 12.8263682 39.0287367 44.5116808 40.0343687 15.4456323"></polygon>
                    <path d="M78.2374413,7.8200968 L40.3833607,7.8200968 C39.9207223,7.82055558 39.4899014,7.5846683 39.2410599,7.19465235 C38.9922184,6.80463639 38.9598364,6.31453351 39.1552007,5.8951681 L40.8101767,2.34201604 C41.0326191,1.86523719 41.5110042,1.56037934 42.0371207,1.56012803 L76.5824653,1.56012803 C77.1083178,1.56024976 77.5864085,1.86522229 77.8081933,2.34201604 L79.4643854,5.8951681 C79.6596581,6.31433767 79.6274028,6.80419385 79.3788527,7.19413923 C79.1303025,7.58408461 78.6998639,7.8200968 78.2374413,7.8200968 L78.2374413,7.8200968 Z" id="Path" fill="url(#linearGradient-45)"></path>
                    <path d="M82.9676814,3.10688005 L96.9626257,2.31040004 C97.3845777,2.28729604 97.7104657,2.02220803 97.7104657,1.70240003 L97.7104657,1.70240003 C97.7104657,1.38502402 97.3845777,1.12115202 96.9626257,1.09440002 L82.9676814,0.297920005 C81.8793614,0.235904004 80.9503374,0.882816015 80.9503374,1.70240003 L80.9503374,1.70240003 C80.9503374,2.52320004 81.8793614,3.17011205 82.9676814,3.10688005 Z" id="Path" fill="url(#linearGradient-46)"></path>
                    <path d="M116.602242,3.10688005 L102.608514,2.31040004 C102.186562,2.28729604 101.860674,2.02220803 101.860674,1.70240003 L101.860674,1.70240003 C101.860674,1.38502402 102.186562,1.12115202 102.608514,1.09440002 L116.602242,0.297920005 C117.696642,0.235904004 118.620802,0.882816015 118.620802,1.70240003 L118.620802,1.70240003 C118.620802,2.52320004 117.691778,3.17011205 116.602242,3.10688005 Z" id="Path" fill="url(#linearGradient-47)"></path>
                    <path d="M98.7756817,2.64601605 L98.7756817,7.02361612 C98.7790194,7.75105756 98.2236262,8.35934542 97.4988817,8.42201615 L80.0456334,10.0101122 C79.7472616,8.93076633 79.5947176,7.81633626 79.5920654,6.69651212 L79.5920654,6.37305611 L39.0336007,6.37305611 L39.0336007,6.69651212 C39.0309484,7.81633626 38.8784044,8.93076633 38.5800327,10.0101122 L21.1219204,8.41715215 C20.3966945,8.35507774 19.8406191,7.74662234 19.8439043,7.01875212 L19.8439043,2.64115205 L17.8983043,2.64115205 L17.8983043,7.01875212 C17.8983043,8.75110378 19.2192321,10.197684 20.9443844,10.3554562 L37.9088007,11.9022082 C37.7009835,12.3801497 37.4675788,12.846553 37.2096006,13.2993922 C36.9482362,13.761543 36.81123,14.2835912 36.8119686,14.8145283 L36.8119686,43.0682887 C36.8119686,44.4409947 37.9247667,45.5537928 39.2974727,45.5537928 L47.3024008,45.5537928 C49.4097338,45.5533007 51.4647793,44.8976069 53.1829769,43.6775048 L53.1829769,43.6775048 C53.3009782,43.5925653 53.3508684,43.4413052 53.3065563,43.3028297 C53.2622442,43.1643543 53.133808,43.0701586 52.9884169,43.0695047 L39.0336007,43.0695047 L39.0336007,13.3760002 L58.324225,13.3760002 L58.337601,15.7678723 L58.641601,22.1883524 L59.038017,29.6801285 C59.0541068,29.8193938 59.1720334,29.9244803 59.312225,29.9244803 C59.4524167,29.9244803 59.5703432,29.8193938 59.586433,29.6801285 L59.861249,22.3537284 L60.165249,15.8493443 L60.229697,13.3760002 L79.9288974,13.3760002 L79.9288974,43.0682887 L65.6408971,43.0682887 C65.495506,43.0689426 65.3670699,43.1631383 65.3227577,43.3016137 C65.2784456,43.4400892 65.3283359,43.5913493 65.4463371,43.6762888 L65.4463371,43.6762888 C67.1649096,44.8965584 69.2203937,45.5522565 71.3281292,45.5525768 L79.3245454,45.5525768 C80.6972513,45.5525768 81.8100494,44.4397787 81.8100494,43.0670727 L81.8100494,14.8145283 C81.8107881,14.2835912 81.6737818,13.761543 81.4124174,13.2993922 C81.1552665,12.8465002 80.9226742,12.3800978 80.7156494,11.9022082 L97.6764177,10.3554562 C99.3991633,10.1947385 100.716418,8.74897827 100.716418,7.01875212 L100.716418,2.64115205 L98.7756817,2.64601605 Z" id="Path" fill="url(#linearGradient-48)"></path>
                    <rect id="Rectangle" fill="#353967" transform="translate(99.786178, 1.703008) rotate(-180.000000) translate(-99.786178, -1.703008) " x="97.1450257" y="1.64313008e-14" width="5.28230409" height="3.40601606" rx="1.15398402"></rect>
                    <circle id="Oval" fill="url(#linearGradient-49)" cx="75.7932813" cy="3.90336007" r="1"></circle>
                    <rect id="Rectangle" fill="#353967" x="40.5608967" y="7.73619213" width="7.63040013" height="1" rx="0.233472004"></rect>
                    <rect id="Rectangle" fill="#353967" x="40.5608967" y="9.19539216" width="7.63040013" height="1" rx="0.233472004"></rect>
                    <path d="M80.7180814,11.9082882 L80.7180814,11.9022082 L37.9148807,11.9022082 C37.7050828,12.3802798 37.4696473,12.8466855 37.2096006,13.2993922 C36.9482362,13.761543 36.81123,14.2835912 36.8119657,14.8145283 L36.8119657,43.0682887 C36.8119657,44.4409947 37.9247667,45.5537928 39.2974727,45.5537928 L47.3024008,45.5537928 C49.4097338,45.5533007 51.4647793,44.8976069 53.1829769,43.6775048 L53.1829769,43.6775048 C53.3009782,43.5925653 53.3508684,43.4413052 53.3065563,43.3028297 C53.2622442,43.1643543 53.133808,43.0701586 52.9884169,43.0695047 L39.0336007,43.0695047 L39.0336007,13.3760002 L58.324225,13.3760002 L58.337601,15.7678723 L58.641601,22.1883524 L59.038017,29.6801285 C59.0541068,29.8193938 59.1720334,29.9244803 59.312225,29.9244803 C59.4524167,29.9244803 59.5703432,29.8193938 59.586433,29.6801285 L59.861249,22.3537284 L60.165249,15.8493443 L60.229697,13.3760002 L79.9288974,13.3760002 L79.9288974,43.0682887 L65.6408971,43.0682887 C65.495506,43.0689426 65.3670699,43.1631383 65.3227577,43.3016137 C65.2784456,43.4400892 65.3283359,43.5913493 65.4463371,43.6762888 L65.4463371,43.6762888 C67.1649096,44.8965584 69.2203937,45.5522565 71.3281292,45.5525768 L79.3245454,45.5525768 C80.6972513,45.5525768 81.8100495,44.4397787 81.8100495,43.0670727 L81.8100495,14.8145283 C81.8100495,14.4992354 81.7613132,14.1858371 81.6653454,13.8855042 L81.1789454,12.8628482 C81.0123534,12.5491202 80.8640014,12.2305282 80.7180814,11.9082882 Z" id="Path" fill="#000000" opacity="0.1"></path>
                    <rect id="Rectangle" fill="url(#linearGradient-50)" x="40.5608967" y="28.3473925" width="11.4231042" height="6.38400011" rx="0.325888006"></rect>
                    <rect id="Rectangle" fill="url(#linearGradient-51)" x="40.5608967" y="36.3036806" width="6.25996811" height="5.15462409" rx="0.378176007"></rect>
                    <path d="M62.2117771,41.3111738 C62.0615397,41.3116104 61.9125818,41.2835518 61.7728011,41.2284807 C61.0432011,40.9415047 60.556801,39.9006087 60.334273,38.1361927 C60.266177,37.5926406 60.138497,37.4698246 60.067969,37.4455046 C59.857601,37.3725446 59.416193,37.8103047 58.989377,38.2310407 C58.301121,38.9120007 57.445057,39.7583367 56.519681,39.7145607 C56.050305,39.6926727 55.608897,39.4385287 55.208833,38.9594247 C55.0766335,38.8020532 54.9593904,38.6327021 54.8586249,38.4535687 C53.6612409,39.2322248 52.4191909,39.9399375 51.1388809,40.5730567 C51.0784388,40.6026061 51.0054863,40.5775627 50.9759369,40.5171207 C50.9463874,40.4566787 50.9714308,40.3837261 51.0318729,40.3541767 C52.3130829,39.7238968 53.5537796,39.0144051 54.7467529,38.2298247 C54.3819529,37.4114566 54.4220809,36.4982406 54.8938889,35.6275846 C55.452033,34.5976326 56.491713,33.8631686 57.260225,33.9555846 C57.650561,34.0030086 57.929025,34.2680966 58.043329,34.7009926 C58.325441,35.7771526 56.767745,37.1633926 55.0592649,38.3185927 C55.1557541,38.4908185 55.2681138,38.6536587 55.394881,38.8049927 C55.759681,39.2354567 56.124481,39.4531207 56.530625,39.4725767 C57.346561,39.5151367 58.163713,38.7064967 58.819137,38.0595847 C59.363905,37.5208966 59.791937,37.0952966 60.148225,37.2181126 C60.374401,37.2959366 60.513025,37.5829126 60.576257,38.1070087 C60.781761,39.7534727 61.2268171,40.7554567 61.8615691,41.0035207 C62.3345931,41.1895687 62.9377291,40.9767687 63.6563851,40.3712007 C63.7077608,40.3278839 63.7845243,40.334417 63.8278411,40.3857927 C63.8711579,40.4371684 63.8646248,40.5139319 63.8132491,40.5572487 C63.2174091,41.0582407 62.6799371,41.3111738 62.2117771,41.3111738 Z M57.122817,34.1914886 C56.467393,34.1914886 55.587009,34.8602886 55.107905,35.7443206 C54.8379529,36.2404486 54.5217929,37.1256966 54.9473929,38.0948487 C56.624257,36.9554566 58.046977,35.6737926 57.807425,34.7630086 C57.718657,34.4225286 57.524097,34.2328326 57.231041,34.1975686 C57.1951462,34.1930867 57.1589879,34.1910553 57.122817,34.1914886 L57.122817,34.1914886 Z" id="Shape" fill="url(#linearGradient-52)"></path>
                    <path d="M35.6531206,3.10688005 L21.6581764,2.31040004 C21.2362244,2.28729604 20.9103364,2.02220803 20.9103364,1.70240003 L20.9103364,1.70240003 C20.9103364,1.38502402 21.2362244,1.12115202 21.6581764,1.09440002 L35.6531206,0.297920005 C36.7414406,0.235904004 37.6704646,0.882816015 37.6704646,1.70240003 L37.6704646,1.70240003 C37.6704646,2.52320004 36.7414406,3.17011205 35.6531206,3.10688005 Z" id="Path" fill="url(#linearGradient-47)"></path>
                    <path d="M2.01734403,3.10688005 L16.0122883,2.31040004 C16.4342403,2.28729604 16.7601283,2.02220803 16.7601283,1.70240003 L16.7601283,1.70240003 C16.7601283,1.38502402 16.4342403,1.12115202 16.0122883,1.09440002 L2.01734403,0.297920005 C0.929024016,0.235904004 -2.7000624e-13,0.882816015 -2.7000624e-13,1.70240003 L-2.7000624e-13,1.70240003 C-2.7000624e-13,2.52320004 0.929024016,3.17011205 2.01734403,3.10688005 Z" id="Path" fill="url(#linearGradient-46)"></path>
                    <rect id="Rectangle" fill="#353967" x="16.1946883" y="1.64313008e-14" width="5.28230409" height="3.40601606" rx="1.15398402"></rect>
                </g>
            </g>
        </g>
    </g>
</svg>