<?xml version="1.0" encoding="UTF-8"?>
<svg width="430px" height="300px" viewBox="0 0 430 300" version="1.1" xmlns="http://www.w3.org/2000/svg" xmlns:xlink="http://www.w3.org/1999/xlink">
    <!-- Generator: Sketch 56.3 (81716) - https://sketch.com -->
    <title>technology copy 2</title>
    <desc>Created with Sketch.</desc>
    <defs>
        <linearGradient x1="68.2720936%" y1="-1.2741183%" x2="43.3403972%" y2="68.687586%" id="linearGradient-1">
            <stop stop-color="#FFFFFF" offset="0%"></stop>
            <stop stop-color="#AAD7FF" offset="100%"></stop>
        </linearGradient>
        <linearGradient x1="78.2018719%" y1="-85.5576943%" x2="46.5119516%" y2="35.2764941%" id="linearGradient-2">
            <stop stop-color="#FFFFFF" offset="0%"></stop>
            <stop stop-color="#AAD7FF" offset="100%"></stop>
        </linearGradient>
        <linearGradient x1="78.0506139%" y1="-4.81909228%" x2="58.8187057%" y2="40.6931428%" id="linearGradient-3">
            <stop stop-color="#FFFFFF" offset="0%"></stop>
            <stop stop-color="#AAD7FF" offset="100%"></stop>
        </linearGradient>
        <linearGradient x1="78.3241075%" y1="-79.6813556%" x2="45.8759743%" y2="74.0386335%" id="linearGradient-4">
            <stop stop-color="#FFFFFF" offset="0%"></stop>
            <stop stop-color="#AAD7FF" offset="100%"></stop>
        </linearGradient>
        <linearGradient x1="63.9103052%" y1="-53.6709182%" x2="48.83162%" y2="82.7971318%" id="linearGradient-5">
            <stop stop-color="#FFFFFF" offset="0%"></stop>
            <stop stop-color="#AAD7FF" offset="100%"></stop>
        </linearGradient>
        <linearGradient x1="103.172502%" y1="-70.0226074%" x2="14.4618721%" y2="134.348154%" id="linearGradient-6">
            <stop stop-color="#FFFFFF" stop-opacity="0" offset="0%"></stop>
            <stop stop-color="#91B8FF" offset="100%"></stop>
        </linearGradient>
        <linearGradient x1="49.9858797%" y1="114.818721%" x2="49.9858797%" y2="-103.678269%" id="linearGradient-7">
            <stop stop-color="#91B8FF" offset="0%"></stop>
            <stop stop-color="#FFFFFF" stop-opacity="0" offset="100%"></stop>
        </linearGradient>
        <linearGradient x1="50%" y1="236.142736%" x2="50%" y2="-2.115548%" id="linearGradient-8">
            <stop stop-color="#FFFFFF" offset="0%"></stop>
            <stop stop-color="#AAD7FF" offset="100%"></stop>
        </linearGradient>
        <linearGradient x1="50%" y1="218.215803%" x2="50%" y2="-48.7340697%" id="linearGradient-9">
            <stop stop-color="#FFFFFF" offset="0%"></stop>
            <stop stop-color="#AAD7FF" offset="100%"></stop>
        </linearGradient>
        <linearGradient x1="49.9967339%" y1="218.401015%" x2="49.9967339%" y2="78.5532995%" id="linearGradient-10">
            <stop stop-color="#FF8FE2" offset="0%"></stop>
            <stop stop-color="#6362D7" offset="100%"></stop>
        </linearGradient>
        <linearGradient x1="49.9967339%" y1="218.274112%" x2="49.9967339%" y2="78.5532995%" id="linearGradient-11">
            <stop stop-color="#FF8FE2" offset="0%"></stop>
            <stop stop-color="#6362D7" offset="100%"></stop>
        </linearGradient>
        <linearGradient x1="49.9967339%" y1="218.274112%" x2="49.9967339%" y2="78.4263959%" id="linearGradient-12">
            <stop stop-color="#FF8FE2" offset="0%"></stop>
            <stop stop-color="#6362D7" offset="100%"></stop>
        </linearGradient>
        <linearGradient x1="50%" y1="218.335208%" x2="50%" y2="78.5151856%" id="linearGradient-13">
            <stop stop-color="#FF8FE2" offset="0%"></stop>
            <stop stop-color="#6362D7" offset="100%"></stop>
        </linearGradient>
        <linearGradient x1="50%" y1="218.222722%" x2="50%" y2="78.5151856%" id="linearGradient-14">
            <stop stop-color="#FF8FE2" offset="0%"></stop>
            <stop stop-color="#6362D7" offset="100%"></stop>
        </linearGradient>
        <linearGradient x1="0%" y1="50.0175747%" x2="100%" y2="50.0175747%" id="linearGradient-15">
            <stop stop-color="#F07295" offset="0%"></stop>
            <stop stop-color="#F06995" offset="99%"></stop>
        </linearGradient>
        <linearGradient x1="47.5210158%" y1="48.9808763%" x2="55.8730298%" y2="52.482519%" id="linearGradient-16">
            <stop stop-color="#FFFFFF" offset="0%"></stop>
            <stop stop-color="#AAD7FF" offset="100%"></stop>
        </linearGradient>
        <linearGradient x1="72.3453909%" y1="-51.1668611%" x2="41.831972%" y2="86.8728121%" id="linearGradient-17">
            <stop stop-color="#D16A7F" offset="0%"></stop>
            <stop stop-color="#F07295" offset="100%"></stop>
        </linearGradient>
        <linearGradient x1="72.3453909%" y1="-51.1668611%" x2="41.831972%" y2="86.8728121%" id="linearGradient-18">
            <stop stop-color="#FC9250" offset="0%"></stop>
            <stop stop-color="#FB8E5F" offset="100%"></stop>
        </linearGradient>
        <linearGradient x1="72.403734%" y1="-51.1668611%" x2="41.8903151%" y2="86.8728121%" id="linearGradient-19">
            <stop stop-color="#24553A" offset="0%"></stop>
            <stop stop-color="#49BE55" offset="100%"></stop>
        </linearGradient>
        <linearGradient x1="29.9901032%" y1="103.462714%" x2="111.314813%" y2="-129.441553%" id="linearGradient-20">
            <stop stop-color="#91B8FF" offset="0%"></stop>
            <stop stop-color="#FFFFFF" stop-opacity="0" offset="100%"></stop>
        </linearGradient>
        <linearGradient x1="-13.6510902%" y1="144.508825%" x2="66.8323031%" y2="25.0073255%" id="linearGradient-21">
            <stop stop-color="#E1C2FF" offset="0%"></stop>
            <stop stop-color="#ECF2FF" offset="100%"></stop>
        </linearGradient>
        <linearGradient x1="-68.429003%" y1="321.238671%" x2="226.253776%" y2="-353.746224%" id="linearGradient-22">
            <stop stop-color="#FF8FE2" offset="0%"></stop>
            <stop stop-color="#6362D7" offset="100%"></stop>
        </linearGradient>
        <linearGradient x1="0.731450379%" y1="69.9335227%" x2="137.747212%" y2="13.2443923%" id="linearGradient-23">
            <stop stop-color="#E1C2FF" offset="0%"></stop>
            <stop stop-color="#ECF2FF" offset="100%"></stop>
        </linearGradient>
        <linearGradient x1="4.46368477%" y1="105.311793%" x2="132.659951%" y2="-50.3780291%" id="linearGradient-24">
            <stop stop-color="#FC7F50" offset="0%"></stop>
            <stop stop-color="#FBFF69" offset="100%"></stop>
        </linearGradient>
        <linearGradient x1="75.4926266%" y1="-24.3478178%" x2="13.8844001%" y2="151.188208%" id="linearGradient-25">
            <stop stop-color="#6362D7" offset="0%"></stop>
            <stop stop-color="#FF8FE2" offset="100%"></stop>
        </linearGradient>
        <linearGradient x1="95.3148768%" y1="-56.0693642%" x2="-43.1700639%" y2="267.934287%" id="linearGradient-26">
            <stop stop-color="#6362D7" offset="0%"></stop>
            <stop stop-color="#FF8FE2" offset="100%"></stop>
        </linearGradient>
        <linearGradient x1="95.3148768%" y1="-56.0693642%" x2="-155.095832%" y2="529.905689%" id="linearGradient-27">
            <stop stop-color="#FC7F50" offset="0%"></stop>
            <stop stop-color="#FBFF69" offset="100%"></stop>
        </linearGradient>
        <linearGradient x1="50.4330152%" y1="335.232047%" x2="49.2999962%" y2="-410.54813%" id="linearGradient-28">
            <stop stop-color="#FC7F50" offset="0%"></stop>
            <stop stop-color="#FBFF69" offset="100%"></stop>
        </linearGradient>
        <linearGradient x1="49.9850679%" y1="49.0523424%" x2="49.7237569%" y2="35.6340673%" id="linearGradient-29">
            <stop stop-color="#FC7F50" offset="0%"></stop>
            <stop stop-color="#FBFF69" offset="100%"></stop>
        </linearGradient>
        <linearGradient x1="49.9850679%" y1="49.0513485%" x2="49.7237569%" y2="35.6340673%" id="linearGradient-30">
            <stop stop-color="#FC7F50" offset="0%"></stop>
            <stop stop-color="#FBFF69" offset="100%"></stop>
        </linearGradient>
        <linearGradient x1="49.9776019%" y1="49.0523424%" x2="49.7162909%" y2="35.6340673%" id="linearGradient-31">
            <stop stop-color="#FC7F50" offset="0%"></stop>
            <stop stop-color="#FBFF69" offset="100%"></stop>
        </linearGradient>
        <linearGradient x1="49.9776019%" y1="49.0513485%" x2="49.7162909%" y2="35.6340673%" id="linearGradient-32">
            <stop stop-color="#FC7F50" offset="0%"></stop>
            <stop stop-color="#FBFF69" offset="100%"></stop>
        </linearGradient>
        <linearGradient x1="50.0289231%" y1="50.4131564%" x2="49.9532308%" y2="49.3329216%" id="linearGradient-33">
            <stop stop-color="#FC7F50" offset="0%"></stop>
            <stop stop-color="#FBFF69" offset="100%"></stop>
        </linearGradient>
        <linearGradient x1="47.7081699%" y1="-87.2999273%" x2="49.958082%" y2="22.0641821%" id="linearGradient-34">
            <stop stop-color="#FF8FE2" offset="0%"></stop>
            <stop stop-color="#6362D7" offset="100%"></stop>
        </linearGradient>
        <linearGradient x1="0%" y1="50.0782473%" x2="100%" y2="50.0782473%" id="linearGradient-35">
            <stop stop-color="#F6F3FF" offset="0%"></stop>
            <stop stop-color="#E5D6FF" offset="100%"></stop>
        </linearGradient>
        <linearGradient x1="-0.00550955%" y1="50.0219974%" x2="100.102491%" y2="50.0219974%" id="linearGradient-36">
            <stop stop-color="#F6F3FF" offset="0%"></stop>
            <stop stop-color="#E5D6FF" offset="100%"></stop>
        </linearGradient>
        <linearGradient x1="52.2917523%" y1="-87.2999273%" x2="50.0416118%" y2="22.0641821%" id="linearGradient-37">
            <stop stop-color="#FF8FE2" offset="0%"></stop>
            <stop stop-color="#6362D7" offset="100%"></stop>
        </linearGradient>
        <linearGradient x1="100%" y1="50.0782473%" x2="-0.0101905635%" y2="50.0782473%" id="linearGradient-38">
            <stop stop-color="#F6F3FF" offset="0%"></stop>
            <stop stop-color="#E5D6FF" offset="100%"></stop>
        </linearGradient>
        <linearGradient x1="100.00551%" y1="50.0219974%" x2="-0.128113643%" y2="50.0219974%" id="linearGradient-39">
            <stop stop-color="#F6F3FF" offset="0%"></stop>
            <stop stop-color="#E5D6FF" offset="100%"></stop>
        </linearGradient>
        <linearGradient x1="50.0172117%" y1="261.42745%" x2="50.0172117%" y2="380.782892%" id="linearGradient-40">
            <stop stop-color="#F6F3FF" offset="0%"></stop>
            <stop stop-color="#E5D6FF" offset="100%"></stop>
        </linearGradient>
        <linearGradient x1="50.0050398%" y1="261.444818%" x2="50.0050398%" y2="380.810508%" id="linearGradient-41">
            <stop stop-color="#4E50B8" offset="0%"></stop>
            <stop stop-color="#A67BFF" offset="100%"></stop>
        </linearGradient>
        <linearGradient x1="38.9732796%" y1="31.7699145%" x2="53.1387262%" y2="60.0823727%" id="linearGradient-42">
            <stop stop-color="#F6F3FF" offset="0%"></stop>
            <stop stop-color="#E5D6FF" offset="100%"></stop>
        </linearGradient>
        <linearGradient x1="20.0240158%" y1="-92.5095566%" x2="50.4762475%" y2="72.0433149%" id="linearGradient-43">
            <stop stop-color="#FF8FE2" offset="0%"></stop>
            <stop stop-color="#6362D7" offset="100%"></stop>
        </linearGradient>
        <linearGradient x1="52.125674%" y1="46.4563292%" x2="80.3297387%" y2="-0.352500812%" id="linearGradient-44">
            <stop stop-color="#4E50B8" offset="0%"></stop>
            <stop stop-color="#A67BFF" offset="100%"></stop>
        </linearGradient>
        <linearGradient x1="49.9582638%" y1="-99.478021%" x2="49.9582638%" y2="19.8389322%" id="linearGradient-45">
            <stop stop-color="#F6F3FF" offset="0%"></stop>
            <stop stop-color="#E5D6FF" offset="100%"></stop>
        </linearGradient>
        <linearGradient x1="49.9945664%" y1="261.409736%" x2="49.9945664%" y2="380.780933%" id="linearGradient-46">
            <stop stop-color="#4E50B8" offset="0%"></stop>
            <stop stop-color="#A67BFF" offset="100%"></stop>
        </linearGradient>
        <linearGradient x1="73.8731812%" y1="-6.26238944%" x2="48.2855977%" y2="57.8511706%" id="linearGradient-47">
            <stop stop-color="#FF8FE2" offset="0%"></stop>
            <stop stop-color="#6362D7" offset="100%"></stop>
        </linearGradient>
        <linearGradient x1="91.2456439%" y1="-93.7124401%" x2="51.1556879%" y2="62.504994%" id="linearGradient-48">
            <stop stop-color="#FF8FE2" offset="0%"></stop>
            <stop stop-color="#6362D7" offset="100%"></stop>
        </linearGradient>
        <linearGradient x1="0.0658756439%" y1="50.0144802%" x2="100.10902%" y2="50.0144802%" id="linearGradient-49">
            <stop stop-color="#856DD7" offset="0%"></stop>
            <stop stop-color="#D1C4F8" offset="100%"></stop>
        </linearGradient>
        <linearGradient x1="36.8082223%" y1="75.6759814%" x2="86.458098%" y2="-25.0792476%" id="linearGradient-50">
            <stop stop-color="#856DD7" offset="0%"></stop>
            <stop stop-color="#D1C4F8" offset="100%"></stop>
        </linearGradient>
        <linearGradient x1="12.5831432%" y1="5.63705982%" x2="87.4591485%" y2="73.4963479%" id="linearGradient-51">
            <stop stop-color="#F07295" offset="0%"></stop>
            <stop stop-color="#F03295" offset="99%"></stop>
        </linearGradient>
        <linearGradient x1="-58.4389176%" y1="49.9934461%" x2="41.5610824%" y2="49.9934461%" id="linearGradient-52">
            <stop stop-color="#F6F3FF" offset="0%"></stop>
            <stop stop-color="#E5D6FF" offset="100%"></stop>
        </linearGradient>
        <linearGradient x1="-36.7730439%" y1="49.9711483%" x2="63.1621578%" y2="49.9711483%" id="linearGradient-53">
            <stop stop-color="#F6F3FF" offset="0%"></stop>
            <stop stop-color="#E5D6FF" offset="100%"></stop>
        </linearGradient>
    </defs>
    <g id="technology-copy-2" stroke="none" stroke-width="1" fill="none" fill-rule="evenodd">
        <g id="Layer-2" transform="translate(64.000000, 9.000000)" fill-rule="nonzero">
            <rect id="Rectangle" fill="#006BFF" opacity="0.04" x="246.084178" y="112.838511" width="40.4003603" height="40.4003603" rx="3.40319205"></rect>
            <rect id="Rectangle" fill="#006BFF" opacity="0.04" x="178.052271" y="179.940881" width="40.4003603" height="40.4003603" rx="3.40319205"></rect>
            <rect id="Rectangle" fill="#FF3000" opacity="0.04" x="55.9298647" y="8.23935019" width="52.264271" height="40.4003603" rx="3.87078881"></rect>
            <rect id="Rectangle" fill="url(#linearGradient-1)" x="70.4575714" y="32.9361233" width="187.543071" height="116.290631" rx="2.81698538"></rect>
            <path d="M210.802839,149.228396 L217.372004,149.228396 L217.372004,118.080704 C217.372004,116.945124 218.292573,116.024555 219.428152,116.024555 L258.003927,116.024555 L258.003927,109.455391 L212.858988,109.455391 C211.723408,109.455391 210.802839,110.37596 210.802839,111.511539 L210.802839,149.228396 Z" id="Path" fill="url(#linearGradient-2)"></path>
            <path d="M132.644565,111.532889 C112.73507,111.532889 96.5946338,127.673326 96.5946338,147.582821 C96.5946338,148.136273 96.6094144,148.688082 96.6340488,149.236608 L168.653439,149.236608 C168.678073,148.688082 168.692854,148.136273 168.692854,147.582821 C168.692854,127.665114 152.552417,111.532889 132.644565,111.532889 Z" id="Path" fill="url(#linearGradient-3)"></path>
            <path d="M116.780033,54.2349962 C116.780033,69.5674256 104.298621,82.0422686 88.972761,82.0422686 C82.137456,82.0483976 75.5414396,79.5260472 70.4542869,74.9607095 L70.4542869,90.7759725 C86.7791863,99.0363611 106.602371,95.4711394 119.026075,82.0402823 C131.44978,68.6094253 133.462133,48.5689692 123.956845,32.9361233 L106.827749,32.9361233 C113.136673,38.2107897 116.781732,46.0115771 116.780033,54.2349962 Z" id="Path" fill="url(#linearGradient-4)"></path>
            <path d="M258.003927,100.908908 C246.703461,100.908908 237.542623,91.7480703 237.542623,80.4476039 C237.542623,69.1471375 246.703461,59.9862995 258.003927,59.9862995 L258.003927,54.566739 C243.732418,54.566739 232.123062,66.1760945 232.123062,80.4476039 C232.123062,94.7191133 243.729133,106.328469 258.003927,106.328469 L258.003927,100.908908 Z" id="Path" fill="url(#linearGradient-5)"></path>
            <path d="M258.003927,46.5967004 L248.059855,46.5967004 C247.130167,46.5967004 246.376506,47.3503611 246.376506,48.2800488 L246.376506,66.7065545 C246.376506,67.6362422 247.130167,68.3899029 248.059855,68.3899029 L258.003927,68.3899029 L258.003927,46.5967004 Z" id="Path" fill="url(#linearGradient-6)"></path>
            <path d="M258.003927,78.4867051 L248.059855,78.4867051 C247.130806,78.4848916 246.375939,79.2360834 246.373222,80.1651299 L246.373222,98.5916357 C246.373222,99.5213233 247.126882,100.274984 248.05657,100.274984 L258.003927,100.274984 L258.003927,78.4867051 Z" id="Path" fill="url(#linearGradient-7)"></path>
            <rect id="Rectangle" fill="url(#linearGradient-8)" x="248.179742" y="46.5967004" width="32.0476679" height="19.3297659" rx="2.20112622"></rect>
            <rect id="Rectangle" fill="url(#linearGradient-9)" x="248.179742" y="78.4867084" width="32.0476679" height="19.3297659" rx="2.20112622"></rect>
            <rect id="Rectangle" fill="url(#linearGradient-10)" x="251.63348" y="50.5546219" width="25.141834" height="1.29412536" rx="0.647062681"></rect>
            <rect id="Rectangle" fill="url(#linearGradient-11)" x="251.63348" y="55.6145207" width="25.141834" height="1.29412536" rx="0.647062681"></rect>
            <rect id="Rectangle" fill="url(#linearGradient-12)" x="251.63348" y="60.6744194" width="25.141834" height="1.29412536" rx="0.647062681"></rect>
            <rect id="Rectangle" fill="url(#linearGradient-13)" x="261.684301" y="81.0585362" width="15.0893703" height="1.45999676" rx="0.72999838"></rect>
            <rect id="Rectangle" fill="url(#linearGradient-14)" x="261.684301" y="86.7654977" width="15.0893703" height="1.45999676" rx="0.72999838"></rect>
            <rect id="Rectangle" fill="url(#linearGradient-14)" x="261.684301" y="92.4724591" width="15.0893703" height="1.45999676" rx="0.72999838"></rect>
            <rect id="Rectangle" fill="url(#linearGradient-15)" x="252.341307" y="81.0585362" width="4.67231809" height="4.67231809" rx="0.743592901"></rect>
            <path d="M255.972413,32.9361206 L72.4858009,32.9361206 C71.9473121,32.9352512 71.4305798,33.1485541 71.0495023,33.5290154 C70.6684248,33.9094768 70.4542869,34.4258633 70.4542869,34.9643528 L70.4542869,40.3527098 L258.003927,40.3527098 L258.003927,34.9643528 C258.003927,34.4258633 257.789789,33.9094768 257.408711,33.5290154 C257.027634,33.1485541 256.510902,32.9352512 255.972413,32.9361206 Z" id="Path" fill="url(#linearGradient-16)"></path>
            <circle id="Oval" fill="url(#linearGradient-17)" cx="76.0725646" cy="36.6444165" r="1.40744345"></circle>
            <circle id="Oval" fill="url(#linearGradient-18)" cx="80.887762" cy="36.6444165" r="1.40744345"></circle>
            <circle id="Oval" fill="url(#linearGradient-19)" cx="85.7029594" cy="36.6444165" r="1.40744345"></circle>
            <path d="M111.22909,69.005762 L70.4542869,69.005762 L70.4542869,127.057467 L111.22909,127.057467 C114.351026,127.057467 116.881855,124.526637 116.881855,121.404701 L116.881855,74.6585279 C116.881855,71.5365915 114.351026,69.005762 111.22909,69.005762 L111.22909,69.005762 Z" id="Path" fill="url(#linearGradient-20)"></path>
            <rect id="Rectangle" fill="url(#linearGradient-21)" x="30.7929575" y="68.3899029" width="82.625306" height="53.5616809" rx="7.24432838"></rect>
            <rect id="Rectangle" fill="url(#linearGradient-22)" x="42.356329" y="78.7938168" width="5.43598344" height="5.43598344" rx="1.70615794"></rect>
            <rect id="Rectangle" fill="url(#linearGradient-22)" x="42.356329" y="92.3197261" width="5.43598344" height="5.43598344" rx="1.70615794"></rect>
            <rect id="Rectangle" fill="#42417D" x="52.3283203" y="80.4476039" width="51.4332717" height="1.06420461"></rect>
            <rect id="Rectangle" fill="#42417D" x="52.3283203" y="94.5056155" width="51.4332717" height="1.06420461"></rect>
            <path d="M30.7929575,107.026443 L30.7929575,116.735667 C30.7929575,119.616338 33.1282029,121.951584 36.008874,121.951584 L108.202347,121.951584 C111.083018,121.951584 113.418264,119.616338 113.418264,116.735667 L113.418264,107.026443 L30.7929575,107.026443 Z" id="Path" fill="url(#linearGradient-23)"></path>
            <path d="M171.694962,53.218418 L171.694962,78.4686432 L196.941903,78.6328723 C196.941903,78.5770344 196.941903,78.5228388 196.941903,78.4686432 C196.941903,64.5246115 185.638994,53.2202319 171.694962,53.218418 Z" id="Path" fill="url(#linearGradient-24)"></path>
            <path d="M168.126264,82.518533 L158.697871,59.0912509 C146.931132,63.8255509 140.501947,76.553608 143.674279,88.8339189 C146.846612,101.11423 158.636016,109.135938 171.223523,107.578886 C183.811029,106.021834 193.290452,95.3692091 193.374847,82.6860466 L168.126264,82.518533 Z" id="Path" fill="url(#linearGradient-25)"></path>
            <path d="M168.499064,53.3021574 C165.268487,53.2983733 162.067404,53.9167325 159.070671,55.1234756 L168.499064,78.5524 L168.499064,53.3021574 Z" id="Path" fill="#616799"></path>
            <rect id="Rectangle" fill="url(#linearGradient-26)" x="135.444671" y="116.555015" width="5.39821074" height="5.39821074" rx="1.14732279"></rect>
            <rect id="Rectangle" fill="url(#linearGradient-27)" x="135.444671" y="127.285745" width="5.39821074" height="5.39821074" rx="1.14732279"></rect>
            <rect id="Rectangle" fill="#616799" x="135.444671" y="138.018117" width="5.39821074" height="5.39821074" rx="1.14732279"></rect>
            <rect id="Rectangle" fill="#00009B" opacity="0.1" x="147.203475" y="119.2533" width="46.1713711" height="1"></rect>
            <rect id="Rectangle" fill="#00009B" opacity="0.1" x="147.203475" y="129.607945" width="46.1713711" height="1"></rect>
            <rect id="Rectangle" fill="#00009B" opacity="0.1" x="147.203475" y="139.96259" width="46.1713711" height="1"></rect>
            <path d="M148.817848,84.5401904 C146.863949,84.5392067 144.918309,84.7937299 143.030414,85.2972894 C143.771232,92.0003925 147.162532,98.1286652 152.448601,102.31649 C157.73467,106.504316 164.476256,108.403701 171.171071,107.591391 C171.171071,107.366397 171.182568,107.139761 171.182568,106.911482 C171.18431,100.978852 168.828803,95.2886099 164.634416,91.0929904 C160.440028,86.897371 154.750478,84.5401904 148.817848,84.5401904 Z" id="Path" fill="#00009B" opacity="0.1"></path>
            <path d="M180.113346,54.6587073 C175.503849,59.4838053 175.207292,66.9857545 179.421522,72.1596604 C183.635752,77.3335663 191.042543,78.5610138 196.700486,75.0231165 C195.408684,65.6698547 189.011787,57.8162389 180.113346,54.6587073 L180.113346,54.6587073 Z" id="Path" fill="#00009B" opacity="0.1"></path>
            <path d="M179.283989,78.501489 C179.2835,73.8881439 176.162008,69.8594524 171.694962,68.7068651 L171.694962,78.4686432 L179.283989,78.5179119 L179.283989,78.501489 Z" id="Path" fill="#00009B" opacity="0.1"></path>
            <path d="M168.126264,82.518533 L163.22074,70.3310909 C159.783919,72.8349707 158.281173,77.221738 159.460783,81.3070379 C160.640392,85.3923378 164.250199,88.3028814 168.49273,88.5893873 C172.735261,88.8758932 176.703617,86.4771168 178.421786,82.5875092 L168.126264,82.518533 Z" id="Path" fill="#00009B" opacity="0.1"></path>
            <path d="M164.802266,69.3818467 L168.499064,78.5524 L168.499064,68.4161795 C167.216375,68.498648 165.961422,68.8264632 164.802266,69.3818467 L164.802266,69.3818467 Z" id="Path" fill="#00009B" opacity="0.1"></path>
            <ellipse id="Oval" fill="#0000FF" opacity="0.1" cx="89.5360668" cy="273.868435" rx="24.9677511" ry="4.00554792"></ellipse>
            <ellipse id="Oval" fill="#0000FF" opacity="0.1" cx="250.910872" cy="273.868435" rx="24.9677511" ry="4.00554792"></ellipse>
            <ellipse id="Oval" fill="#0000FF" opacity="0.1" cx="166.078327" cy="273.868435" rx="41.1607411" ry="4.00554792"></ellipse>
            <rect id="Rectangle" fill="#00FF0C" opacity="0.04" x="286.683256" y="150.407561" width="33.4978109" height="50.3838477"></rect>
            <rect id="Rectangle" fill="#006BFF" opacity="0.04" x="263.479325" y="185.174863" width="33.4978109" height="50.3838477"></rect>
            <rect id="Rectangle" fill="#006BFF" opacity="0.04" x="10.5927774" y="154.618395" width="40.4003603" height="40.4003603" rx="3.40319205"></rect>
            <rect id="Rectangle" fill="url(#linearGradient-28)" x="42.356329" y="182.338626" width="50.966861" height="86.3795834"></rect>
            <rect id="Rectangle" fill="url(#linearGradient-29)" transform="translate(68.966371, 243.680661) rotate(-180.000000) translate(-68.966371, -243.680661) " x="57.9679479" y="242.216559" width="21.9968466" height="2.92820498" rx="1.46410249"></rect>
            <rect id="Rectangle" fill="url(#linearGradient-30)" transform="translate(68.966371, 207.377817) rotate(180.000000) translate(-68.966371, -207.377817) " x="57.9679479" y="205.913715" width="21.9968466" height="2.92820498" rx="1.46410249"></rect>
            <rect id="Rectangle" fill="url(#linearGradient-28)" x="232.968842" y="182.338626" width="50.966861" height="86.3795834"></rect>
            <rect id="Rectangle" fill="url(#linearGradient-31)" transform="translate(259.578884, 243.680661) rotate(-180.000000) translate(-259.578884, -243.680661) " x="248.580461" y="242.216559" width="21.9968466" height="2.92820498" rx="1.46410249"></rect>
            <rect id="Rectangle" fill="url(#linearGradient-32)" transform="translate(259.578884, 207.377817) rotate(180.000000) translate(-259.578884, -207.377817) " x="248.580461" y="205.913715" width="21.9968466" height="2.92820498" rx="1.46410249"></rect>
            <rect id="Rectangle" fill="url(#linearGradient-33)" x="30.7929575" y="174.839925" width="266.872299" height="9.8389658" rx="4.9194829"></rect>
            <path d="M192.161193,266.834502 C192.161193,266.834502 198.175263,270.20941 199.742009,271.245696 C200.34473,271.720318 200.597643,272.418292 200.686326,273.078493 C200.747897,273.543314 200.605799,274.012086 200.296504,274.364487 C199.987209,274.716888 199.540835,274.918603 199.071954,274.917861 L185.710274,274.917861 C185.05891,274.917454 184.516773,274.417459 184.463775,273.768255 C184.299546,271.680903 184.442425,269.18462 184.882559,266.59637 L192.161193,266.834502 Z" id="Path" fill="#42417D"></path>
            <path d="M200.573008,272.539821 L195.670769,272.539821 C194.597854,272.540488 193.571391,272.102103 192.829979,271.326567 C192.088566,270.551031 191.696782,269.505894 191.745694,268.434093 C191.768686,267.90856 191.809743,267.366604 191.862296,266.818079 L184.882559,266.591443 C184.442425,269.179694 184.291335,271.682545 184.463775,273.763328 C184.516773,274.412533 185.05891,274.912527 185.710274,274.912934 L199.071954,274.912934 C199.540835,274.913677 199.987209,274.711961 200.296504,274.35956 C200.605799,274.007159 200.747897,273.538387 200.686326,273.073566 C200.661735,272.893105 200.62386,272.714706 200.573008,272.539821 Z" id="Path" fill="#00009B" opacity="0.1"></path>
            <path d="M184.593516,268.603249 C186.478866,268.877512 189.270761,268.795397 191.85737,266.824648 L184.877633,266.598012 C184.767599,267.274636 184.672346,267.944691 184.593516,268.603249 Z" id="Path" fill="#00009B" opacity="0.1"></path>
            <path d="M177.945522,202.103599 C177.945522,202.103599 190.48113,206.437606 191.067428,210.292063 C191.653725,214.14652 192.161193,266.834502 192.161193,266.834502 C189.65013,267.603094 187.121002,267.833015 184.547532,266.834502 L180.113346,220.282119 L175.989553,212.510798 L177.945522,202.103599 Z" id="Path" fill="url(#linearGradient-34)"></path>
            <path d="M177.093173,206.652746 L175.996122,212.510798 L180.119915,220.282119 L181.139778,231.007922 C181.571701,226.687054 184.169805,218.143856 184.890771,214.972592 C184.83986,213.047827 182.862541,206.649461 181.90837,203.663776 C181.404187,203.446994 180.922996,203.248276 180.486146,203.069267 L177.093173,206.652746 Z" id="Path" fill="#00009B" opacity="0.1"></path>
            <path d="M185.250433,267.075919 C185.235652,261.628439 185.11248,219.538161 184.884202,214.972592 C184.6395,212.323577 178.062125,210.556472 178.062125,210.556472 L176.434614,210.13276 L175.989553,212.510798 L180.113346,220.282119 L184.537678,266.816437 L184.559028,266.841071 C184.79716,266.929755 185.027081,267.006943 185.250433,267.075919 Z" id="Path" fill="#00009B" opacity="0.1"></path>
            <path d="M184.476914,273.868435 C184.576421,274.472596 185.097975,274.916368 185.710274,274.917859 L199.071954,274.917859 C199.747554,274.917601 200.352745,274.499979 200.592716,273.868435 L184.476914,273.868435 Z" id="Path" fill="url(#linearGradient-35)"></path>
            <path d="M193.364993,267.512768 C193.26974,268.072789 193.253317,269.199401 194.480108,269.784057 C196.153603,270.580568 199.73544,271.245696 199.73544,271.245696 C198.61704,270.506665 195.204359,268.553981 193.364993,267.512768 Z" id="Path" fill="url(#linearGradient-36)"></path>
            <path d="M139.254787,266.834502 C139.254787,266.834502 133.240717,270.20941 131.673971,271.245696 C131.07125,271.720318 130.818337,272.418292 130.729654,273.078493 C130.668642,273.543205 130.81094,274.011661 131.120115,274.363926 C131.42929,274.716191 131.875326,274.918063 132.344026,274.917859 L145.705706,274.917859 C146.35707,274.917454 146.899207,274.417459 146.952205,273.768255 C147.124645,271.680903 146.973555,269.18462 146.533421,266.59637 L139.254787,266.834502 Z" id="Path" fill="#42417D"></path>
            <path d="M130.842972,272.539821 L135.745211,272.539821 C136.818126,272.540488 137.844589,272.102103 138.586001,271.326567 C139.327414,270.551031 139.719198,269.505894 139.670286,268.434093 C139.647294,267.90856 139.606237,267.366604 139.553684,266.818079 L146.533421,266.591443 C146.973555,269.179694 147.124645,271.682545 146.952205,273.763328 C146.899207,274.412533 146.35707,274.912527 145.705706,274.912932 L132.344026,274.912932 C131.875326,274.913136 131.42929,274.711264 131.120115,274.358999 C130.81094,274.006734 130.668642,273.538278 130.729654,273.073566 C130.754245,272.893105 130.79212,272.714706 130.842972,272.539821 L130.842972,272.539821 Z" id="Path" fill="#00009B" opacity="0.1"></path>
            <path d="M146.820822,268.603249 C144.935471,268.877512 142.143577,268.795397 139.556968,266.824648 L146.536705,266.598012 C146.656592,267.274636 146.743634,267.944691 146.820822,268.603249 Z" id="Path" fill="#00009B" opacity="0.1"></path>
            <path d="M153.470458,202.103599 C153.470458,202.103599 140.93485,206.437606 140.348552,210.292063 C139.762255,214.14652 139.254787,266.834502 139.254787,266.834502 C141.76585,267.603094 144.294978,267.833015 146.87009,266.834502 L151.304276,220.282119 L155.428069,212.510798 L153.470458,202.103599 Z" id="Path" fill="url(#linearGradient-37)"></path>
            <path d="M154.322807,206.652746 L155.419858,212.510798 L151.296065,220.282119 L150.269633,231.007922 C149.83771,226.687054 147.239606,218.143856 146.51864,214.972592 C146.569551,213.047827 148.546869,206.649461 149.501041,203.663776 C150.005224,203.446994 150.486415,203.248276 150.923265,203.069267 L154.322807,206.652746 Z" id="Path" fill="#00009B" opacity="0.1"></path>
            <path d="M146.163905,267.075919 C146.178686,261.628439 146.301858,219.538161 146.530136,214.972592 C146.774837,212.323577 153.352213,210.556472 153.352213,210.556472 L154.979724,210.13276 L155.424784,212.510798 L151.300992,220.282119 L146.876659,266.816437 L146.85531,266.841071 C146.61882,266.929755 146.388899,267.006943 146.163905,267.075919 Z" id="Path" fill="#00009B" opacity="0.1"></path>
            <path d="M146.939067,273.868435 C146.839559,274.472596 146.318005,274.916368 145.705706,274.917859 L132.344026,274.917859 C131.668426,274.917601 131.063235,274.499979 130.823264,273.868435 L146.939067,273.868435 Z" id="Path" fill="url(#linearGradient-38)"></path>
            <path d="M138.050987,267.512768 C138.14624,268.072789 138.162663,269.199401 136.935872,269.784057 C135.262377,270.580568 131.68054,271.245696 131.68054,271.245696 C132.79894,270.506665 136.211621,268.553981 138.050987,267.512768 Z" id="Path" fill="url(#linearGradient-39)"></path>
            <ellipse id="Oval" fill="#FCB0AA" transform="translate(154.365822, 131.578622) rotate(-30.000000) translate(-154.365822, -131.578622) " cx="154.365822" cy="131.578622" rx="2.10377486" ry="2.81652918"></ellipse>
            <ellipse id="Oval" fill="#FCB0AA" transform="translate(173.763658, 130.998440) rotate(-60.113473) translate(-173.763658, -130.998440) " cx="173.763658" cy="130.99844" rx="2.8262295" ry="2.11102041"></ellipse>
            <path d="M153.674102,128.928036 C153.416263,129.361601 153.119008,129.929834 153.181415,130.151543 C153.288164,130.506278 152.393115,132.800559 155.95196,133.894324 C156.794455,133.237408 156.911058,131.787265 156.183523,130.525985 C155.580802,129.474919 154.567509,128.868914 153.674102,128.928036 Z" id="Path" fill="#F4919A"></path>
            <path d="M172.755882,129.269633 C172.157404,129.572714 171.662828,130.047278 171.3353,130.632734 C171.096336,131.042049 170.941141,131.494793 170.878743,131.964632 C170.906662,133.278465 171.248259,134.396866 172.471766,133.825348 C174.51806,133.211131 174.514776,130.854444 174.319343,130.604815 C174.191245,129.926549 173.473563,129.514334 172.755882,129.269633 Z" id="Path" fill="#F4919A"></path>
            <rect id="Rectangle" fill="url(#linearGradient-40)" x="163.322562" y="227.752901" width="4.77085556" height="43.9263592"></rect>
            <path d="M166.240913,227.752901 L166.240913,266.908405 C166.240007,268.51979 164.933948,269.82585 163.322562,269.826756 L163.322562,269.826756 L163.322562,271.679261 L168.085206,271.679261 L168.085206,227.752901 L166.240913,227.752901 Z" id="Path" fill="#00009B" opacity="0.1"></path>
            <rect id="Rectangle" fill="#00009B" opacity="0.1" x="163.322562" y="227.752901" width="4.77085556" height="4.20754972"></rect>
            <polygon id="Path" fill="url(#linearGradient-41)" points="168.108198 229.664528 163.307782 229.664528 157.561405 219.411705 173.854575 219.411705"></polygon>
            <polygon id="Path" fill="#00009B" opacity="0.1" points="160.712962 225.036552 170.703018 225.036552 173.854575 219.411705 157.561405 219.411705"></polygon>
            <rect id="Rectangle" fill="#353967" x="150.013435" y="214.520962" width="31.3891092" height="8.28700073" rx="4.14350037"></rect>
            <polygon id="Path" fill="#FCB0AA" points="159.967362 140.080835 158.556634 150.515952 171.694962 150.515952 170.047744 140.875704"></polygon>
            <path d="M159.354787,144.608631 L158.730716,149.228396 L171.474895,149.228396 L170.699734,144.694031 C167.218077,143.950073 161.778809,144.36393 159.354787,144.608631 Z" id="Path" fill="#F4919A"></path>
            <path d="M155.723681,122.362157 C155.723681,122.362157 150.844435,127.67661 159.70131,142.054869 C164.493516,144.138936 170.328576,142.054869 170.328576,142.054869 C170.328576,142.054869 174.743054,132.017186 173.805306,123.784381 C174.534483,121.485173 177.774724,120.588482 175.848316,116.466332 C172.925038,111.470482 157.080214,114.303434 155.960171,118.021581 C154.904178,120.619686 155.723681,122.362157 155.723681,122.362157 Z" id="Path" fill="#641360"></path>
            <path d="M158.118142,145.925749 C158.118142,145.925749 167.518616,144.710453 171.785288,146.167166 C174.125553,149.808125 174.281571,150.407561 174.281571,150.407561 L156.334614,150.407561 L158.118142,145.925749 Z" id="Path" fill="url(#linearGradient-42)"></path>
            <path d="M144.703908,157.27398 C144.703908,157.27398 154.2604,149.66853 157.03423,149.290803 C164.171627,149.149566 173.511336,149.290803 173.511336,149.290803 C173.511336,149.290803 183.637703,154.074797 185.992748,157.502259 C188.347794,160.92972 194.368433,183.709939 194.25183,185.596932 C194.135227,187.483924 191.891858,191.614286 188.705813,190.433479 C185.519768,189.252672 181.397618,182.629312 181.397618,182.629312 C181.397618,182.629312 151.343691,183.496442 150.995525,183.614687 C150.788597,183.683663 148.617488,188.135914 146.6763,190.285673 C144.934504,192.227236 141.960816,192.421981 139.980679,190.724165 C138.32525,189.288802 136.871822,187.175174 137.198638,184.284741 C137.911393,178.045678 144.703908,157.27398 144.703908,157.27398 Z" id="Path" fill="url(#linearGradient-43)"></path>
            <path d="M160.392715,162.501393 C153.463889,165.01574 149.496114,169.939329 148.732448,177.899514 C147.968783,185.859698 145.196596,191.409 145.196596,191.409 C145.756912,191.136624 146.258916,190.75789 146.674658,190.293884 C148.615846,188.142483 150.780385,183.691874 150.993883,183.622898 C151.121982,183.580198 155.129172,183.438961 160.190713,183.278017 C160.882118,177.984913 161.128461,171.157909 160.392715,162.501393 Z" id="Path" fill="#00009B" opacity="0.1"></path>
            <path d="M189.208354,188.636813 C186.311662,185.53439 184.354393,181.673951 183.5638,177.503722 C181.216966,165.490362 172.437278,163.084406 172.437278,163.084406 L169.174045,182.998827 C175.66438,182.803395 181.402545,182.637523 181.402545,182.637523 C181.402545,182.637523 185.526337,189.262526 188.71074,190.441691 C189.472494,190.739269 190.32202,190.717365 191.067428,190.380926 C190.403485,189.848599 189.781921,189.265472 189.208354,188.636813 Z" id="Path" fill="#00009B" opacity="0.1"></path>
            <path d="M181.529001,182.837883 L181.529001,176.257223 C181.529437,172.061163 179.862864,168.036814 176.895955,165.069597 C173.929047,162.102381 169.904871,160.43539 165.708811,160.43539 L165.708811,160.43539 C161.512751,160.43539 157.488575,162.102381 154.521667,165.069597 C151.554759,168.036814 149.888186,172.061163 149.888621,176.257223 L149.888621,185.493468 C150.492984,184.43419 150.916696,183.650817 151.002095,183.622898 C151.355187,183.504653 181.404187,182.637523 181.404187,182.637523 C181.404187,182.637523 181.446886,182.709784 181.529001,182.837883 Z" id="Path" fill="#00009B" opacity="0.1"></path>
            <path d="M165.707169,161.584994 L165.707169,161.584994 C174.445325,161.584994 181.529001,168.66867 181.529001,177.406826 L181.529001,213.965868 C181.529001,215.471508 180.308438,216.692071 178.802798,216.692071 L152.613182,216.692071 C151.107542,216.692071 149.886979,215.471508 149.886979,213.965868 L149.886979,177.406826 C149.886979,168.66867 156.970655,161.584994 165.708811,161.584994 L165.707169,161.584994 Z" id="Path" fill="#42417D"></path>
            <path d="M181.529001,202.464903 C176.812008,202.464904 172.288235,200.590973 168.952972,197.255401 C165.617708,193.91983 163.744195,189.395884 163.744631,184.678891 L163.744631,163.179659 C163.744631,162.680402 163.767623,162.187715 163.813607,161.701597 C155.866237,162.661211 149.887412,169.405016 149.886979,177.410111 L149.886979,213.969152 C149.886979,215.474793 151.107542,216.695356 152.613182,216.695356 L178.802798,216.695356 C180.308438,216.695356 181.529001,215.474793 181.529001,213.969152 L181.529001,202.473115 L181.529001,202.464903 Z" id="Path" fill="#00009B" opacity="0.1"></path>
            <path d="M178.802798,215.237001 L152.613182,215.237001 C151.890148,215.237001 151.196728,214.949777 150.685465,214.438515 C150.174203,213.927252 149.886979,213.233832 149.886979,212.510798 L149.886979,213.965868 C149.886979,215.471508 151.107542,216.692071 152.613182,216.692071 L178.802798,216.692071 C180.308438,216.692071 181.529001,215.471508 181.529001,213.965868 L181.529001,212.510798 C181.529001,214.016438 180.308438,215.237001 178.802798,215.237001 Z" id="Path" fill="#00009B" opacity="0.1"></path>
            <rect id="Rectangle" fill="#00009B" opacity="0.1" x="157.789684" y="175.895919" width="15.8382551" height="7.72697948" rx="3.86348974"></rect>
            <rect id="Rectangle" fill="url(#linearGradient-44)" x="157.789684" y="174.910544" width="15.8382551" height="7.72697948" rx="3.86348974"></rect>
            <path d="M165.707169,178.774855 L165.707169,178.774855 C166.795584,178.774855 167.677918,179.657189 167.677918,180.745604 L167.677918,222.509066 C167.677918,222.678677 167.540421,222.816174 167.37081,222.816174 L164.050097,222.816174 C163.880486,222.816174 163.742989,222.678677 163.742989,222.509066 L163.742989,180.739035 C163.742989,179.65062 164.625323,178.768286 165.713738,178.768286 L165.707169,178.774855 Z" id="Path" fill="url(#linearGradient-45)"></path>
            <path d="M153.833404,271.679261 L177.584218,271.679261 C178.443147,271.679261 179.266898,272.020469 179.874252,272.627824 C180.481607,273.235179 180.822816,274.058929 180.822816,274.917859 L180.822816,274.917859 L150.598091,274.917859 L150.598091,274.917859 C150.598091,273.130512 152.046059,271.681073 153.833404,271.679261 L153.833404,271.679261 Z" id="Path" fill="url(#linearGradient-46)"></path>
            <path d="M93.8832113,265.510815 L92.9536745,272.020857 C92.8488777,272.748836 93.0653242,273.486449 93.5468704,274.04237 C94.0284165,274.598291 94.7276125,274.917741 95.4630953,274.917859 L109.491546,274.917859 C110.772247,274.917859 111.810461,273.879645 111.810461,272.598944 L111.810461,272.598944 C111.810058,271.743701 111.339271,270.958004 110.585311,270.554291 L101.16513,265.510815 L93.8832113,265.510815 Z" id="Path" fill="url(#linearGradient-47)"></path>
            <path d="M82.8043157,274.145982 C79.3437842,275.177653 75.6570085,275.174228 72.1984,274.136128 C71.5046693,273.931607 71.0824915,273.230592 71.2261637,272.521756 L72.5219313,266.016641 C72.6222462,265.514006 73.063735,265.152288 73.5762822,265.152795 L82.3017746,265.152795 L83.7716251,272.533252 C83.9131683,273.239814 83.4942989,273.938166 82.8043157,274.145982 Z" id="Path" fill="url(#linearGradient-48)"></path>
            <path d="M83.6188921,271.769587 C83.4422282,272.088034 83.147207,272.324051 82.7977465,272.426503 C79.337215,273.458174 75.6504394,273.454749 72.1918308,272.416649 C71.8424537,272.314037 71.547487,272.078064 71.3706853,271.759733 L71.2195945,272.521756 C71.0759223,273.230592 71.4981001,273.931607 72.1918308,274.136128 C75.6504394,275.174228 79.337215,275.177653 82.7977465,274.145982 C83.4877297,273.938166 83.9065992,273.239814 83.765056,272.533252 L83.6188921,271.769587 Z" id="Path" fill="#42417D"></path>
            <path d="M72.3445639,183.772347 L72.2723031,265.588003 C72.2723031,265.588003 78.3964065,268.828243 82.7993888,265.893469 C87.6227977,206.761137 88.8643698,199.067003 88.8643698,199.067003 L93.3215477,266.599654 C96.5765686,268.294499 99.4193745,268.077716 102.984788,266.673557 L106.734139,181.898492 C106.734139,181.898492 76.328762,172.954575 72.3445639,183.772347 Z" id="Path" fill="#42417D"></path>
            <path d="M82.6499403,203.952819 L85.1412959,237.907187 C88.0268013,204.463572 88.8643698,199.067003 88.8643698,199.067003 L87.9249793,182.82146 L87.9249793,182.82146 C83.9538652,189.120646 82.1051776,196.526332 82.6499403,203.952819 L82.6499403,203.952819 Z" id="Path" fill="#353967"></path>
            <path d="M106.392542,189.612334 L106.734139,181.893566 C106.734139,181.893566 76.328762,172.939795 72.3445639,183.764135 L72.3445639,191.990371 C79.4343344,193.273 95.642105,195.27988 106.392542,189.612334 Z" id="Path" fill="#00009B" opacity="0.1"></path>
            <path d="M98.6622783,83.438216 C98.6622783,83.438216 101.000901,91.5297841 101.912372,92.7138759 C101.027746,94.8423523 100.653182,97.1482237 100.818606,99.4472693 C101.000901,101.450864 99.6788564,103.582558 98.1778024,104.273963 C97.1254985,104.728232 96.0228906,105.055707 94.8932203,105.249484 L96.0231165,110.877615 C91.3836443,111.86299 87.0364998,111.710257 83.0194558,110.424343 L83.9440657,102.007601 C83.9440657,102.007601 91.1028125,81.9798615 98.6622783,83.438216 Z" id="Path" fill="#FCB0AA"></path>
            <path d="M100.391611,101.260359 C97.701538,97.7704901 96.6291219,99.4899689 96.6291219,99.4899689 C96.550292,101.460718 98.4750571,104.131083 98.5998712,104.050611 C99.5228388,103.485663 100.100925,102.598826 100.391611,101.260359 Z" id="Path" fill="#F4919A"></path>
            <path d="M93.791243,108.154697 C95.4006882,108.828036 95.4844451,109.547359 95.4844451,109.547359 L95.5484944,108.529139 L94.891578,105.256053 L88.2271608,103.285304 C88.2271608,103.285304 92.18344,107.479715 93.791243,108.154697 Z" id="Path" fill="#F4919A"></path>
            <path d="M100.798899,97.5586346 L103.305035,99.1845027 L105.847302,104.643478 L101.000901,106.349819 C101.000901,106.349819 96.9411572,102.572549 96.6274796,99.4899689 C98.0710535,98.3305114 99.3930978,101.349042 100.345627,101.654508 L100.798899,97.5586346 Z" id="Path" fill="#FCB0AA"></path>
            <path d="M100.856379,108.956135 L100.015526,106.249639 C100.015526,106.249639 100.493433,103.387126 105.96062,103.285304 C106.959606,104.531623 107.501016,106.082813 107.494577,107.680074 L100.856379,108.956135 Z" id="Path" fill="url(#linearGradient-49)"></path>
            <path d="M100.015526,108.180973 L101.907445,117.627431 C101.907445,117.627431 113.413337,135.405232 113.756575,135.147393 C114.099814,134.889553 116.798099,132.225757 116.798099,132.225757 L107.921515,105.259337 C107.921515,105.259337 101.395051,103.285304 100.015526,108.180973 Z" id="Path" fill="#353967"></path>
            <path d="M79.2930974,81.740087 C79.2930974,81.740087 75.2317116,75.6455448 82.9209184,75.6455448 C90.6101252,75.6455448 99.1713885,75.2103377 100.621532,73.1821082 C102.071675,71.1538788 104.104831,83.2000838 99.462074,84.7898215 C94.8193172,86.3795593 95.1083604,88.567091 95.252882,89.5787423 C93.2230102,89.2880567 91.0404054,92.8058442 95.1034335,95.417087 C96.2645333,100.785737 93.0768463,103.071806 92.2064321,104.086742 C91.3360178,105.101677 87.2795589,106.118256 84.0820182,104.086742 C80.8844774,102.055228 79.0730304,99.7921504 78.9285088,95.8752862 C78.7839872,91.958422 75.9559619,84.0655711 76.3911691,83.1951569 C76.3451849,80.2653096 79.2930974,81.740087 79.2930974,81.740087 Z" id="Path" fill="#641360"></path>
            <path d="M82.0620001,110.411204 L82.7714699,107.026443 C82.7714699,107.026443 88.9267768,108.877305 95.6470319,107.026443 C96.2201914,108.563627 96.6028453,110.733094 96.6028453,110.733094 C96.6028453,110.733094 94.2198809,114.722219 90.642971,114.172051 C87.066061,113.621884 82.0620001,110.411204 82.0620001,110.411204 Z" id="Path" fill="url(#linearGradient-50)"></path>
            <path d="M81.874779,109.844614 C81.874779,109.844614 71.7484122,114.191759 70.8057372,114.584266 C69.8630621,114.976774 62.7585109,136.479291 61.2476031,140.62936 C59.7366953,144.77943 62.820918,150.187494 65.1464021,152.828298 C68.7298812,154.524785 73.5746399,149.305584 73.5746399,149.305584 L69.2110725,184.568858 C82.5990293,187.937197 95.2627358,188.03245 108.698319,184.866112 L103.201571,148.794831 L105.36611,133.899251 C105.36611,133.899251 108.501244,139.154583 112.335994,140.161307 C116.170743,141.168032 117.387681,133.920601 116.697919,131.80533 C116.008157,129.690059 107.034678,114.222962 107.034678,114.222962 L96.5946338,110.733094 C96.5946338,110.733094 88.3371943,113.889577 81.874779,109.844614 Z" id="Path" fill="#42417D"></path>
            <path d="M64.0247173,151.406074 C64.3741455,151.898943 64.7485285,152.373637 65.1464021,152.828298 C68.7298812,154.524785 73.5746399,149.305584 73.5746399,149.305584 L73.0819526,132.135431 C73.0882951,131.824554 72.8758106,131.551813 72.5728255,131.481923 C72.2698403,131.412034 71.9593562,131.564144 71.8288845,131.846388 C69.7678092,135.79774 65.6078859,144.326157 64.0247173,151.406074 Z" id="Path" fill="#353967"></path>
            <path d="M103.022561,129.642433 C101.216041,135.277134 101.917299,141.920201 103.201571,148.794831 L105.36611,133.899251 L103.022561,129.642433 Z" id="Path" fill="#353967"></path>
            <path d="M91.12252,187.137401 L89.5048633,168.191931 L87.9266215,187.16532 C88.991921,187.174079 90.0572205,187.164772 91.12252,187.137401 Z" id="Path" fill="#00009B" opacity="0.1"></path>
            <path d="M100.798899,97.5586346 L100.343984,101.654508 C100.836672,101.421303 101.362205,99.4423424 101.657817,98.1186558 L100.798899,97.5586346 Z" id="Path" fill="#F4919A"></path>
            <path d="M93.1179036,273.337975 C93.5064037,274.29261 94.434077,274.917118 95.4647376,274.917859 L109.493188,274.917859 C110.488431,274.917397 111.372231,274.281484 111.688931,273.337975 L93.1179036,273.337975 Z" id="Path" fill="#42417D"></path>
            <path d="M212.891834,153.06643 L208.73191,152.360245 C206.163367,153.141976 204.061235,154.084651 203.028233,155.396841 C204.834754,155.874748 209.099784,154.27023 212.891834,153.06643 Z" id="Path" fill="#F4919A"></path>
            <path d="M211.76358,153.36697 L208.004375,153.36697 C208.004375,153.36697 198.608828,158.458072 198.262305,159.591253 C197.892789,160.796694 207.758032,158.855506 207.758032,158.855506 L213.049494,158.213371 L211.76358,153.36697 Z" id="Path" fill="#FCB0AA"></path>
            <path d="M211.76358,153.36697 L208.004375,153.36697 L207.840146,153.450727 C207.585591,154.689014 207.18323,157.324891 208.004375,158.825945 L208.004375,158.825945 L213.049494,158.213371 L211.76358,153.36697 Z" id="Path" fill="#F4919A"></path>
            <path d="M255.694866,217.450809 L259.698771,268.614745 C259.698771,268.614745 263.508887,270.440973 264.888411,268.471866 C265.042786,263.896443 267.338709,216.411239 267.338709,216.411239 L255.694866,217.450809 Z" id="Path" fill="#FCB0AA"></path>
            <path d="M255.750704,218.152068 L256.243391,224.532369 C258.334027,225.100601 261.708936,225.335449 266.957698,224.152999 C267.072658,221.76675 267.167911,219.794359 267.233603,218.437826 L266.837811,217.65938 L255.750704,218.152068 Z" id="Path" fill="#F4919A"></path>
            <path d="M239.500233,218.363923 L242.060565,263.085151 C240.636699,266.074121 237.1534,269.780772 234.407489,271.559373 C234.024687,271.807359 233.690688,272.123545 233.422114,272.492195 C232.972126,273.111338 232.339844,274.039233 232.459732,274.224812 C232.642026,274.507286 236.005438,274.380829 236.005438,274.380829 C238.764487,274.409049 244.092079,272.521756 245.466677,270.071458 C245.522515,271.078182 245.67689,273.893069 245.67689,273.893069 L247.342173,273.801101 L250.910872,219.224484 L239.500233,218.363923 Z" id="Path" fill="#FCB0AA"></path>
            <path d="M240.162077,218.413192 L239.565925,219.525023 L239.710447,222.059078 L239.771212,222.083713 C249.546128,224.185845 248.347255,229.419827 248.278279,235.075877 C248.151823,245.635809 247.721543,259.992717 248.079562,262.530057 L250.910872,219.224484 L240.162077,218.413192 Z" id="Path" fill="#F4919A"></path>
            <path d="M236.920194,178.265745 C236.920194,178.265745 234.113519,214.297611 234.65219,219.1358 C238.030383,224.527442 267.990699,225.765729 271.843514,219.1358 C270.491908,188.321493 270.661064,178.265745 270.661064,178.265745 L236.920194,178.265745 Z" id="Path" fill="#42417D"></path>
            <path d="M270.661064,178.265745 L236.920194,178.265745 C236.920194,178.265745 236.709981,180.964029 236.416011,184.984357 C236.266562,187.020798 249.31128,187.492136 258.511395,184.984357 C267.711509,182.476579 264.830931,189.037532 264.472911,192.262991 C264.118177,195.453963 258.417784,211.039305 259.143677,223.481302 C265.2103,223.021461 270.390086,221.640294 271.843514,219.1358 C270.485339,188.321493 270.661064,178.265745 270.661064,178.265745 Z" id="Path" fill="#353967"></path>
            <path d="M236.752681,121.951584 C236.752681,121.951584 230.776383,125.766626 230.267273,127.292314 C229.758163,128.818003 226.071219,146.13432 226.071219,146.13432 L211.077102,152.210797 C211.077102,152.210797 209.252517,155.474029 212.210283,158.568105 C216.025325,159.839239 232.921215,154.273514 233.481237,153.148545 L236.24357,147.582821 C236.24357,147.582821 236.703412,150.108664 238.378549,152.197658 C239.000977,156.267256 233.880313,176.899358 234.643979,181.101981 C237.186245,183.893876 270.564169,181.859077 271.708846,180.206933 C272.853523,178.554788 265.863932,151.355163 265.863932,151.355163 C265.863932,151.355163 269.169864,144.336011 269.043408,142.936779 C268.916951,141.537547 263.164005,124.543119 263.164005,124.543119 L236.752681,121.951584 Z" id="Path" fill="url(#linearGradient-51)"></path>
            <path d="M264.037704,127.119874 C263.517098,125.564624 263.172217,124.546404 263.172217,124.546404 L236.752681,121.951584 C236.752681,121.951584 230.776383,125.766626 230.267273,127.292314 C230.09319,127.812921 229.551234,130.167966 228.910741,133.040333 C230.295192,131.233813 233.886883,126.727366 235.116959,127.238119 C236.652501,127.875328 235.593223,130.562116 241.546528,133.138871 C245.443685,138.717733 258.785658,142.51471 264.037704,127.119874 Z" id="Path" fill="#00009B" opacity="0.1"></path>
            <path d="M263.513813,125.559697 L263.513813,144.390207 L265.872143,151.351879 C265.872143,151.351879 269.178075,144.332727 269.051619,142.933495 C268.943228,141.741191 264.752101,129.235145 263.513813,125.559697 Z" id="Path" fill="#00009B" opacity="0.1"></path>
            <path d="M235.65563,100.986096 C235.65563,100.986096 235.453628,105.551665 234.013339,107.379535 C233.873744,110.296244 236.268205,116.532023 238.927074,116.555075 C241.585943,116.578007 243.351406,109.926729 243.351406,109.926729 L235.65563,100.986096 Z" id="Path" fill="#FCB0AA"></path>
            <path d="M237.427662,94.5663802 C237.427662,94.5663802 233.556782,98.0151915 234.964226,101.122406 L236.363458,104.229621 C236.363458,104.229621 238.169978,109.072737 236.483345,117.686554 C234.796712,126.300371 236.524402,127.560008 240.352583,130.424163 L244.182405,133.289961 C244.182405,133.289961 248.074635,138.427048 255.147983,135.523477 C262.22133,132.619907 264.042631,128.40743 264.28569,125.883229 C264.528749,123.359027 258.467053,106.922978 255.625889,104.101522 C252.784726,101.280066 253.098404,96.7637657 248.330833,96.3039242 C244.780199,89.526189 237.427662,94.5663802 237.427662,94.5663802 Z" id="Path" fill="#641360"></path>
            <path d="M263.078606,261.551252 L263.272397,261.615301 C264.271728,261.984697 265.020444,262.828928 265.26778,263.86524 C265.459928,264.660109 265.808094,265.450051 266.016665,266.758957 C266.48636,273.426658 263.751946,274.408748 262.558,274.408748 C261.127565,274.408748 258.419427,273.275568 258.452272,267.018439 C258.684812,266.148207 258.854406,265.262365 258.95974,264.367781 C259.171596,262.351047 261.140703,260.963311 263.078606,261.551252 Z" id="Path" fill="#42417D"></path>
            <path d="M265.630727,271.202996 C264.835858,268.73956 263.89154,266.31718 263.523667,265.394213 C263.428921,265.157097 263.199283,265.001705 262.943938,265.001705 L261.531568,265.001705 C261.250797,265.001386 261.004572,265.189083 260.93049,265.459904 C260.602031,266.673557 259.764463,269.613258 259.242214,271.498609 C259.203835,271.642419 259.216607,271.795096 259.278345,271.930531 C260.186532,273.937411 261.636675,274.408748 262.562927,274.408748 C263.372576,274.408748 264.893338,273.953834 265.638938,271.577439 C265.674816,271.454756 265.671948,271.323988 265.630727,271.202996 L265.630727,271.202996 Z" id="Path" fill="#353967"></path>
            <path d="M261.053661,265.001705 L261.500365,274.549985 C261.509168,274.755787 261.678671,274.918047 261.884661,274.917859 L262.697595,274.917859 C262.906046,274.917859 263.076546,274.751799 263.081891,274.543416 L263.366007,265.001705 L261.053661,265.001705 Z" id="Path" fill="#42417D"></path>
            <path d="M244.878737,265.776866 C242.771677,270.721805 236.389734,270.644617 236.194302,270.787497 L235.136666,271.086394 L234.407489,271.559373 C234.024687,271.807359 233.690688,272.123545 233.422114,272.492195 C232.972126,273.111338 232.339844,274.039233 232.459732,274.224812 C232.642026,274.507286 236.005438,274.380829 236.005438,274.380829 C238.764487,274.408748 244.092079,272.521756 245.466677,270.071458 C245.522515,271.078182 245.67689,273.893069 245.67689,273.893069 L247.342173,273.801101 L248.079562,262.530057 C247.021927,262.530057 245.750793,262.942272 244.878737,265.776866 Z" id="Path" fill="#42417D"></path>
            <path d="M238.672519,142.227309 L236.24357,147.586105 C236.24357,147.586105 236.703412,150.111949 238.378549,152.200943 C239.000977,156.27054 233.880313,176.902643 234.643979,181.105266 C235.243415,181.762182 237.559045,182.156332 240.763155,182.345196 C239.733439,174.618216 240.025767,155.850114 240.485608,153.005666 C241.042345,149.591343 238.672519,142.227309 238.672519,142.227309 Z" id="Path" fill="#00009B" opacity="0.1"></path>
            <path d="M255.139771,135.523477 C262.213119,132.619907 264.03442,128.40743 264.277479,125.883229 C264.520538,123.359027 258.458842,106.922978 255.617678,104.101522 C255.617678,104.101522 262.654895,123.194798 255.704719,127.653618 C248.754544,132.112439 250.12093,135.372386 244.174194,133.289961 C244.174194,133.289961 248.066424,138.427048 255.139771,135.523477 Z" id="Path" fill="#00009B" opacity="0.1"></path>
            <polygon id="Path" fill="url(#linearGradient-52)" points="133.940333 174.820218 126.817716 174.820218 125.129441 162.291179 135.628608 162.291179"></polygon>
            <ellipse id="Oval" fill="#42417D" cx="130.378203" cy="168.814359" rx="1.98060303" ry="2.16782421"></ellipse>
            <polygon id="Path" fill="#00009B" opacity="0.1" points="131.368505 162.291179 129.68023 174.818576 133.940333 174.818576 135.628608 162.291179"></polygon>
            <path d="M135.444671,162.291179 L125.306809,162.291179 C126.169011,160.537212 127.840864,159.445089 129.65888,159.445089 L131.084389,159.445089 C132.904047,159.445089 134.575899,160.537212 135.438102,162.291179 L135.444671,162.291179 Z" id="Path" fill="url(#linearGradient-53)"></path>
            <path d="M131.090958,159.445087 L129.665449,159.445087 C129.215682,159.444664 128.76839,159.511647 128.338478,159.643806 C129.669854,160.069432 130.765182,161.027992 131.363578,162.291179 L135.444671,162.291179 C134.582469,160.537212 132.910616,159.445087 131.090958,159.445087 Z" id="Path" fill="#00009B" opacity="0.1"></path>
            <rect id="Rectangle" fill="#42417D" x="124.250815" y="161.256536" width="12.2564182" height="2.06600216" rx="1.03300108"></rect>
            <rect id="Rectangle" fill="#006BFF" opacity="0.04" x="200.167362" y="0" width="92.4117185" height="21.3399302"></rect>
            <path d="M0,6.37206525 L3.70336636,6.37206525 C9.03726686,6.37250079 14.1525317,8.49180223 17.9238609,12.2637474 C21.6951901,16.0356926 23.8136561,21.1513035 23.8132206,26.485204 L23.8132206,26.485204 C23.8132206,37.5918354 14.8099978,46.5957934 3.70336636,46.5967004 L0,46.5967004 L0,6.37206525 Z" id="Path" fill="#006BFF" opacity="0.04"></path>
        </g>
    </g>
</svg>