<?xml version="1.0" encoding="UTF-8"?>
<svg width="430px" height="300px" viewBox="0 0 430 300" version="1.1" xmlns="http://www.w3.org/2000/svg" xmlns:xlink="http://www.w3.org/1999/xlink">
    <!-- Generator: Sketch 56.3 (81716) - https://sketch.com -->
    <title>technology copy</title>
    <desc>Created with Sketch.</desc>
    <defs>
        <linearGradient x1="-33.3440751%" y1="49.4719094%" x2="28.2708775%" y2="49.8623367%" id="linearGradient-1">
            <stop stop-color="#FFFFFF" stop-opacity="0" offset="0%"></stop>
            <stop stop-color="#96CAFF" offset="100%"></stop>
        </linearGradient>
        <linearGradient x1="-54.5517671%" y1="48.9663019%" x2="7.15688152%" y2="49.5763755%" id="linearGradient-2">
            <stop stop-color="#FFFFFF" stop-opacity="0" offset="0%"></stop>
            <stop stop-color="#96CAFF" offset="100%"></stop>
        </linearGradient>
        <linearGradient x1="-118.972902%" y1="49.4243306%" x2="-57.3748163%" y2="49.6341885%" id="linearGradient-3">
            <stop stop-color="#FFFFFF" stop-opacity="0" offset="0%"></stop>
            <stop stop-color="#96CAFF" offset="100%"></stop>
        </linearGradient>
        <linearGradient x1="119.065067%" y1="105.268154%" x2="4.26221951%" y2="-11.8770764%" id="linearGradient-4">
            <stop stop-color="#24553A" offset="0%"></stop>
            <stop stop-color="#49BE55" offset="100%"></stop>
        </linearGradient>
        <linearGradient x1="86.1652468%" y1="83.9229273%" x2="1.92975198%" y2="-33.5217603%" id="linearGradient-5">
            <stop stop-color="#24553A" offset="0%"></stop>
            <stop stop-color="#49BE55" offset="100%"></stop>
        </linearGradient>
        <linearGradient x1="-16.6043549%" y1="118.496046%" x2="70.7406025%" y2="19.0779331%" id="linearGradient-6">
            <stop stop-color="#24553A" offset="0%"></stop>
            <stop stop-color="#49BE55" offset="100%"></stop>
        </linearGradient>
        <linearGradient x1="-23.3417752%" y1="92.7967887%" x2="121.267487%" y2="-3.92121406%" id="linearGradient-7">
            <stop stop-color="#24553A" offset="0%"></stop>
            <stop stop-color="#49BE55" offset="100%"></stop>
        </linearGradient>
        <linearGradient x1="142.145628%" y1="166.694435%" x2="55.1523664%" y2="41.0595478%" id="linearGradient-8">
            <stop stop-color="#24553A" offset="0%"></stop>
            <stop stop-color="#49BE55" offset="100%"></stop>
        </linearGradient>
        <linearGradient x1="63.1212517%" y1="100.391706%" x2="37.6957993%" y2="-7.8289027%" id="linearGradient-9">
            <stop stop-color="#24553A" offset="0%"></stop>
            <stop stop-color="#49BE55" offset="100%"></stop>
        </linearGradient>
        <linearGradient x1="19.7553314%" y1="131.889979%" x2="56.9400579%" y2="22.1704174%" id="linearGradient-10">
            <stop stop-color="#24553A" offset="0%"></stop>
            <stop stop-color="#49BE55" offset="100%"></stop>
        </linearGradient>
        <linearGradient x1="1.60911819%" y1="50%" x2="101.613597%" y2="50%" id="linearGradient-11">
            <stop stop-color="#42417D" offset="0%"></stop>
            <stop stop-color="#2A305B" offset="100%"></stop>
        </linearGradient>
        <linearGradient x1="43.6157887%" y1="69.6661502%" x2="66.8132537%" y2="-1.79180166%" id="linearGradient-12">
            <stop stop-color="#6362D7" offset="0%"></stop>
            <stop stop-color="#FF8FE2" offset="100%"></stop>
        </linearGradient>
        <linearGradient x1="50.2160767%" y1="33.872749%" x2="51.121363%" y2="-29.1769028%" id="linearGradient-13">
            <stop stop-color="#6362D7" offset="0%"></stop>
            <stop stop-color="#FF8FE2" offset="100%"></stop>
        </linearGradient>
        <linearGradient x1="47.7983243%" y1="-16.8571693%" x2="51.3371552%" y2="90.6082973%" id="linearGradient-14">
            <stop stop-color="#FFFFFF" offset="0%"></stop>
            <stop stop-color="#AAD7FF" offset="100%"></stop>
        </linearGradient>
        <linearGradient x1="9.83082176%" y1="124.818115%" x2="70.6902842%" y2="11.4620264%" id="linearGradient-15">
            <stop stop-color="#B66AFF" offset="0%"></stop>
            <stop stop-color="#FFFFFF" stop-opacity="0" offset="100%"></stop>
        </linearGradient>
        <linearGradient x1="47.8989169%" y1="130.785201%" x2="54.5958757%" y2="-13.4019628%" id="linearGradient-16">
            <stop stop-color="#B66AFF" offset="0%"></stop>
            <stop stop-color="#FFFFFF" stop-opacity="0" offset="100%"></stop>
        </linearGradient>
        <linearGradient x1="13.9373765%" y1="132.78853%" x2="82.6842434%" y2="-57.2974907%" id="linearGradient-17">
            <stop stop-color="#B66AFF" offset="0%"></stop>
            <stop stop-color="#FFFFFF" stop-opacity="0" offset="100%"></stop>
        </linearGradient>
        <linearGradient x1="21.7429029%" y1="124.282715%" x2="84.3513911%" y2="-35.8064674%" id="linearGradient-18">
            <stop stop-color="#B66AFF" offset="0%"></stop>
            <stop stop-color="#FFFFFF" stop-opacity="0" offset="100%"></stop>
        </linearGradient>
        <linearGradient x1="49.9450906%" y1="51.5821448%" x2="51.5053762%" y2="6.53980004%" id="linearGradient-19">
            <stop stop-color="#B66AFF" offset="0%"></stop>
            <stop stop-color="#FFFFFF" stop-opacity="0" offset="100%"></stop>
        </linearGradient>
        <linearGradient x1="-0.0174947516%" y1="49.9985183%" x2="99.9650105%" y2="49.9985183%" id="linearGradient-20">
            <stop stop-color="#B66AFF" offset="0%"></stop>
            <stop stop-color="#FFFFFF" stop-opacity="0" offset="100%"></stop>
        </linearGradient>
        <linearGradient x1="55.0346028%" y1="4.85128925%" x2="35.1271983%" y2="99.9596727%" id="linearGradient-21">
            <stop stop-color="#F09376" offset="0%"></stop>
            <stop stop-color="#F07295" offset="100%"></stop>
        </linearGradient>
        <linearGradient x1="-223.921856%" y1="49.9978434%" x2="124.904403%" y2="49.9978434%" id="linearGradient-22">
            <stop stop-color="#F09376" stop-opacity="0" offset="0%"></stop>
            <stop stop-color="#D5618F" offset="100%"></stop>
        </linearGradient>
        <linearGradient x1="33.3397628%" y1="-4.20168368%" x2="56.3945613%" y2="69.6454209%" id="linearGradient-23">
            <stop stop-color="#F09376" stop-opacity="0" offset="0%"></stop>
            <stop stop-color="#D5618F" offset="100%"></stop>
        </linearGradient>
        <linearGradient x1="79.0185035%" y1="-5.65633118%" x2="17.6380602%" y2="103.422177%" id="linearGradient-24">
            <stop stop-color="#F09376" stop-opacity="0" offset="0%"></stop>
            <stop stop-color="#D5618F" offset="100%"></stop>
        </linearGradient>
        <linearGradient x1="65.8626114%" y1="-6.72260094%" x2="6.88515994%" y2="204.147876%" id="linearGradient-25">
            <stop stop-color="#F07295" offset="0%"></stop>
            <stop stop-color="#F03295" offset="99%"></stop>
        </linearGradient>
        <linearGradient x1="-48.2758621%" y1="152.298851%" x2="205.018617%" y2="-111.389024%" id="linearGradient-26">
            <stop stop-color="#B66AFF" offset="0%"></stop>
            <stop stop-color="#FFFFFF" offset="100%"></stop>
        </linearGradient>
        <linearGradient x1="-1.84048628e-13%" y1="50%" x2="269.71831%" y2="50%" id="linearGradient-27">
            <stop stop-color="#B66AFF" offset="0%"></stop>
            <stop stop-color="#FFFFFF" offset="100%"></stop>
        </linearGradient>
        <linearGradient x1="29.6613546%" y1="74.561753%" x2="177.310757%" y2="-103.76494%" id="linearGradient-28">
            <stop stop-color="#6362D7" offset="0%"></stop>
            <stop stop-color="#FF8FE2" offset="100%"></stop>
        </linearGradient>
        <linearGradient x1="-0.0425170068%" y1="50%" x2="100%" y2="50%" id="linearGradient-29">
            <stop stop-color="#F07295" offset="0%"></stop>
            <stop stop-color="#F06995" offset="99%"></stop>
        </linearGradient>
        <linearGradient x1="0%" y1="50.0166778%" x2="100%" y2="50.0166778%" id="linearGradient-30">
            <stop stop-color="#6362D7" offset="0%"></stop>
            <stop stop-color="#FF8FE2" offset="100%"></stop>
        </linearGradient>
        <linearGradient x1="47.2813725%" y1="59.5491676%" x2="100.985305%" y2="-129.190363%" id="linearGradient-31">
            <stop stop-color="#6362D7" offset="0%"></stop>
            <stop stop-color="#FF8FE2" offset="100%"></stop>
        </linearGradient>
        <linearGradient x1="0%" y1="50%" x2="100%" y2="50%" id="linearGradient-32">
            <stop stop-color="#6362D7" offset="0%"></stop>
            <stop stop-color="#FF8FE2" offset="100%"></stop>
        </linearGradient>
        <linearGradient x1="86.5149741%" y1="23.233349%" x2="200.326251%" y2="-82.2534707%" id="linearGradient-33">
            <stop stop-color="#6362D7" offset="0%"></stop>
            <stop stop-color="#FF8FE2" offset="100%"></stop>
        </linearGradient>
        <linearGradient x1="0%" y1="50%" x2="433.281541%" y2="50%" id="linearGradient-34">
            <stop stop-color="#6362D7" offset="0%"></stop>
            <stop stop-color="#FF8FE2" offset="100%"></stop>
        </linearGradient>
        <linearGradient x1="37.9953765%" y1="170.39038%" x2="53.782783%" y2="5.70538672%" id="linearGradient-35">
            <stop stop-color="#856DD7" offset="0%"></stop>
            <stop stop-color="#D1C4F8" offset="100%"></stop>
        </linearGradient>
        <linearGradient x1="47.5191047%" y1="124.798272%" x2="51.7478994%" y2="-27.6805735%" id="linearGradient-36">
            <stop stop-color="#856DD7" offset="0%"></stop>
            <stop stop-color="#D1C4F8" offset="100%"></stop>
        </linearGradient>
        <linearGradient x1="48.0494979%" y1="134.228729%" x2="52.8989194%" y2="-20.7091147%" id="linearGradient-37">
            <stop stop-color="#856DD7" offset="0%"></stop>
            <stop stop-color="#D1C4F8" offset="100%"></stop>
        </linearGradient>
        <linearGradient x1="50.0517766%" y1="-1.43041849%" x2="49.9540084%" y2="117.796763%" id="linearGradient-38">
            <stop stop-color="#F07295" offset="0%"></stop>
            <stop stop-color="#F03295" offset="99%"></stop>
        </linearGradient>
        <linearGradient x1="53.1802573%" y1="40.1470017%" x2="41.40516%" y2="117.08166%" id="linearGradient-39">
            <stop stop-color="#F07295" offset="0%"></stop>
            <stop stop-color="#F03295" offset="99%"></stop>
        </linearGradient>
        <linearGradient x1="46.8989847%" y1="-75.7538344%" x2="49.508198%" y2="48.0963858%" id="linearGradient-40">
            <stop stop-color="#F07295" stop-opacity="0" offset="0%"></stop>
            <stop stop-color="#9A3295" offset="99%"></stop>
        </linearGradient>
        <linearGradient x1="50.3809794%" y1="-14.0753034%" x2="49.9040789%" y2="92.3664285%" id="linearGradient-41">
            <stop stop-color="#F07295" stop-opacity="0" offset="0%"></stop>
            <stop stop-color="#9A3295" offset="99%"></stop>
        </linearGradient>
        <linearGradient x1="107.828928%" y1="49.9968654%" x2="108.03837%" y2="49.9968654%" id="linearGradient-42">
            <stop stop-color="#BBDFFF" offset="0%"></stop>
            <stop stop-color="#AAD7FF" offset="100%"></stop>
        </linearGradient>
        <linearGradient x1="-79.2602212%" y1="49.9864974%" x2="20.7439678%" y2="49.9864974%" id="linearGradient-43">
            <stop stop-color="#BBDFFF" offset="0%"></stop>
            <stop stop-color="#AAD7FF" offset="100%"></stop>
        </linearGradient>
        <linearGradient x1="0%" y1="50%" x2="100.009893%" y2="50%" id="linearGradient-44">
            <stop stop-color="#6362D7" offset="0%"></stop>
            <stop stop-color="#A67BFF" offset="100%"></stop>
        </linearGradient>
        <linearGradient x1="0%" y1="50.0458295%" x2="100.052192%" y2="50.0458295%" id="linearGradient-45">
            <stop stop-color="#DE79A2" offset="0%"></stop>
            <stop stop-color="#F795B2" offset="93%"></stop>
        </linearGradient>
        <linearGradient x1="34.33918%" y1="94.1183204%" x2="60.2783272%" y2="-10.0730202%" id="linearGradient-46">
            <stop stop-color="#BBDFFF" offset="0%"></stop>
            <stop stop-color="#AAD7FF" offset="100%"></stop>
        </linearGradient>
        <linearGradient x1="52.5798577%" y1="40.5749147%" x2="7.70252912%" y2="204.260159%" id="linearGradient-47">
            <stop stop-color="#6362D7" offset="0%"></stop>
            <stop stop-color="#FF8FE2" offset="100%"></stop>
        </linearGradient>
        <linearGradient x1="0%" y1="50%" x2="170.951355%" y2="50%" id="linearGradient-48">
            <stop stop-color="#B66AFF" offset="0%"></stop>
            <stop stop-color="#FFFFFF" stop-opacity="0" offset="100%"></stop>
        </linearGradient>
        <linearGradient x1="48.2638066%" y1="50.0971277%" x2="31.4920597%" y2="51.0351084%" id="linearGradient-49">
            <stop stop-color="#6362D7" offset="0%"></stop>
            <stop stop-color="#FF8FE2" offset="100%"></stop>
        </linearGradient>
        <linearGradient x1="56.8784072%" y1="49.3667003%" x2="39.5330647%" y2="50.9636757%" id="linearGradient-50">
            <stop stop-color="#6362D7" offset="0%"></stop>
            <stop stop-color="#FF8FE2" offset="100%"></stop>
        </linearGradient>
        <linearGradient x1="19.0904039%" y1="125.480836%" x2="65.2463876%" y2="12.7727217%" id="linearGradient-51">
            <stop stop-color="#6362D7" offset="0%"></stop>
            <stop stop-color="#FF8FE2" offset="100%"></stop>
        </linearGradient>
        <linearGradient x1="37.5926269%" y1="61.3918785%" x2="60.0917006%" y2="35.1735236%" id="linearGradient-52">
            <stop stop-color="#6362D7" offset="0%"></stop>
            <stop stop-color="#FF8FE2" offset="100%"></stop>
        </linearGradient>
        <linearGradient x1="47.0958808%" y1="111.986739%" x2="51.8698591%" y2="-29.7889975%" id="linearGradient-53">
            <stop stop-color="#6362D7" offset="0%"></stop>
            <stop stop-color="#A67BFF" offset="100%"></stop>
        </linearGradient>
        <linearGradient x1="64.2308805%" y1="-74.6725099%" x2="36.6198344%" y2="167.230527%" id="linearGradient-54">
            <stop stop-color="#FFFFFF" offset="0%"></stop>
            <stop stop-color="#77D5FF" offset="100%"></stop>
        </linearGradient>
        <linearGradient x1="-0.016%" y1="50.0089198%" x2="100%" y2="50.0089198%" id="linearGradient-55">
            <stop stop-color="#FCB0AA" offset="0%"></stop>
            <stop stop-color="#F8A0A2" offset="46%"></stop>
            <stop stop-color="#F4919A" offset="100%"></stop>
        </linearGradient>
        <linearGradient x1="50.0074929%" y1="-48.6797697%" x2="50.0074929%" y2="78.5189597%" id="linearGradient-56">
            <stop stop-color="#FCB0AA" offset="0%"></stop>
            <stop stop-color="#EA8C8B" offset="64%"></stop>
            <stop stop-color="#E27D7E" offset="100%"></stop>
        </linearGradient>
        <linearGradient x1="-54.6047107%" y1="88.9525599%" x2="17.8190107%" y2="59.3428744%" id="linearGradient-57">
            <stop stop-color="#FCB0AA" offset="0%"></stop>
            <stop stop-color="#F8A0A2" offset="46%"></stop>
            <stop stop-color="#F4919A" offset="100%"></stop>
        </linearGradient>
        <linearGradient x1="60.6498562%" y1="43.4082694%" x2="25.6841362%" y2="68.6899049%" id="linearGradient-58">
            <stop stop-color="#FCB0AA" offset="0%"></stop>
            <stop stop-color="#F8A0A2" offset="46%"></stop>
            <stop stop-color="#F4919A" offset="100%"></stop>
        </linearGradient>
        <linearGradient x1="19.2358213%" y1="-11.743271%" x2="81.6762831%" y2="142.569227%" id="linearGradient-59">
            <stop stop-color="#FCB0AA" offset="0%"></stop>
            <stop stop-color="#F8A0A2" offset="46%"></stop>
            <stop stop-color="#F4919A" offset="100%"></stop>
        </linearGradient>
        <linearGradient x1="0.304856483%" y1="54.2360023%" x2="104.586262%" y2="47.3969902%" id="linearGradient-60">
            <stop stop-color="#856DD7" offset="0%"></stop>
            <stop stop-color="#D1C4F8" offset="100%"></stop>
        </linearGradient>
        <linearGradient x1="0.395599605%" y1="54.2308724%" x2="104.654541%" y2="47.4071459%" id="linearGradient-61">
            <stop stop-color="#856DD7" offset="0%"></stop>
            <stop stop-color="#D1C4F8" offset="100%"></stop>
        </linearGradient>
        <linearGradient x1="0.486513212%" y1="54.2367147%" x2="104.767922%" y2="47.410047%" id="linearGradient-62">
            <stop stop-color="#856DD7" offset="0%"></stop>
            <stop stop-color="#D1C4F8" offset="100%"></stop>
        </linearGradient>
    </defs>
    <g id="technology-copy" stroke="none" stroke-width="1" fill="none" fill-rule="evenodd">
        <g id="Group" transform="translate(35.000000, 10.000000)" fill-rule="nonzero">
            <g id="hio;" transform="translate(30.689453, 0.000000)">
                <rect id="Rectangle" fill="#0000FF" opacity="0.0354771205" x="232.491208" y="0.108772362" width="103.999994" height="75" rx="5.7446394"></rect>
                <rect id="Rectangle" fill="url(#linearGradient-1)" x="54.5204956" y="278.802053" width="94.687097" height="3.13560377" rx="1.56780188"></rect>
                <rect id="Rectangle" fill="url(#linearGradient-2)" x="0.170514608" y="278.802053" width="60.6836681" height="3.13560377" rx="1.56780188"></rect>
                <rect id="Rectangle" fill="url(#linearGradient-3)" x="149.931193" y="278.802053" width="162.150527" height="2.88713841" rx="1.44356921"></rect>
                <path d="M300.727871,256.479402 C300.727871,256.479402 302.686534,234.303505 280.233112,233.667085 C285.259086,243.485099 291.784571,245.859324 295.568219,249.185272 C299.351867,252.511221 299.62794,258.159086 299.62794,258.159086 L300.727871,256.479402 Z" id="Path" fill="url(#linearGradient-4)"></path>
                <path d="M299.62794,258.161992 L300.727871,256.479402 C300.727871,256.479402 302.369777,237.857577 285.36225,234.257009 C287.891947,237.475434 291.807819,242.869021 293.994605,247.944399 C294.558375,248.355601 295.085819,248.763898 295.568219,249.188178 C299.351867,252.511221 299.62794,258.161992 299.62794,258.161992 Z" id="Path" fill="url(#linearGradient-5)"></path>
                <path d="M302.010882,255.197843 C302.010882,255.197843 306.17522,227.626907 331.002867,227.263653 C329.247626,231.166448 318.639172,241.892596 312.113687,245.735818 C305.588202,249.579039 303.119532,256.479402 303.119532,256.479402 L302.010882,255.197843 Z" id="Path" fill="url(#linearGradient-6)"></path>
                <path d="M326.104757,233.669991 C319.743463,233.899567 314.644837,235.040183 310.557509,236.674824 C303.583043,244.787 302.007976,255.197843 302.007976,255.197843 L303.123891,256.479402 C303.123891,256.479402 305.594014,249.577586 312.118046,245.735818 C316.232981,243.307832 321.985463,238.135102 326.104757,233.669991 Z" id="Path" fill="url(#linearGradient-7)"></path>
                <path d="M301.534294,257.699933 C301.534294,257.699933 310.756572,218.645828 272.017772,214.150204 C272.042473,220.70039 285.988499,232.872286 292.069362,238.026126 C301.15651,245.735818 298.565787,258.223018 299.625034,258.162214 C300.283909,258.123019 300.930507,257.966537 301.534294,257.699933 L301.534294,257.699933 Z" id="Path" fill="url(#linearGradient-8)"></path>
                <path d="M299.24725,255.460839 C301.663612,255.238528 302.240458,252.682677 302.377042,251.42582 C302.794057,245.253417 302.327639,235.624295 297.016874,227.639984 C297.297306,230.967385 297.307477,236.160457 295.8966,242.513033 C298.769208,247.220798 299.122291,252.397886 299.24725,255.460839 Z" id="Path" fill="url(#linearGradient-9)"></path>
                <path d="M299.781959,259.638254 C299.781959,259.638254 294.322986,220.485344 326.242793,212.864287 C324.041477,232.119625 305.599826,237.244405 302.914657,257.878654 C301.769682,261.397853 299.781959,259.638254 299.781959,259.638254 Z" id="Path" fill="url(#linearGradient-10)"></path>
                <path d="M309.389286,278.511546 L291.095843,278.511546 C290.407829,278.519299 289.806736,278.04809 289.650094,277.378099 L285.105067,257.983271 L317.540694,257.983271 L310.952729,277.378099 C310.724717,278.049251 310.098068,278.503513 309.389286,278.511546 Z" id="Path" fill="#42417D"></path>
                <polygon id="Path" fill="url(#linearGradient-11)" points="316.596235 260.767245 317.542147 257.983271 285.097802 257.983271 287.828015 269.630629"></polygon>
                <path d="M318.213439,258.921918 L284.727283,258.921918 C284.40691,258.927084 284.098994,258.797941 283.878156,258.565785 C283.657318,258.33363 283.543713,258.019649 283.564872,257.699933 L283.564872,257.699933 C283.610212,257.020272 284.169689,256.489244 284.850789,256.479402 L318.336945,256.479402 C318.657049,256.474266 318.964718,256.603213 319.185507,256.835042 C319.406297,257.066871 319.520091,257.380461 319.499356,257.699933 L319.499356,257.699933 C319.454739,258.380166 318.895062,258.912018 318.213439,258.921918 Z" id="Path" fill="#42417D"></path>
                <rect id="Rectangle" fill="url(#linearGradient-12)" x="149.207593" y="22.2317827" width="129.289167" height="257.873623" rx="11.4507123"></rect>
                <path d="M278.411032,22.2317827 L272.017772,22.2317827 C275.596018,22.2317827 278.49676,25.1325246 278.49676,28.7107712 L278.49676,273.62787 C278.49676,275.346205 277.814154,276.994161 276.599108,278.209207 C275.384062,279.424253 273.736106,280.106859 272.017772,280.106859 L278.411032,280.106859 C280.129367,280.106859 281.777323,279.424253 282.992369,278.209207 C284.207415,276.994161 284.890021,275.346205 284.890021,273.62787 L284.890021,28.7107712 C284.890021,25.1325246 281.989279,22.2317827 278.411032,22.2317827 Z" id="Path" fill="url(#linearGradient-13)"></path>
                <path d="M272.017772,25.5737144 L230.989021,25.5737144 C230.982011,25.8095755 230.917145,26.0400997 230.800129,26.2450068 L229.012922,29.3878756 C228.753169,29.8444077 228.268243,30.1262638 227.742988,30.1260066 L199.961364,30.1260066 C199.436109,30.1262638 198.951183,29.8444077 198.69143,29.3878756 L196.904223,26.2450068 C196.787208,26.0400997 196.722341,25.8095755 196.715332,25.5737144 L155.685128,25.5737144 C153.953811,25.5737144 152.551125,26.9794532 152.549524,28.7107712 L152.549524,273.62787 C152.551125,275.359188 153.953811,276.764927 155.685128,276.764927 L272.017772,276.764927 C273.749656,276.764927 275.153226,275.359755 275.154828,273.62787 L275.154828,28.7107712 C275.153226,26.9788866 273.749656,25.5737144 272.017772,25.5737144 L272.017772,25.5737144 Z" id="Path" fill="url(#linearGradient-14)"></path>
                <rect id="Rectangle" fill="url(#linearGradient-15)" x="152.549524" y="57.2145428" width="122.605304" height="165.165531"></rect>
                <path d="M275.154828,71.2128777 C269.788848,143.282362 222.680688,185.408138 196.134126,174.689255 C180.796112,168.49651 164.624069,172.875894 152.543712,178.574614 L152.543712,222.380074 L275.149016,222.380074 L275.154828,71.2128777 Z" id="Path" fill="url(#linearGradient-16)"></path>
                <path d="M172.820521,129.943695 C172.818113,118.750506 163.742714,109.67836 152.549524,109.679965 L152.549524,150.21905 C157.926718,150.219821 163.083834,148.083782 166.885676,144.281123 C170.687517,140.478464 172.822447,135.320889 172.820521,129.943695 Z" id="Path" fill="url(#linearGradient-17)"></path>
                <path d="M275.154828,135.030697 C245.507583,121.668577 230.619105,88.1762248 240.562929,57.2145428 L229.499682,57.2145428 C219.719972,93.181589 238.021395,130.842077 272.343247,145.377608 C273.274144,145.771859 274.211338,146.145283 275.154828,146.497881 L275.154828,135.030697 Z" id="Path" fill="url(#linearGradient-18)"></path>
                <polygon id="Path" fill="#F4919A" points="92.2276566 271.863912 91.5941426 267.052983 101.120101 265.966129 101.120101 270.777057 100.547614 272.541016"></polygon>
                <polygon id="Path" fill="#F4919A" points="122.053671 272.541016 121.819736 267.978553 131.345694 266.893151 131.703135 272.264943 130.773207 273.468039"></polygon>
                <path d="M149.207593,104.279113 C149.934099,101.808989 150.404876,99.3083524 149.990767,97.25815 C149.990767,97.25815 150.059059,90.7893326 150.404876,89.0050316 C150.750693,87.2207307 152.555336,95.5319696 152.462343,96.4648044 C154.426818,96.836776 158.977657,88.9091327 160.109555,85.0862534 C162.111808,81.3854273 164.143121,96.2744596 160.109555,102.060361 C156.075989,107.846261 157.032072,109.149615 156.477021,109.149615 C155.921969,109.149615 149.207593,104.279113 149.207593,104.279113 Z" id="Path" fill="#FCB0AA"></path>
                <path d="M156.803949,108.44345 C156.94925,107.818654 157.276178,106.699834 158.344143,104.829805 C156.202401,102.504983 152.588756,102.21438 149.68854,102.449768 C149.543239,103.057128 149.386313,103.668847 149.207593,104.279113 C149.207593,104.279113 154.583744,108.186267 156.110861,109.001407 L156.803949,108.44345 Z" id="Path" fill="#F4919A"></path>
                <path d="M87.5983546,171.270314 C86.8253513,181.732013 88.9162382,204.632963 90.794985,219.277889 L91.0434503,268.856173 C91.0434503,268.856173 97.5631232,271.080737 101.445576,269.116263 L113.668328,176.339879 L87.5983546,171.270314 Z" id="Path" fill="#42417D"></path>
                <polygon id="Path" fill="url(#linearGradient-19)" points="99.430246 269.759948 107.392762 215.472446 107.392762 197.552427 107.24746 197.552427 107.24746 215.459369 99.2791325 269.783196"></polygon>
                <path d="M109.272961,209.661844 L113.662516,176.339879 L87.5983546,171.270314 C87.4850196,172.80179 87.4327111,174.599168 87.4327111,176.598515 L87.5053618,176.636294 C93.0400632,179.448703 97.1546285,184.437666 98.8621176,190.406505 C101.598143,199.928105 106.987371,206.681713 109.272961,209.661844 Z" id="Path" fill="#353967"></path>
                <path d="M127.313581,172.896236 L130.819703,221.197321 L131.995191,270.133372 C130.488416,271.679379 122.954539,273.199231 120.641341,269.897984 C119.243542,261.913673 116.558373,220.701843 116.558373,220.701843 C116.558373,220.701843 99.2849446,188.0657 101.281386,172.897689 C115.451176,173.496331 127.313581,172.896236 127.313581,172.896236 Z" id="Path" fill="#42417D"></path>
                <path d="M127.313581,172.896236 L130.819703,221.197321 L131.995191,270.133372 C130.488416,271.679379 122.954539,273.199231 120.641341,269.897984 C119.243542,261.913673 116.558373,220.701843 116.558373,220.701843 C116.558373,220.701843 99.2849446,188.0657 101.281386,172.897689 C115.451176,173.496331 127.313581,172.896236 127.313581,172.896236 Z" id="Path" fill="#42417D"></path>
                <polygon id="Path" fill="url(#linearGradient-20)" points="127.562046 217.913509 122.14957 173.070598 122.004268 173.070598 127.418198 217.929493 130.164394 271.131593 130.309695 271.080737"></polygon>
                <path d="M127.313581,172.896236 C127.313581,172.896236 118.870118,173.321969 107.725502,173.096752 L106.433772,173.532656 L101.210188,173.532656 C101.070228,175.265851 101.100401,177.008588 101.300275,178.735899 C105.242301,180.170023 124.378493,179.07881 127.490848,175.330034 L127.313581,172.896236 Z" id="Path" fill="#353967"></path>
                <path d="M97.1679035,95.5174394 C97.1679035,95.5174394 98.3651869,90.7530072 98.2925362,89.0050316 C101.174426,88.4740958 104.105028,88.2543981 107.033867,88.3497224 L108.964922,94.9841834 L104.26297,101.107184 L97.1679035,95.5174394 Z" id="Path" fill="#FCB0AA"></path>
                <path d="M107.033867,88.3497224 C104.105028,88.2543981 101.174426,88.4740958 98.2925362,89.0050316 C98.3390326,90.1122281 97.8755212,92.4283321 97.5297039,93.9786978 C99.2587903,94.2547705 101.675152,94.414602 103.420222,93.6081793 C106.180948,92.3411513 105.858379,90.314197 107.48866,89.9335074 L107.033867,88.3497224 Z" id="Path" fill="#F4919A"></path>
                <path d="M97.1679035,95.5174394 C97.1679035,95.5174394 104.194678,99.0206557 108.964922,94.9841834 C113.001395,94.8606772 122.663937,95.7179553 124.13148,97.4296056 C125.599024,99.1412558 137.781092,118.196079 137.781092,118.196079 L149.207593,104.279113 C149.207593,104.279113 157.158484,104.035006 158.626028,108.683197 C157.524644,113.332842 143.091857,139.017766 139.300945,139.263326 C135.510032,139.508885 126.701862,128.621453 126.701862,128.621453 C126.701862,128.621453 125.723984,164.460038 128.292912,169.842001 C130.86184,175.223964 123.387537,175.835683 121.25306,176.203295 C119.118583,176.570908 88.784011,176.569455 85.9709792,171.309545 C84.9916479,168.49651 87.9267358,168.006845 88.0502419,165.683476 C88.1737481,163.360107 88.0502419,152.350621 88.0502419,152.350621 C88.0502419,152.350621 76.1849313,139.263326 74.9614937,132.046206 C73.7380561,124.829087 79.1621565,107.498991 81.3634724,102.484641 C83.5647883,97.47029 97.1679035,95.5174394 97.1679035,95.5174394 Z" id="Path" fill="url(#linearGradient-21)"></path>
                <path d="M88.0487889,152.350621 C88.0487889,152.350621 86.1526059,129.384285 83.6679523,122.985212 C82.3311796,122.125028 82.5229775,124.417884 82.999566,125.08627 C83.4761545,125.754657 81.0888528,136.453197 82.1408348,140.464968 C82.4445147,141.627379 82.4198135,143.370996 82.2309217,145.259914 C85.2502843,149.262967 88.0487889,152.350621 88.0487889,152.350621 Z" id="Path" fill="url(#linearGradient-22)"></path>
                <path d="M111.427781,70.7304771 L111.212735,74.6042119 C111.212735,74.6042119 113.556446,88.5807516 111.196752,89.2331548 C108.837057,89.885558 104.076984,88.9701593 104.076984,88.9701593 L99.8356368,85.6529288 L98.3739049,74.1813849 C98.3739049,74.1813849 107.289598,67.2911935 111.427781,70.7304771 Z" id="Path" fill="#FCB0AA"></path>
                <path d="M94.9389803,64.8951737 C94.9389803,64.8951737 89.0382913,65.5504829 89.9856563,71.0864655 C88.8929899,72.6847807 86.1249987,81.0657642 91.2236241,85.9464376 C93.7736633,87.25415 94.6469246,89.7329915 95.2310361,90.1703487 C95.8151477,90.6077058 97.8464609,92.204568 98.5816859,92.7857735 C99.3169109,93.366979 104.626223,92.8584242 105.79154,88.9977665 C106.956857,85.1371089 104.550667,82.0102232 104.550667,82.0102232 C104.550667,82.0102232 101.027108,80.3290862 101.922165,76.9508292 C102.666108,75.1636222 105.461706,76.1560306 105.409398,77.1992945 C105.357089,78.2425584 106.584886,78.6900867 106.118468,75.6096974 C105.652051,72.5293082 108.531924,73.2253018 109.774251,72.3811008 C111.016578,71.5368998 116.418883,65.5272347 113.666875,61.7523049 C110.914867,57.977375 108.030635,59.4681672 107.782169,58.6791807 C107.533704,57.8901942 100.44445,55.8923002 97.3451712,58.5789227 C95.5266808,60.1420275 94.6214206,62.5183356 94.9389803,64.8951737 L94.9389803,64.8951737 Z" id="Path" fill="#641360"></path>
                <path d="M126.700409,128.621453 C126.700409,128.621453 123.320699,121.792288 123.067874,122.037847 C122.81505,122.283407 124.064642,144.624947 121.822642,148.694838 C120.224326,151.58343 123.912075,160.246298 127.310675,165.20834 C126.010227,153.935859 126.700409,128.621453 126.700409,128.621453 Z" id="Path" fill="url(#linearGradient-23)"></path>
                <path d="M139.401202,120.454062 C139.401202,120.454062 148.132362,107.220013 150.400517,104.309626 L150.400517,104.309626 C149.67401,104.266036 149.203234,104.279113 149.203234,104.279113 L137.776733,118.196079 L139.401202,120.454062 Z" id="Path" fill="url(#linearGradient-24)"></path>
                <path d="M121.850249,271.863912 C121.850249,271.863912 125.379619,273.996936 131.995191,271.863912 C133.173585,272.946407 141.669357,275.573456 144.865987,277.074419 C145.794706,277.501169 146.220623,278.585204 145.830788,279.530012 C145.698564,279.833692 145.500954,280.066175 145.210352,280.111218 C140.724898,280.722937 126.353139,280.121389 122.262905,280.083611 C121.626902,280.078956 121.097647,279.593649 121.038014,278.960431 C120.881089,277.289465 120.769207,274.097194 121.850249,271.863912 Z" id="Path" fill="#353967"></path>
                <path d="M91.5970486,270.586713 C91.5970486,270.586713 95.1264191,272.719737 101.741991,270.586713 C102.968335,271.712798 112.109244,274.50985 114.971682,275.971582 C115.539679,276.261191 115.871081,276.870302 115.805711,277.504511 C115.743232,278.1017 115.544169,278.759915 115.035614,278.82966 C110.551614,279.442832 96.1013914,278.839831 92.0097045,278.803506 C91.3742285,278.797513 90.8457346,278.312903 90.7848139,277.680326 C90.6249824,276.012266 90.5145533,272.819995 91.5970486,270.586713 Z" id="Path" fill="#353967"></path>
                <circle id="Oval" fill="#9EBAFF" cx="213.125669" cy="250.548199" r="13.8544865"></circle>
                <circle id="Oval" fill="#9EBAFF" cx="176.450148" cy="250.548199" r="8.97526621"></circle>
                <circle id="Oval" fill="#9EBAFF" cx="250.068545" cy="250.548199" r="8.97526621"></circle>
                <circle id="Oval" fill="url(#linearGradient-25)" cx="213.852176" cy="249.821692" r="13.8544865"></circle>
                <path d="M223.179072,246.107789 L223.163089,246.107789 C216.973635,245.433591 210.729265,245.433591 204.539811,246.107789 L204.523828,246.107789 C203.220369,246.108591 202.164133,247.165478 202.164133,248.468937 L202.164133,250.925983 C202.164133,252.645692 203.558233,254.039791 205.277942,254.039791 L207.265665,254.039791 C208.257527,254.039791 209.06159,253.235728 209.06159,252.243866 L209.06159,250.856238 C209.062663,250.543103 209.284657,250.274276 209.59194,250.214006 C212.4032,249.645912 215.299699,249.645912 218.11096,250.214006 C218.41882,250.273669 218.641553,250.542653 218.642763,250.856238 L218.642763,252.243866 C218.642763,253.235728 219.446826,254.039791 220.438688,254.039791 L222.426411,254.039791 C224.145787,254.03899 225.539417,252.64536 225.540219,250.925983 L225.540219,248.468937 C225.540219,247.842721 225.291456,247.242154 224.848655,246.799353 C224.405854,246.356552 223.805287,246.107789 223.179072,246.107789 Z" id="Path" fill="#FFFFFF"></path>
                <circle id="Oval" fill="url(#linearGradient-26)" cx="177.176655" cy="249.821692" r="8.97526621"></circle>
                <rect id="Rectangle" fill="#42417D" x="172.330854" y="245.442309" width="9.690149" height="1.69421408" rx="0.829464024"></rect>
                <rect id="Rectangle" fill="#42417D" x="172.330854" y="248.974585" width="9.690149" height="1.69421408" rx="0.829464024"></rect>
                <rect id="Rectangle" fill="#42417D" x="172.330854" y="252.505409" width="9.690149" height="1.69421408" rx="0.829464024"></rect>
                <circle id="Oval" fill="url(#linearGradient-27)" cx="250.795052" cy="249.821692" r="8.97526621"></circle>
                <path d="M255.303754,251.340092 L254.479895,250.622303 C254.37395,250.53363 254.319408,250.397822 254.334594,250.260503 C254.371398,249.964744 254.371398,249.665564 254.334594,249.369805 C254.319408,249.232486 254.37395,249.096678 254.479895,249.008005 L255.299395,248.297481 C255.450475,248.168014 255.487189,247.948952 255.386576,247.777302 L254.854773,246.854638 C254.75601,246.6822 254.548374,246.604642 254.360748,246.670105 L253.333467,247.024641 C253.203661,247.06992 253.05983,247.047583 252.949871,246.965067 C252.712842,246.784748 252.454122,246.634885 252.179774,246.518992 C252.053266,246.465037 251.9618,246.351793 251.935668,246.216765 L251.730793,245.151706 C251.692652,244.957072 251.522284,244.816519 251.323949,244.81606 L250.266155,244.81606 C250.067614,244.815947 249.896929,244.956761 249.859311,245.151706 L249.652983,246.216765 C249.627384,246.351588 249.536436,246.464865 249.41033,246.518992 C249.135686,246.635198 248.876522,246.785035 248.63878,246.965067 C248.528924,247.047829 248.384965,247.070186 248.255184,247.024641 L247.229356,246.670105 C247.041311,246.604456 246.833168,246.681976 246.733878,246.854638 L246.202075,247.777302 C246.103277,247.949282 246.139784,248.16711 246.289256,248.297481 L247.110209,249.008005 C247.216154,249.096678 247.270696,249.232486 247.25551,249.369805 C247.218706,249.665564 247.218706,249.964744 247.25551,250.260503 C247.270696,250.397822 247.216154,250.53363 247.110209,250.622303 L246.289256,251.33428 C246.139784,251.46465 246.103277,251.682479 246.202075,251.854459 L246.733878,252.777122 C246.833955,252.948854 247.041325,253.026085 247.229356,252.961655 L248.255184,252.605667 C248.385156,252.559991 248.529398,252.582939 248.63878,252.666693 C248.876566,252.846268 249.135733,252.995619 249.41033,253.111316 C249.536436,253.165443 249.627384,253.278719 249.652983,253.413542 L249.859311,254.480055 C249.896929,254.675 250.067614,254.815814 250.266155,254.815701 L251.331214,254.815701 C251.52955,254.815242 251.699917,254.674689 251.738058,254.480055 L251.942933,253.413542 C251.969066,253.278515 252.060531,253.165271 252.187039,253.111316 C252.46134,252.995933 252.720064,252.846556 252.957137,252.666693 C253.066625,252.583189 253.210735,252.560262 253.340732,252.605667 L254.368013,252.961655 C254.555624,253.025897 254.762485,252.948628 254.862038,252.777122 L255.393841,251.854459 C255.490503,251.683491 255.452767,251.468032 255.303754,251.340092 L255.303754,251.340092 Z M250.799411,251.254376 C250.21923,251.254376 249.696204,250.904793 249.474314,250.368719 C249.252424,249.832645 249.375389,249.215689 249.785847,248.805646 C250.196305,248.395604 250.813386,248.273265 251.349234,248.495698 C251.885083,248.718132 252.234124,249.241511 252.233536,249.821692 C252.233536,250.20267 252.081799,250.567959 251.811863,250.836805 C251.541927,251.10565 251.176026,251.25591 250.795052,251.254376 L250.799411,251.254376 Z" id="Shape" fill="#42417D"></path>
                <circle id="Oval" fill="url(#linearGradient-28)" cx="160.260668" cy="51.8209556" r="3.64706462"></circle>
                <circle id="Oval" fill="url(#linearGradient-29)" cx="160.260668" cy="51.8209556" r="1.70874422"></circle>
                <path d="M170.523305,52.075233 C170.523305,53.6735482 169.92321,54.5555276 168.890117,54.5555276 C167.971813,54.5555276 167.342658,53.6953434 167.328128,52.1406186 C167.328128,50.5568336 168.015403,49.6966494 168.970033,49.6966494 C169.952271,49.6966494 170.523305,50.5786288 170.523305,52.075233 Z M167.971813,52.1478837 C167.971813,53.3698683 168.348143,54.0644089 168.926443,54.0644089 C169.570128,54.0644089 169.881073,53.3044827 169.881073,52.1042933 C169.881073,50.9418822 169.59047,50.1892211 168.926443,50.1892211 C168.377204,50.1892211 167.971813,50.8677785 167.971813,52.1478837 Z" id="Shape" fill="#42417D"></path>
                <path d="M173.907374,50.3112743 L172.114355,50.3112743 L171.934181,51.5187287 C172.061355,51.5022332 172.189554,51.4949492 172.317777,51.4969335 C172.673792,51.4843701 173.026188,51.5719658 173.334887,51.7497579 C173.765044,51.9934206 174.024251,52.4558518 174.007632,52.9499473 C174.007632,53.868252 173.281125,54.5482625 172.264015,54.5482625 C171.854812,54.5566413 171.450704,54.4563664 171.092886,54.2576597 L171.251265,53.7738061 C171.563224,53.9441749 171.912925,54.0335984 172.268374,54.0338956 C172.861204,54.0338956 173.381383,53.6430349 173.374118,53.0167859 C173.366853,52.390537 172.962915,51.9836931 172.03008,51.9836931 C171.810017,51.9841772 171.590194,51.9982498 171.371865,52.0258305 L171.675545,49.7707531 L173.923357,49.7707531 L173.907374,50.3112743 Z" id="Path" fill="#42417D"></path>
                <path d="M174.869269,51.5594131 C174.861186,51.4413037 174.902648,51.3251621 174.983699,51.2388728 C175.06475,51.1525834 175.178072,51.1039395 175.296455,51.1046198 C175.416177,51.1003636 175.531946,51.1478004 175.614259,51.2348403 C175.696571,51.3218802 175.737476,51.4401157 175.726547,51.5594131 C175.735791,51.7177128 175.656591,51.8681083 175.520833,51.9500479 C175.385075,52.0319875 175.2151,52.0319875 175.079343,51.9500479 C174.943585,51.8681083 174.864384,51.7177128 174.873628,51.5594131 L174.869269,51.5594131 Z M174.869269,54.1123583 C174.861207,53.9941163 174.902628,53.8778389 174.983632,53.7913251 C175.064635,53.7048112 175.177939,53.6558374 175.296455,53.6561109 C175.546026,53.6561109 175.748343,53.8584288 175.748343,54.1079993 C175.748343,54.3575698 175.546026,54.5598866 175.296455,54.5598866 C175.178338,54.5613844 175.064979,54.5134031 174.98383,54.4275616 C174.902681,54.3417201 174.861141,54.2258462 174.869269,54.1079993 L174.869269,54.1123583 Z" id="Shape" fill="#42417D"></path>
                <path d="M176.307753,54.4756118 L176.307753,54.0862041 L176.806137,53.6008975 C178.006326,52.4588286 178.549753,51.8572809 178.549753,51.1423981 C178.549753,50.6658096 178.325989,50.2240934 177.624183,50.2240934 C177.255664,50.2385492 176.90328,50.3790925 176.625963,50.6222192 L176.423994,50.174691 C176.796367,49.866536 177.264347,49.6975288 177.74769,49.6966494 C178.764799,49.6966494 179.186173,50.39119 179.186173,51.0639354 C179.186173,51.9357437 178.557018,52.6317373 177.566063,53.5863674 L177.19845,53.9336376 L177.19845,53.9481678 L179.300961,53.9481678 L179.300961,54.4756118 L176.307753,54.4756118 Z" id="Path" fill="#42417D"></path>
                <path d="M183.148542,52.075233 C183.148542,53.6735482 182.548447,54.5555276 181.513901,54.5555276 C180.595597,54.5555276 179.966442,53.6953434 179.951911,52.1406186 C179.951911,50.5568336 180.639187,49.6966494 181.593817,49.6966494 C182.577507,49.6966494 183.148542,50.5786288 183.148542,52.075233 Z M180.595597,52.1478837 C180.595597,53.3698683 180.971927,54.0644089 181.550227,54.0644089 C182.193912,54.0644089 182.504857,53.3044827 182.504857,52.1042933 C182.504857,50.9418822 182.214254,50.1892211 181.550227,50.1892211 C181.000987,50.1892211 180.595597,50.8677785 180.595597,52.1478837 Z" id="Shape" fill="#42417D"></path>
                <path d="M195.619759,75.2217428 C195.619759,75.2217428 213.337809,56.0826451 229.010016,70.29312 C244.682223,84.5035949 238.942818,97.3191765 237.396812,105.165451 C236.734238,115.435353 246.66704,143.619461 246.66704,143.619461 L179.873449,145.923941 C179.873449,145.923941 191.52226,129.246249 187.942034,116.664602 C184.361808,104.082956 179.379424,103.469784 180.886199,89.253497 C183.439145,71.6269866 195.619759,75.2217428 195.619759,75.2217428 Z" id="Path" fill="#353967"></path>
                <path d="M203.415178,116.384171 C203.415178,116.384171 204.926313,129.050092 194.201618,133.926406 C196.254726,143.115265 200.343507,157.673011 217.393171,152.780713 C230.384567,149.559382 230.939619,132.136293 230.939619,132.136293 C230.939619,132.136293 219.764489,130.186349 220.599972,114.871583 C211.649407,113.996869 203.415178,116.384171 203.415178,116.384171 Z" id="Path" fill="#FCB0AA"></path>
                <path d="M214.430476,153.460724 C215.257725,153.321234 216.119846,153.127499 217.01684,152.879518 L224.614649,148.596033 C230.614143,142.364057 230.939619,132.131934 230.939619,132.131934 C230.171372,131.966273 229.424883,131.712243 228.715054,131.374914 C227.503241,137.19714 224.501314,143.705189 217.304537,146.237792 C205.971029,150.226315 197.608935,138.625453 194.656411,133.705548 C194.51111,133.779652 194.35709,133.850849 194.201618,133.922047 C195.307361,138.862294 197.004481,145.370343 200.994457,149.557928 L214.430476,153.460724 Z" id="Path" fill="#F4919A"></path>
                <path d="M211.325385,129.943695 C215.635024,129.943695 219.181831,127.091429 221.805974,123.89044 C220.909464,121.574336 220.392191,118.626171 220.597066,114.871583 C211.646501,113.999775 203.412272,116.384171 203.412272,116.384171 C203.412272,116.384171 203.938263,120.796973 202.164133,125.416104 C204.808618,127.987939 207.935504,129.943695 211.325385,129.943695 Z" id="Path" fill="#F4919A"></path>
                <path d="M191.716964,91.5507118 C191.716964,91.5507118 200.435047,90.3519754 200.759069,83.1610101 C202.611662,88.4993828 204.02835,104.084409 230.939619,92.5314961 C229.849858,101.030174 227.016481,110.617159 227.016481,110.617159 C227.016481,110.617159 221.150665,125.4379 211.323932,125.4379 C205.80248,125.4379 200.972662,120.23611 197.810904,115.685271 C195.328048,112.095781 193.753443,107.957333 193.222286,103.625256 L191.716964,91.5507118 Z" id="Path" fill="#FCB0AA"></path>
                <rect id="Rectangle" fill="url(#linearGradient-30)" x="186.61398" y="93.1751812" width="4.21519302" height="8.71227071" rx="2.10759651"></rect>
                <rect id="Rectangle" fill="url(#linearGradient-31)" x="188.488367" y="90.4594984" width="5.71470326" height="14.0520964" rx="2.85735163"></rect>
                <rect id="Rectangle" fill="url(#linearGradient-32)" transform="translate(234.305525, 97.579266) rotate(180.000000) translate(-234.305525, -97.579266) " x="232.197928" y="93.2231307" width="4.21519302" height="8.71227071" rx="2.10759651"></rect>
                <path d="M215.781779,116.086303 L215.462116,114.519954 L223.107874,112.957964 C224.981738,112.580578 226.577043,111.360513 227.432043,109.650905 L231.40313,101.762493 L232.831442,102.489 L228.860356,110.375959 C227.786266,112.524111 225.781943,114.057238 223.427537,114.531578 L215.781779,116.086303 Z" id="Path" fill="url(#linearGradient-33)"></path>
                <rect id="Rectangle" fill="url(#linearGradient-34)" x="208.041574" y="113.303781" width="9.35159678" height="3.99869396" rx="1.99934698"></rect>
                <path d="M193.151089,133.425116 C193.791961,133.189046 194.506572,133.485903 194.791541,134.10658 C196.418917,137.676635 202.257126,148.59458 212.797288,148.59458 C223.770448,148.59458 228.646763,135.733955 229.723446,132.220568 C229.789952,132.003094 229.940829,131.821339 230.142345,131.715939 C230.343861,131.610539 230.579209,131.590285 230.79577,131.659705 C232.272032,132.129028 235.234727,133.122889 235.736017,133.693924 L236.414574,134.45385 L234.081034,222.38298 L194.777011,222.38298 L191.038407,134.949328 L193.151089,133.425116 Z" id="Path" fill="url(#linearGradient-35)"></path>
                <path d="M203.842364,186.362768 C204.666223,182.743311 192.90117,133.60529 192.90117,133.60529 L191.044219,134.946422 L194.782823,222.380074 L198.636216,222.380074 C199.555974,215.126629 202.855768,189.605895 203.842364,186.362768 Z" id="Path" fill="url(#linearGradient-36)"></path>
                <path d="M232.604772,132.262705 L232.694859,133.60529 C232.694859,133.60529 220.925447,182.743311 221.752212,186.362768 C222.738809,189.605895 226.034244,215.132441 226.959814,222.380074 L234.086846,222.380074 L236.420387,134.450944 L235.741829,133.691018 C235.401824,133.310328 233.961887,132.740747 232.604772,132.262705 Z" id="Path" fill="url(#linearGradient-37)"></path>
                <path d="M192.90117,133.60529 C192.90117,133.60529 179.468058,139.338882 176.471943,145.601372 C173.475829,151.863861 165.366559,180.594303 166.540594,194.85854 C167.714629,209.122776 166.425806,222.385886 166.425806,222.385886 L197.07132,222.385886 L199.991878,182.60818 L192.90117,133.60529 Z" id="Path" fill="url(#linearGradient-38)"></path>
                <path d="M233.627694,132.637583 C235.734564,132.637583 246.482507,139.569912 249.122633,145.602825 C251.906608,151.962666 260.229471,180.595756 259.053982,194.859993 C257.878494,209.124229 259.170224,222.387339 259.170224,222.387339 L228.52471,222.387339 L225.59834,182.615445 L233.627694,132.637583 Z" id="Path" fill="url(#linearGradient-39)"></path>
                <path d="M182.166304,222.380074 L186.29577,190.397787 C186.29577,190.397787 182.023909,164.584997 181.054749,166.504428 C180.085589,168.42386 181.808863,191.143183 181.808863,191.143183 L177.321956,222.38298 L182.166304,222.380074 Z" id="Path" fill="url(#linearGradient-40)"></path>
                <path d="M243.291689,222.380074 L239.160771,190.397787 C239.160771,190.397787 243.434084,164.584997 244.403244,166.504428 C245.372405,168.42386 243.64913,191.143183 243.64913,191.143183 L248.136037,222.38298 L243.291689,222.380074 Z" id="Path" fill="url(#linearGradient-41)"></path>
                <rect id="Rectangle" fill="url(#linearGradient-42)" x="42.3384279" y="59.1426921" width="34.6877983" height="23.177023" rx="4.48372813"></rect>
                <path d="M42.339881,76.9392051 L42.339881,79.7827531 C42.339881,81.1838785 43.4757176,82.3197151 44.876843,82.3197151 L74.4907172,82.3197151 C75.8912752,82.318913 77.0262263,81.1833113 77.0262263,79.7827531 L77.0262263,76.9392051 L42.339881,76.9392051 Z" id="Path" fill="url(#linearGradient-43)"></path>
                <rect id="Rectangle" fill="url(#linearGradient-44)" x="45.3316364" y="78.4517924" width="14.6870634" height="1.17694117" rx="0.588470587"></rect>
                <rect id="Rectangle" fill="url(#linearGradient-45)" x="45.3316364" y="61.4268298" width="2.78397443" height="1.58523805" rx="0.744720022"></rect>
                <path d="M56.7595899,64.3735418 C56.9200309,64.2322954 57.0899458,64.1021892 57.2681447,63.9841341 C57.6608019,63.7230831 58.100527,63.5409747 58.56278,63.447972 C58.8301122,63.3939957 59.1022938,63.3677027 59.3750147,63.3695092 C59.7424064,63.3645432 60.1081152,63.4200131 60.45751,63.5336998 C60.7649095,63.6322568 61.0494762,63.7913375 61.2944459,64.0015702 C61.5254894,64.2010441 61.709572,64.4491339 61.833514,64.7280771 C61.9649865,65.0319748 62.0303636,65.3603463 62.0253119,65.6914253 C62.0338115,65.9972224 61.9845148,66.3018761 61.8800105,66.5893878 C61.7881466,66.8269645 61.6602345,67.0489728 61.5007739,67.247603 C61.3554401,67.4279499 61.1896548,67.5908096 61.0067492,67.7329097 C60.8256068,67.8743363 60.6575415,68.0046232 60.5025534,68.1237704 C60.3566263,68.2323636 60.218717,68.3513347 60.0898975,68.4797587 C59.9797295,68.5845892 59.9063461,68.7221832 59.8806635,68.8720725 L59.7164729,69.8673869 L58.56278,69.8673869 L58.4465389,68.7543784 C58.4424059,68.7352573 58.4399747,68.7158078 58.4392738,68.6962578 L58.4392738,68.6381373 C58.433443,68.4535186 58.4841382,68.2715229 58.5845752,68.1165053 C58.6906256,67.9615988 58.8166752,67.8213808 58.9594527,67.6994903 C59.1047541,67.5701721 59.2718507,67.4437599 59.4447594,67.3202537 C59.6157209,67.1986357 59.7778921,67.0651115 59.930066,66.9206749 C60.0789651,66.7778045 60.2053586,66.613199 60.3049435,66.4324623 C60.4073632,66.2342826 60.4573826,66.0131967 60.4502449,65.7902302 C60.4523123,65.6399502 60.4210495,65.4910796 60.358705,65.3543261 C60.2983313,65.2259284 60.2111276,65.1119691 60.1029746,65.0201329 C59.9871853,64.9231843 59.8533609,64.8500994 59.7092079,64.8050869 C59.5497026,64.7533504 59.3828605,64.7278334 59.2151832,64.7295301 C58.9922327,64.7247489 58.7698378,64.7536505 58.5555149,64.815258 C58.3969186,64.8631054 58.243571,64.9268785 58.0978156,65.0056028 C57.9728564,65.0768004 57.8667864,65.140733 57.7810586,65.1974006 C57.7134889,65.2478639 57.6327317,65.2776431 57.5485764,65.2831284 C57.4023479,65.2867162 57.2675909,65.2042699 57.2042121,65.0724414 L56.7595899,64.3735418 Z M58.0498661,72.4246912 C58.0492135,72.2866672 58.07588,72.1498784 58.1283289,72.0222064 C58.1782232,71.8988859 58.2528992,71.7871192 58.3477339,71.6938253 C58.4432128,71.6006622 58.5556731,71.5266752 58.6790211,71.4758732 C59.0684762,71.3126847 59.5177882,71.3985405 59.8196369,71.6938253 C59.9121377,71.78873 59.9860608,71.9001074 60.037589,72.0222064 C60.1460024,72.2810907 60.1460024,72.5726507 60.037589,72.8315351 C59.985296,72.9519246 59.9114307,73.0617377 59.8196369,73.1555571 C59.7257352,73.2485724 59.6140517,73.3217103 59.4912558,73.3706032 C59.2306268,73.4752706 58.9396501,73.4752706 58.6790211,73.3706032 C58.5556014,73.3212566 58.4430507,73.2481974 58.3477339,73.1555571 C58.2536372,73.0633332 58.1790261,72.953146 58.1283289,72.8315351 C58.0753122,72.7025078 58.0486348,72.5641806 58.0498661,72.4246912 Z" id="Shape" fill="url(#linearGradient-46)"></path>
                <path d="M57.0501926,63.9376376 C57.2106337,63.7963913 57.3805486,63.6662851 57.5587474,63.5482299 C57.9514047,63.2871789 58.3911298,63.1050706 58.8533827,63.0120678 C59.120715,62.9580916 59.3928965,62.9317986 59.6656175,62.9336051 C60.0330092,62.928639 60.398718,62.984109 60.7481127,63.0977957 C61.0555123,63.1963527 61.3400789,63.3554333 61.5850487,63.5656661 C61.8160921,63.76514 62.0001748,64.0132298 62.1241168,64.292173 C62.2555892,64.5960706 62.3209664,64.9244422 62.3159146,65.2555211 C62.3244143,65.5613183 62.2751175,65.865972 62.1706132,66.1534837 C62.0787493,66.3910604 61.9508373,66.6130687 61.7913766,66.8116989 C61.6460428,66.9920458 61.4802576,67.1549054 61.2973519,67.2970055 C61.1162096,67.4384322 60.9481443,67.5687191 60.7931562,67.6878662 C60.6472291,67.7964595 60.5093197,67.9154306 60.3805002,68.0438546 C60.2703323,68.148685 60.1969488,68.286279 60.1712663,68.4361683 L60.0070757,69.4314828 L58.8533827,69.4314828 L58.7371416,68.3184742 C58.7330087,68.2993532 58.7305775,68.2799037 58.7298766,68.2603537 L58.7298766,68.2022331 C58.7240457,68.0176145 58.7747409,67.8356187 58.8751779,67.6806012 C58.9812284,67.5256947 59.107278,67.3854767 59.2500555,67.2635862 C59.3953569,67.134268 59.5624535,67.0078558 59.7353621,66.8843496 C59.9063236,66.7627315 60.0684948,66.6292073 60.2206687,66.4847708 C60.3695678,66.3419004 60.4959613,66.1772949 60.5955463,65.9965582 C60.697966,65.7983784 60.7479854,65.5772926 60.7408477,65.3543261 C60.742915,65.2040461 60.7116522,65.0551755 60.6493078,64.9184219 C60.588934,64.7900243 60.5017304,64.6760649 60.3935774,64.5842288 C60.277788,64.4872801 60.1439636,64.4141952 59.9998106,64.3691827 C59.8403054,64.3174463 59.6734633,64.2919293 59.5057859,64.293626 C59.2828355,64.2888448 59.0604405,64.3177463 58.8461177,64.3793538 C58.6875214,64.4272012 58.5341738,64.4909744 58.3884183,64.5696986 C58.2634591,64.6408963 58.1573891,64.7048289 58.0716613,64.7614964 C58.0040917,64.8119598 57.9233344,64.841739 57.8391791,64.8472243 C57.6929507,64.850812 57.5581936,64.7683658 57.4948148,64.6365373 L57.0501926,63.9376376 Z M58.3404689,71.9887871 C58.3398163,71.8507631 58.3664827,71.7139743 58.4189316,71.5863022 C58.468826,71.4629818 58.543502,71.351215 58.6383367,71.2579211 C58.7338156,71.1647581 58.8462759,71.0907711 58.9696238,71.0399691 C59.359079,70.8767805 59.8083909,70.9626363 60.1102397,71.2579211 C60.2027405,71.3528258 60.2766636,71.4642033 60.3281917,71.5863022 C60.4366051,71.8451866 60.4366051,72.1367466 60.3281917,72.3956309 C60.2758988,72.5160204 60.2020335,72.6258336 60.1102397,72.719653 C60.016338,72.8126682 59.9046545,72.8858061 59.7818586,72.934699 C59.5212295,73.0393665 59.2302529,73.0393665 58.9696238,72.934699 C58.8462042,72.8853525 58.7336535,72.8122932 58.6383367,72.719653 C58.54424,72.6274291 58.4696289,72.5172419 58.4189316,72.3956309 C58.3659149,72.2666036 58.3392376,72.1282765 58.3404689,71.9887871 L58.3404689,71.9887871 Z" id="Shape" fill="#42417D"></path>
                <rect id="Rectangle" fill="url(#linearGradient-47)" transform="translate(231.681382, 97.532043) rotate(180.000000) translate(-231.681382, -97.532043) " x="228.82403" y="90.5059949" width="5.71470326" height="14.0520964" rx="2.85735163"></rect>
                <rect id="Rectangle" fill="url(#linearGradient-48)" x="156.613604" y="33.8907654" width="37.7551104" height="3.10654349" rx="0.898800026"></rect>
                <rect id="Rectangle" fill="url(#linearGradient-49)" x="152.549524" y="222.380074" width="122.605304" height="1.91797821"></rect>
                <rect id="Rectangle" fill="url(#linearGradient-50)" x="152.549524" y="57.2145428" width="122.605304" height="3.15739898"></rect>
                <rect id="Rectangle" fill="url(#linearGradient-51)" x="114.434066" y="33.8907654" width="31.3734739" height="19.6389345" rx="2.76316808"></rect>
                <path d="M144.244097,33.8907654 L115.997509,33.8907654 C115.134044,33.8907654 114.434066,34.5907426 114.434066,35.4542082 L128.516676,42.8645786 C129.520715,43.393416 130.720891,43.393416 131.724931,42.8645786 L145.80754,35.4542082 C145.80754,34.5907426 145.107563,33.8907654 144.244097,33.8907654 L144.244097,33.8907654 Z" id="Path" fill="url(#linearGradient-52)"></path>
                <path d="M49.2024651,272.901364 L21.9526444,272.901364 C21.2014573,272.89892 20.4875862,272.573602 19.9929037,272.00829 C19.4982212,271.442979 19.2704914,270.692257 19.3677329,269.947386 L24.3835365,232.47852 C24.5561839,231.183832 25.6608471,230.217097 26.966995,230.21763 L54.2168157,230.21763 C54.9680028,230.220074 55.681874,230.545392 56.1765565,231.110703 C56.6712389,231.676015 56.8989687,232.426737 56.8017273,233.171607 L51.7844706,270.639021 C51.6119604,271.933416 50.5083044,272.900434 49.2024651,272.901364 L49.2024651,272.901364 Z" id="Path" fill="#353967"></path>
                <path d="M23.2138604,264.547987 L14.3315871,264.547987 L18.3041268,226.91493 C18.5627632,224.462243 20.7611731,222.473067 23.2138604,222.473067 L23.2138604,222.473067 C25.6665477,222.473067 27.4450366,224.462243 27.1864001,226.91493 L23.2138604,264.547987 Z" id="Path" fill="url(#linearGradient-53)"></path>
                <path d="M56.8017273,233.17306 L40.8011394,233.17306 C40.3755091,233.17306 40.0160525,233.489098 39.9612974,233.911191 L36.551074,260.392368 C36.5201875,260.633735 36.5945887,260.876729 36.7553179,261.059426 C36.916047,261.242123 37.1475805,261.346998 37.390916,261.346998 L53.0297034,261.346998 L56.8017273,233.17306 Z" id="Path" fill="#2A305B"></path>
                <path d="M55.8645334,262.852321 L39.0473517,262.852321 C38.8041459,262.852623 38.5725833,262.7482 38.4118018,262.565722 C38.2510202,262.383243 38.1765864,262.140375 38.2075097,261.899143 L41.6133741,235.416514 C41.6674524,234.994646 42.0264437,234.678383 42.451763,234.678383 L59.2747567,234.678383 C59.5180922,234.678383 59.7496257,234.783257 59.9103548,234.965954 C60.071084,235.148652 60.1454852,235.391645 60.1145987,235.633013 L56.7029223,262.114189 C56.6494525,262.536379 56.2900959,262.852763 55.8645334,262.852321 L55.8645334,262.852321 Z" id="Path" fill="url(#linearGradient-54)"></path>
                <path d="M24.0319071,248.216112 L60.357252,248.216112 L60.357252,278.293498 C60.357252,279.675364 59.2370283,280.795587 57.8551623,280.795587 L24.0319071,280.795587 L24.0319071,248.216112 Z" id="Path" fill="url(#linearGradient-55)"></path>
                <polygon id="Path" fill="url(#linearGradient-56)" points="60.357252 262.853773 60.357252 248.216112 50.661291 248.216112 52.0271239 262.853773"></polygon>
                <path d="M14.3315871,248.216112 L50.6569319,248.216112 L50.6569319,280.799947 L15.9778517,280.799947 C15.0678424,280.799947 14.330134,280.062238 14.330134,279.152229 L14.330134,248.216112 L14.3315871,248.216112 Z" id="Path" fill="#FCB0AA"></path>
                <path d="M14.3315871,263.82294 L42.5607391,263.82294 C43.9521732,263.825788 45.1979169,262.961075 45.6818127,261.65649 L50.667103,248.216112 L14.3417581,248.216112 L14.3315871,263.82294 Z" id="Path" fill="url(#linearGradient-57)"></path>
                <path d="M42.8092044,260.985198 L9.36373289,260.985198 C8.92622638,260.985467 8.52122617,260.754255 8.29903619,260.377368 C8.07684622,260.000482 8.07062852,259.534171 8.28269062,259.151494 L14.3315871,248.216112 L50.6569319,248.216112 L43.9730685,260.293563 C43.7387173,260.717599 43.293681,260.982065 42.8092044,260.985198 L42.8092044,260.985198 Z" id="Path" fill="url(#linearGradient-58)"></path>
                <path d="M62.1168517,260.985214 L54.2080976,260.985214 C53.7992566,260.98537 53.4452138,260.70141 53.3566316,260.302281 L50.661291,248.216112 L60.357252,248.216112 L62.9726768,259.921591 C63.031172,260.18094 62.9681278,260.452807 62.8014579,260.659942 C62.634788,260.867076 62.3827106,260.986838 62.1168517,260.985214 L62.1168517,260.985214 Z" id="Path" fill="url(#linearGradient-59)"></path>
                <path d="M56.7087344,239.124605 L44.5789752,239.124605 C44.1837555,239.124605 43.8771696,238.951696 43.923666,238.755539 L43.9585383,238.610238 C43.9977697,238.443141 44.2796544,238.319635 44.6138475,238.319635 L56.7450597,238.319635 C57.1388265,238.319635 57.4454124,238.492544 57.4003689,238.688701 L57.3654966,238.834002 C57.3262652,238.998193 57.0443806,239.124605 56.7087344,239.124605 Z" id="Path" fill="url(#linearGradient-60)"></path>
                <path d="M56.1057337,242.085847 L43.9759745,242.085847 C43.5807547,242.085847 43.2741688,241.914391 43.3206653,241.718234 L43.3555376,241.572933 C43.394769,241.405836 43.6766537,241.28233 44.0108468,241.28233 L56.143512,241.28233 C56.5387318,241.28233 56.8453177,241.453786 56.8002742,241.649943 L56.7654019,241.795244 C56.7247175,241.960888 56.4413798,242.085847 56.1057337,242.085847 Z" id="Path" fill="url(#linearGradient-61)"></path>
                <path d="M55.6029909,245.048542 L43.4732317,245.048542 C43.078012,245.048542 42.7714261,244.877086 42.8179225,244.68093 L42.8527948,244.535628 C42.8905732,244.368532 43.1724579,244.245025 43.5081041,244.245025 L55.6378632,244.245025 C56.033083,244.245025 56.3396689,244.416481 56.2946254,244.612638 L56.2583001,244.757939 C56.2205217,244.923583 55.9386371,245.048542 55.6029909,245.048542 Z" id="Path" fill="url(#linearGradient-62)"></path>
            </g>
            <g id="Group-14" opacity="0.363071987" transform="translate(38.000000, 134.199989) scale(-1, -1) rotate(90.000000) translate(-38.000000, -134.199989) translate(11.000000, 96.199989)" fill="#0000FF">
                <rect id="Rectangle" opacity="0.1" x="22.6058691" y="44.5667002" width="30.7894792" height="30.7894792" rx="3.78623961"></rect>
                <rect id="Rectangle" opacity="0.1" x="3.55271368e-15" y="-1.56319402e-13" width="36.53245" height="57.950005" rx="5.7446394"></rect>
            </g>
        </g>
    </g>
</svg>