<?xml version="1.0" encoding="UTF-8"?>
<svg width="180px" height="180px" viewBox="0 0 180 180" version="1.1" xmlns="http://www.w3.org/2000/svg" xmlns:xlink="http://www.w3.org/1999/xlink">
    <!-- Generator: Sketch 56.3 (81716) - https://sketch.com -->
    <title>machine</title>
    <desc>Created with Sketch.</desc>
    <defs>
        <linearGradient x1="49.9974966%" y1="-50.7255813%" x2="49.9974966%" y2="109.851272%" id="linearGradient-1">
            <stop stop-color="#F0A763" offset="0%"></stop>
            <stop stop-color="#F07295" offset="100%"></stop>
        </linearGradient>
        <linearGradient x1="27.9442579%" y1="20.3136584%" x2="100%" y2="94.0996243%" id="linearGradient-2">
            <stop stop-color="#FF98EF" offset="0%"></stop>
            <stop stop-color="#A04CFF" offset="100%"></stop>
        </linearGradient>
        <linearGradient x1="44.5756912%" y1="20.5710457%" x2="44.5756912%" y2="69.5877157%" id="linearGradient-3">
            <stop stop-color="#FFE552" offset="0%"></stop>
            <stop stop-color="#FFC700" offset="100%"></stop>
        </linearGradient>
        <linearGradient x1="-19.9315654%" y1="-21.5996578%" x2="240.60358%" y2="308.725833%" id="linearGradient-4">
            <stop stop-color="#4F9BFC" offset="0%"></stop>
            <stop stop-color="#363DAD" offset="100%"></stop>
        </linearGradient>
        <linearGradient x1="110.965796%" y1="-2.19366489%" x2="-34.6083836%" y2="100.202241%" id="linearGradient-5">
            <stop stop-color="#C6FFB5" offset="0%"></stop>
            <stop stop-color="#89D83E" offset="100%"></stop>
        </linearGradient>
        <linearGradient x1="0%" y1="-10.7040777%" x2="100%" y2="100%" id="linearGradient-6">
            <stop stop-color="#3FC0FA" offset="0%"></stop>
            <stop stop-color="#42DCF4" offset="100%"></stop>
        </linearGradient>
    </defs>
    <g id="machine" stroke="none" stroke-width="1" fill="none" fill-rule="evenodd">
        <circle id="Oval" fill="#FAF7FF" cx="90" cy="90" r="80"></circle>
        <g id="iconfinder_neural-network-machine-learning-algorithm_3822668" transform="translate(39.000000, 35.000000)" fill-rule="nonzero">
            <path d="M27,75.5 C27,77.5178571 26.5357143,79.4107143 25.6785714,81.0892857 C23.6428571,85.1964286 19.3928571,88 14.5,88 C7.58928571,88 2,82.4107143 2,75.5 C2,68.5892857 7.58928571,63 14.5,63 C17.0178571,63 19.3392857,63.7321429 21.2857143,65 C24.7321429,67.2321429 27,71.0892857 27,75.5 Z" id="Path" fill="url(#linearGradient-1)"></path>
            <path d="M63.9821429,85.375 C65.875,87.5535714 67,90.3928571 67,93.5 C67,100.410714 61.4107143,106 54.5,106 C47.5892857,106 42,100.410714 42,93.5 C42,92.0535714 42.25,90.6785714 42.6964286,89.3928571 C43.5535714,86.875 45.1964286,84.75 47.3392857,83.25 C49.3571429,81.8214286 51.8214286,81 54.5,81 C58.3035714,81 61.7142857,82.6964286 63.9821429,85.375 Z" id="Path" fill="url(#linearGradient-2)"></path>
            <path d="M93.5,42 C100.410714,42 106,47.5892857 106,54.5 C106,61.4107143 100.410714,67 93.5,67 C90.1428571,67 87.1071429,65.6964286 84.875,63.5178571 C82.4821429,61.2678571 81,58.0535714 81,54.5 C81,53.9285714 81.0357143,53.375 81.125,52.8214286 C81.4821429,50.0357143 82.7678571,47.5535714 84.6607143,45.6607143 C86.9285714,43.3928571 90.0357143,42 93.5,42 Z" id="Path" fill="url(#linearGradient-3)"></path>
            <path d="M66.875,50.1785714 C66.0714286,56.2857143 60.8392857,61 54.5,61 C47.5892857,61 42,55.4107143 42,48.5 C42,46.4821429 42.4642857,44.5892857 43.3214286,42.9107143 C45.3571429,38.8035714 49.6071429,36 54.5,36 C61.4107143,36 67,41.5892857 67,48.5 C67,49.0714286 66.9642857,49.625 66.875,50.1785714 Z" id="Path" fill="url(#linearGradient-4)"></path>
            <path d="M54.5,2 C61.4107143,2 67,7.58928571 67,14.5 C67,17.9642857 65.6071429,21.0714286 63.3392857,23.3392857 C61.0714286,25.6071429 57.9642857,27 54.5,27 C51.9821429,27 49.6607143,26.2678571 47.7142857,25 C45.4464286,23.5357143 43.6785714,21.3571429 42.75,18.7678571 C42.2678571,17.4464286 42,16 42,14.5 C42,7.58928571 47.5892857,2 54.5,2 Z" id="Path" fill="url(#linearGradient-5)"></path>
            <path d="M26.25,24.2321429 C26.7321429,25.5535714 27,27 27,28.5 C27,30.5178571 26.5357143,32.4107143 25.6785714,34.0892857 C24.6071429,36.2321429 22.9464286,38.0178571 20.8928571,39.2321429 C19.0357143,40.3571429 16.8392857,41 14.5,41 C7.58928571,41 2,35.4107143 2,28.5 C2,21.5892857 7.58928571,16 14.5,16 C19.9107143,16 24.5,19.4285714 26.25,24.2321429 Z" id="Path" fill="url(#linearGradient-6)"></path>
            <path d="M20.6352,62.64 C18.7452,61.7274 16.6356,61.2 14.4,61.2 C6.4602,61.2 0,67.6602 0,75.6 C0,83.5398 6.4602,90 14.4,90 C19.3824,90 23.7798,87.4548 26.3664,83.5974 L39.969,90.4068 C39.735,91.4346 39.6,92.502 39.6,93.6 C39.6,101.5398 46.0602,108 54,108 C61.9398,108 68.4,101.5398 68.4,93.6 C68.4,90.6156 67.4874,87.8418 65.925,85.5396 L85.0392,65.5542 C87.4368,67.3326 90.3924,68.4 93.6,68.4 C101.5398,68.4 108,61.9398 108,54 C108,46.0602 101.5398,39.6 93.6,39.6 C90.2772,39.6 87.2244,40.7412 84.7836,42.6384 L65.3616,23.2164 C67.2588,20.7756 68.4,17.7228 68.4,14.4 C68.4,6.4602 61.9398,0 54,0 C46.0602,0 39.6,6.4602 39.6,14.4 C39.6,15.4944 39.7332,16.5582 39.9672,17.5842 L27.2016,22.2354 C24.8076,17.5896 19.9746,14.4 14.4,14.4 C6.4602,14.4 0,20.8602 0,28.8 C0,36.7398 6.4602,43.2 14.4,43.2 C16.4484,43.2 18.3942,42.7644 20.16,41.9886 L26.7858,53.1396 L20.6352,62.64 Z M14.4,86.4 C8.4438,86.4 3.6,81.5562 3.6,75.6 C3.6,69.6438 8.4438,64.8 14.4,64.8 C20.3562,64.8 25.2,69.6438 25.2,75.6 C25.2,81.5562 20.3562,86.4 14.4,86.4 Z M27.9702,80.3718 C28.4976,78.876 28.8,77.274 28.8,75.6 C28.8,71.1846 26.7984,67.2318 23.661,64.5894 L28.8378,56.5938 L44.4456,82.8576 C43.1316,84.0276 42.0318,85.428 41.2164,87.003 L27.9702,80.3718 Z M54,28.8 C57.3228,28.8 60.3756,27.6588 62.8164,25.7616 L82.2402,45.1854 C81.0756,46.683 80.2044,48.4128 79.7022,50.2956 L68.3946,48.7404 C68.3928,48.6936 68.4,48.6468 68.4,48.6 C68.4,40.6602 61.9398,34.2 54,34.2 C49.0176,34.2 44.6184,36.7452 42.0336,40.6026 L39.8862,39.5298 L47.7666,27.36 C49.6548,28.2726 51.7644,28.8 54,28.8 Z M55.8,79.3242 L55.8,62.874 C61.65,62.1396 66.4092,57.888 67.8996,52.3044 L79.2072,53.8596 C79.2072,53.9064 79.2,53.9532 79.2,54 C79.2,57.438 80.4132,60.5934 82.431,63.072 L63.531,82.8342 C61.4124,80.9568 58.7466,79.695 55.8,79.3242 Z M54,37.8 C59.9562,37.8 64.8,42.6438 64.8,48.6 C64.8,54.5562 59.9562,59.4 54,59.4 C48.0438,59.4 43.2,54.5562 43.2,48.6 C43.2,42.6438 48.0438,37.8 54,37.8 Z M40.4298,43.8282 C39.9024,45.324 39.6,46.926 39.6,48.6 C39.6,55.9296 45.108,61.9848 52.2,62.8758 L52.2,79.326 C50.4936,79.5402 48.8826,80.0514 47.4156,80.8092 L31.0212,53.2206 L37.917,42.5718 L40.4298,43.8282 Z M54,104.4 C48.0438,104.4 43.2,99.5562 43.2,93.6 C43.2,87.6438 48.0438,82.8 54,82.8 C59.9562,82.8 64.8,87.6438 64.8,93.6 C64.8,99.5562 59.9562,104.4 54,104.4 Z M93.6,43.2 C99.5562,43.2 104.4,48.0438 104.4,54 C104.4,59.9562 99.5562,64.8 93.6,64.8 C87.6438,64.8 82.8,59.9562 82.8,54 C82.8,48.0438 87.6438,43.2 93.6,43.2 Z M54,3.6 C59.9562,3.6 64.8,8.4438 64.8,14.4 C64.8,20.3562 59.9562,25.2 54,25.2 C48.0438,25.2 43.2,20.3562 43.2,14.4 C43.2,8.4438 48.0438,3.6 54,3.6 Z M41.1984,20.9646 C42.0786,22.6728 43.2828,24.183 44.739,25.4106 L36.6462,37.9098 L27.9702,33.5718 C28.4976,32.076 28.8,30.474 28.8,28.8 C28.8,27.7056 28.6668,26.6418 28.4328,25.6158 L41.1984,20.9646 Z M3.6,28.8 C3.6,22.8438 8.4438,18 14.4,18 C20.3562,18 25.2,22.8438 25.2,28.8 C25.2,34.7562 20.3562,39.6 14.4,39.6 C8.4438,39.6 3.6,34.7562 3.6,28.8 Z M23.247,40.1382 C24.453,39.195 25.5114,38.0718 26.3664,36.7974 L34.677,40.9518 L28.9692,49.7664 L23.247,40.1382 Z" id="Shape" fill="#616799"></path>
        </g>
    </g>
</svg>