<?xml version="1.0" encoding="UTF-8"?>
<svg width="180px" height="180px" viewBox="0 0 180 180" version="1.1" xmlns="http://www.w3.org/2000/svg" xmlns:xlink="http://www.w3.org/1999/xlink">
    <!-- Generator: Sketch 56.3 (81716) - https://sketch.com -->
    <title>blockchain</title>
    <desc>Created with Sketch.</desc>
    <defs>
        <linearGradient x1="-151.961322%" y1="60.3003703%" x2="161.493622%" y2="44.3149088%" id="linearGradient-1">
            <stop stop-color="#F07B76" offset="0%"></stop>
            <stop stop-color="#F0DB79" offset="100%"></stop>
        </linearGradient>
        <linearGradient x1="45.9116827%" y1="68.9823875%" x2="110.162144%" y2="-193.460535%" id="linearGradient-2">
            <stop stop-color="#F07B76" offset="0%"></stop>
            <stop stop-color="#F0DB79" offset="100%"></stop>
        </linearGradient>
        <linearGradient x1="105.034687%" y1="50%" x2="247.792711%" y2="50%" id="linearGradient-3">
            <stop stop-color="#F07B76" offset="0%"></stop>
            <stop stop-color="#F0DB79" offset="100%"></stop>
        </linearGradient>
    </defs>
    <g id="blockchain" stroke="none" stroke-width="1" fill="none" fill-rule="evenodd">
        <g id="Group-2" transform="translate(10.000000, 10.000000)">
            <circle id="Oval" fill="#FAF7FF" cx="80" cy="80" r="80"></circle>
            <g id="iconfinder_bitcoin_mine_3250115" transform="translate(9.660764, 20.000000)" fill-rule="nonzero">
                <path d="M50.3596911,52 L32.6273695,52 C31.9147334,52 31.2460872,51.6083046 30.8985671,50.9789514 L20.9480558,32.9433601 L14.3055835,32.9433601 C13.2146344,32.9433601 12.3392358,32.0587447 12.3392358,30.9716801 C12.3392358,29.8846154 13.2146344,29 14.3055835,29 L22.1181866,29 C22.8396207,29 23.4994689,29.3916954 23.846989,30.0210486 L33.7975004,48.0566399 L50.3640901,48.0566399 C51.4550392,48.0566399 52.3392358,48.9412553 52.3392358,50.0283199 C52.3392358,51.1153846 51.4506402,52 50.3596911,52 Z" id="Path" fill="#E5E5FF"></path>
                <path d="M22.1148627,91 L14.3057998,91 C13.2147307,91 12.3392358,90.1196172 12.3392358,89.0279426 C12.3392358,87.9406699 13.2147307,87.0602871 14.3057998,87.0602871 L20.9490026,87.0602871 L30.9006084,69.0124402 C31.2437672,68.3829665 31.912487,68 32.6296009,68 L50.3638728,68 C51.4549419,68 52.3392358,68.8803828 52.3392358,69.9676555 C52.3392358,71.0593301 51.4549419,71.935311 50.3638728,71.935311 L33.7910616,71.935311 L23.8394558,89.9831579 C23.5006964,90.6082297 22.8363761,91 22.1148627,91 Z" id="Path" fill="#E5E5FF"></path>
                <path d="M54.4144411,60.79 L15.2640305,60.79 C14.1961354,60.79 13.3392358,59.99 13.3392358,58.998 C13.3392358,58.014 14.1961354,57.21 15.2640305,57.21 L54.4144411,57.21 C55.4823361,57.21 56.3392358,58.014 56.3392358,58.998 C56.3392358,59.99 55.4823361,60.79 54.4144411,60.79 Z" id="Path" fill="#E5E5FF"></path>
                <path d="M107.040072,52 L89.3057998,52 C88.2235297,52 87.3392358,51.1153846 87.3392358,50.0283199 C87.3392358,48.9412553 88.2235297,48.0566399 89.3057998,48.0566399 L105.883011,48.0566399 L115.834616,30.0210486 C116.177775,29.3872943 116.842095,29 117.563609,29 L125.372672,29 C126.454942,29 127.339236,29.8846154 127.339236,30.9716801 C127.339236,32.0587447 126.454942,32.9433601 125.372672,32.9433601 L118.72067,32.9433601 L108.769064,50.9789514 C108.421506,51.6083046 107.761585,52 107.040072,52 Z" id="Path" fill="#E5E5FF"></path>
                <path d="M125.377056,91 L117.563597,91 C116.842083,91 116.182163,90.6082297 115.834605,89.9831579 L105.883003,71.935311 L89.305799,71.935311 C88.2235293,71.935311 87.3392358,71.0593301 87.3392358,69.9676555 C87.3392358,68.8803828 88.2235293,68 89.305799,68 L107.040064,68 C107.761577,68 108.421497,68.3873684 108.769055,69.0124402 L118.720657,87.0602871 L125.372656,87.0602871 C126.454926,87.0602871 127.339236,87.9406699 127.339236,89.0279426 C127.343619,90.1196172 126.459325,91 125.377056,91 Z" id="Path" fill="#E5E5FF"></path>
                <path d="M124.414826,60.79 L85.2722554,60.79 C84.2045742,60.79 83.3392358,59.99 83.3392358,58.998 C83.3392358,58.014 84.2045742,57.21 85.2722554,57.21 L124.414826,57.21 C125.473897,57.21 126.339236,58.014 126.339236,58.998 C126.339236,59.99 125.473897,60.79 124.414826,60.79 Z" id="Path" fill="#E5E5FF"></path>
                <path d="M69.3432284,40 C68.3512284,40 67.5472284,39.1144414 67.5472284,38.0163488 L67.5472284,15.9792234 C67.5472284,14.8811308 68.3512284,14 69.3432284,14 C70.3272284,14 71.1312284,14.8811308 71.1312284,15.9792234 L71.1312284,38.0163488 C71.1352284,39.1144414 70.3312284,40 69.3432284,40 Z" id="Path" fill="#E5E5FF"></path>
                <path d="M69.3432284,106 C68.3512284,106 67.5472284,105.110165 67.5472284,104.016687 L67.5472284,81.9788864 C67.5472284,80.8898348 68.3512284,80 69.3432284,80 C70.3272284,80 71.1312284,80.8898348 71.1312284,81.9788864 L71.1312284,104.016687 C71.1352284,105.110165 70.3312284,106 69.3432284,106 Z" id="Path" fill="#E5E5FF"></path>
                <path d="M8.83923579,40 C4.14928168,40 0.339235788,36.1875637 0.339235788,31.5043323 C0.339235788,26.8167686 4.14928168,23 8.83923579,23 C13.5205208,23 17.3392358,26.8167686 17.3392358,31.5043323 C17.3392358,36.1875637 13.5248554,40 8.83923579,40 Z M8.83923579,28.1814475 C7.010067,28.1814475 5.51032197,29.6717635 5.51032197,31.5086646 C5.51032197,33.3369011 7.010067,34.8272171 8.83923579,34.8272171 C10.6684046,34.8272171 12.1594806,33.3369011 12.1594806,31.5086646 C12.1594806,29.6674312 10.6684046,28.1814475 8.83923579,28.1814475 Z" id="Shape" fill="#616799"></path>
                <path d="M68.8413981,17 C64.1502509,17 60.3392358,13.1899541 60.3392358,8.5 C60.3392358,3.81438042 64.1502509,0 68.8413981,0 C73.523874,0 77.3392358,3.81438042 77.3392358,8.5 C77.3435604,13.1899541 73.523874,17 68.8413981,17 Z M68.8413981,5.17108618 C67.011764,5.17108618 65.5116374,6.66649669 65.5116374,8.5 C65.5116374,10.3378378 67.011764,11.8289138 68.8413981,11.8289138 C70.6710322,11.8289138 72.1581613,10.3378378 72.1581613,8.5 C72.1624875,6.66649669 70.6710322,5.17108618 68.8413981,5.17108618 Z" id="Shape" fill="#616799"></path>
                <path d="M68.8413981,120 C64.1502509,120 60.3392358,116.183231 60.3392358,111.495668 C60.3392358,106.812436 64.1502509,103 68.8413981,103 C73.523874,103 77.3392358,106.812436 77.3392358,111.495668 C77.3435604,116.183231 73.523874,120 68.8413981,120 Z M68.8413981,108.181448 C67.011764,108.181448 65.5116374,109.671764 65.5116374,111.5 C65.5116374,113.336901 67.011764,114.827217 68.8413981,114.827217 C70.6710322,114.827217 72.1581613,113.336901 72.1581613,111.5 C72.1624875,109.667431 70.6710322,108.181448 68.8413981,108.181448 Z" id="Shape" fill="#616799"></path>
                <path d="M8.83923579,68 C4.14928168,68 0.339235788,64.1865919 0.339235788,59.5021667 C0.339235788,54.8134081 4.14928168,51 8.83923579,51 C13.5205208,51 17.3392358,54.8134081 17.3392358,59.5021667 C17.3392358,64.1865919 13.5248554,68 8.83923579,68 Z M8.83923579,56.1741015 C7.010067,56.1741015 5.51032197,57.6691308 5.51032197,59.5021667 C5.51032197,61.3352027 7.010067,62.8258985 8.83923579,62.8258985 C10.6684046,62.8258985 12.1594806,61.3352027 12.1594806,59.5021667 C12.1594806,57.6691308 10.6684046,56.1741015 8.83923579,56.1741015 Z" id="Shape" fill="#616799"></path>
                <path d="M8.83923579,97 C4.14928168,97 0.339235788,93.1899541 0.339235788,88.5 C0.339235788,83.8143804 4.14928168,80 8.83923579,80 C13.5205208,80 17.3392358,83.8143804 17.3392358,88.5 C17.3392358,93.1899541 13.5248554,97 8.83923579,97 Z M8.83923579,85.1710862 C7.010067,85.1710862 5.51032197,86.6664967 5.51032197,88.5 C5.51032197,90.3378378 7.010067,91.8289138 8.83923579,91.8289138 C10.6684046,91.8289138 12.1594806,90.3378378 12.1594806,88.5 C12.1594806,86.6664967 10.6684046,85.1710862 8.83923579,85.1710862 Z" id="Shape" fill="#616799"></path>
                <path d="M130.839236,40 C126.149282,40 122.339236,36.1875637 122.339236,31.5043323 C122.339236,26.8167686 126.149282,23 130.839236,23 C135.520521,23 139.339236,26.8167686 139.339236,31.5043323 C139.339236,36.1875637 135.520521,40 130.839236,40 Z M130.839236,28.1814475 C129.010067,28.1814475 127.510322,29.6717635 127.510322,31.5086646 C127.510322,33.3369011 129.010067,34.8272171 130.839236,34.8272171 C132.668405,34.8272171 134.159481,33.3369011 134.159481,31.5086646 C134.159481,29.6674312 132.668405,28.1814475 130.839236,28.1814475 Z" id="Shape" fill="#616799"></path>
                <path d="M130.839236,68 C126.149282,68 122.339236,64.1865919 122.339236,59.5021667 C122.339236,54.8134081 126.149282,51 130.839236,51 C135.520521,51 139.339236,54.8134081 139.339236,59.5021667 C139.339236,64.1865919 135.520521,68 130.839236,68 Z M130.839236,56.1741015 C129.010067,56.1741015 127.510322,57.6691308 127.510322,59.5021667 C127.510322,61.3352027 129.010067,62.8258985 130.839236,62.8258985 C132.668405,62.8258985 134.159481,61.3352027 134.159481,59.5021667 C134.159481,57.6691308 132.668405,56.1741015 130.839236,56.1741015 Z" id="Shape" fill="#616799"></path>
                <path d="M130.839236,97 C126.149282,97 122.339236,93.1899541 122.339236,88.5 C122.339236,83.8143804 126.149282,80 130.839236,80 C135.520521,80 139.339236,83.8143804 139.339236,88.5 C139.339236,93.1899541 135.520521,97 130.839236,97 Z M130.839236,85.1710862 C129.010067,85.1710862 127.510322,86.6664967 127.510322,88.5 C127.510322,90.3378378 129.010067,91.8289138 130.839236,91.8289138 C132.668405,91.8289138 134.159481,90.3378378 134.159481,88.5 C134.159481,86.6664967 132.668405,85.1710862 130.839236,85.1710862 Z" id="Shape" fill="#616799"></path>
                <g id="Group" transform="translate(42.339236, 33.000000)">
                    <path d="M55.7156923,28 C55.7156923,43.3052308 43.2966154,55.7156923 27.9956923,55.7156923 C12.6990769,55.7156923 0.28,43.3052308 0.28,28 C0.28,12.6904615 12.6990769,0.28 27.9956923,0.28 C43.2966154,0.28 55.7156923,12.6904615 55.7156923,28 Z" id="Path" fill="url(#linearGradient-1)"></path>
                    <path d="M55.5778462,30.8301538 L31.1015385,12.1950769 L28.6116923,12.1950769 L28.6116923,15.4861538 L24.7089231,12.1950769 L22.2276923,12.1950769 L22.2276923,15.5895385 L18.928,15.5895385 L18.928,18.3723077 L22.2276923,21.336 L22.2276923,38.0153846 L18.928,38.0153846 L18.928,40.7938462 L30.1107692,55.6252308 C43.4990769,54.6172308 54.2252308,44.1064615 55.5778462,30.8301538 Z" id="Path" fill="url(#linearGradient-2)" opacity="0.40062314"></path>
                    <path d="M27.9956923,52.5107692 C14.4824615,52.5107692 3.48923077,41.5132308 3.48923077,28 C3.48923077,14.4867692 14.4867692,3.48061538 27.9956923,3.48061538 C41.5218462,3.48061538 52.5107692,14.4867692 52.5107692,28 C52.5107692,41.5132308 41.5218462,52.5107692 27.9956923,52.5107692 Z M27.9956923,6.68123077 C16.2486154,6.68123077 6.67692308,16.2443077 6.67692308,28 C6.67692308,39.7556923 16.2529231,49.3187692 27.9956923,49.3187692 C39.7470769,49.3187692 49.3144615,39.7556923 49.3144615,28 C49.3144615,16.2443077 39.7470769,6.68123077 27.9956923,6.68123077 Z" id="Shape" fill="#FADC14"></path>
                    <path d="M37.0633846,34.0436923 C37.0633846,31.1230769 35.9003077,29.0726154 33.5483077,27.9095385 C35.6418462,26.5612308 36.68,24.6443077 36.68,22.1630769 C36.68,20.0695385 36.0338462,18.4541538 34.7286154,17.3083077 C33.8110769,16.4984615 32.6006154,15.9686154 31.1101538,15.736 L31.1101538,12.1950769 L28.6203077,12.1950769 L28.6203077,15.5895385 L25.5144615,15.5895385 L24.7132308,15.5895385 L24.7132308,12.1950769 L22.232,12.1950769 L22.232,15.5895385 L18.9323077,15.5895385 L18.9323077,18.3723077 L22.232,18.3723077 L22.232,38.0196923 L18.9323077,38.0196923 L18.9323077,40.7981538 L22.232,40.7981538 L22.232,43.8092308 L24.7132308,43.8092308 L24.7132308,40.7938462 L28.616,40.7938462 L28.616,43.8049231 L31.1058462,43.8049231 L31.1058462,40.7335385 C35.0775385,40.3544615 37.0633846,38.136 37.0633846,34.0436923 Z M25.6781538,18.3723077 L29.8523077,18.3723077 C31.9975385,18.3723077 33.0658462,19.5913846 33.0658462,22.0424615 C33.0658462,24.5236923 32.1224615,25.76 30.2486154,25.76 L25.6824615,25.76 L25.6824615,18.3723077 L25.6781538,18.3723077 Z M30.5243077,38.1230769 L25.6781538,38.1230769 L25.6781538,29.7316923 L29.9686154,29.7316923 C31.4547692,29.7316923 32.48,30.1495385 33.0270769,30.9852308 C33.4750769,31.6313846 33.69909,32.6523077 33.69909,34.048 C33.7033846,36.7618462 32.6436923,38.1230769 30.5243077,38.1230769 Z" id="Shape" fill="url(#linearGradient-3)"></path>
                </g>
            </g>
        </g>
    </g>
</svg>