<?xml version="1.0" encoding="UTF-8"?>
<svg width="180px" height="180px" viewBox="0 0 180 180" version="1.1" xmlns="http://www.w3.org/2000/svg" xmlns:xlink="http://www.w3.org/1999/xlink">
    <!-- Generator: Sketch 56.3 (81716) - https://sketch.com -->
    <title>vr</title>
    <desc>Created with Sketch.</desc>
    <defs>
        <linearGradient x1="1.01514486%" y1="56.5190843%" x2="75.1152327%" y2="44.9677824%" id="linearGradient-1">
            <stop stop-color="#DE79A2" offset="0%"></stop>
            <stop stop-color="#F795B2" offset="93%"></stop>
        </linearGradient>
        <linearGradient x1="2.24366875%" y1="83.8521496%" x2="74.485351%" y2="23.8688171%" id="linearGradient-2">
            <stop stop-color="#DE79A2" offset="0%"></stop>
            <stop stop-color="#F795B2" offset="93%"></stop>
        </linearGradient>
        <linearGradient x1="46.4532228%" y1="-197.715189%" x2="51.6775745%" y2="167.169612%" id="linearGradient-3">
            <stop stop-color="#FFFFFF" offset="0%"></stop>
            <stop stop-color="#AAD7FF" offset="100%"></stop>
        </linearGradient>
        <linearGradient x1="55.1374843%" y1="108.148316%" x2="44.7035859%" y2="19.6070394%" id="linearGradient-4">
            <stop stop-color="#FC9250" offset="0%"></stop>
            <stop stop-color="#FBE6D1" offset="100%"></stop>
        </linearGradient>
        <path d="M33.3333333,0.5 L5,0.5 C2.16666667,0.5 0,2.83333333 0,5.5 L0,19 C0,21.8333333 2.33333333,24 5,24 L12.3333333,24 C13.6666667,24 14.8333333,23.5 15.6666667,22.6666667 L19,19.8333333 L22.3333333,22.6666667 C23.3333333,23.5 24.5,24 25.8333333,24 L33.1666667,24 C36,24 38.1666667,21.6666667 38.1666667,19 L38.1666667,5.66666667 C38.3333333,2.83333333 36,0.5 33.3333333,0.5 Z M10.3333333,17.1666667 C7.66666667,17.1666667 5.5,15 5.5,12.3333333 C5.5,9.66666667 7.66666667,7.5 10.3333333,7.5 C13,7.5 15.1666667,9.66666667 15.1666667,12.3333333 C15.1666667,15 13,17.1666667 10.3333333,17.1666667 Z M28,17.1666667 C25.3333333,17.1666667 23.1666667,15 23.1666667,12.3333333 C23.1666667,9.66666667 25.3333333,7.5 28,7.5 C30.6666667,7.5 32.8333333,9.66666667 32.8333333,12.3333333 C32.8333333,15 30.6666667,17.1666667 28,17.1666667 Z" id="path-5"></path>
        <linearGradient x1="2.00800637%" y1="-55.6908307%" x2="86.3317069%" y2="130.012523%" id="linearGradient-7">
            <stop stop-color="#F09376" offset="0%"></stop>
            <stop stop-color="#F07295" offset="100%"></stop>
        </linearGradient>
    </defs>
    <g id="vr" stroke="none" stroke-width="1" fill="none" fill-rule="evenodd">
        <circle id="Oval" fill="#FAF7FF" cx="90" cy="90" r="80"></circle>
        <g id="Group-41" transform="translate(18.004237, 26.000000)">
            <g id="iconfinder_x-09_3876541" fill-rule="nonzero">
                <path d="M78.130292,40.0939958 C66.6700503,40.8272155 55.0711767,39.6705558 44.0026253,36.5928159 C43.5295163,36.4524122 43.0256001,36.3097798 42.552491,36.169376 C42.3566459,36.1136602 42.1894073,36.0557158 41.9957627,36 L41.9957627,87 C42.1916079,86.9442842 42.3588464,86.8863398 42.552491,86.830624 C61.540668,81.2947037 82.0339919,81.3526481 100.995763,87 L100.995763,36 C93.5492462,38.23086 85.8804785,39.5858679 78.130292,40.0939958 Z" id="Shape" fill="#353967"></path>
                <path d="M73.4168055,71.6224436 L72.8336711,71.6224436 C72.6620315,71.6224436 72.490392,71.6224436 72.3187524,71.620215 C72.2945468,71.620215 72.2703413,71.6135291 72.2461357,71.6135291 C62.165612,71.5065548 53.7398698,68.651678 50.0826268,64.5420818 L57.2474784,57.3146303 C57.8020062,56.724043 58.7328207,56.724043 59.2851481,57.3146303 L61.1775843,59.2312533 L65.9834921,54.3639224 C66.5380199,53.7733351 67.4688345,53.7733351 68.0233623,54.3639224 L72.8292701,59.2022811 L74.2860059,60.677635 L77.6351779,57.3146303 C78.1875052,56.724043 79.1205203,56.724043 79.6728476,57.3146303 L90.4201249,68.1702937 C86.1467399,70.2652071 80.1459567,71.5644992 73.4168055,71.6224436 Z" id="Path" fill="url(#linearGradient-1)"></path>
                <path d="M88.8621658,59.3337703 C86.633052,59.3337703 84.8220345,57.4973781 84.8220345,55.2420031 C84.8220345,52.9843996 86.6352525,51.150236 88.8621658,51.150236 C91.0890791,51.150236 92.9022971,52.9866282 92.9022971,55.2420031 C92.9022971,57.4996067 91.0890791,59.3337703 88.8621658,59.3337703 Z" id="Path" fill="url(#linearGradient-2)"></path>
                <path d="M13.1865348,23.29394 C13.157251,23.2649767 13.157251,23.2649767 13.1302198,23.2382414 C13.1009359,23.2382414 13.0739047,23.2092781 13.0446209,23.1825428 C12.8171081,23.0421824 12.6166265,22.899594 12.3891137,22.7592336 C11.9048042,22.4205862 11.447526,22.0819388 10.9609639,21.7432914 C9.21970244,20.4733637 7.47844098,19.1455095 5.76646335,17.7352213 C5.7101483,17.706258 5.68086447,17.6795227 5.65158064,17.6505595 C5.5096667,17.5369343 5.394784,17.4255372 5.25287006,17.3408753 C4.96678959,17.1113972 4.65367789,17 4.33831359,17 C4.11080077,17 3.91031918,17.0556986 3.70983759,17.1693237 C3.28184318,17.394346 2.99576271,17.8176552 2.99576271,18.3835528 L2.99576271,105.616447 C2.99576271,106.43633 3.68055376,107 4.39462864,107 C4.53654258,107 4.70774034,106.971037 4.85190688,106.915338 C7.64963874,104.571542 10.5600007,102.399297 13.5852454,100.423111 C13.5852454,100.394148 13.6145292,100.394148 13.6145292,100.394148 C13.7001281,100.338449 13.7564432,100.280523 13.842042,100.253788 C19.5794197,96.4707397 25.6591929,93.3382513 31.9957627,90.8251312 L31.9957627,33.2595306 C25.6299091,30.7196752 19.5231046,27.5292603 13.842042,23.7172492 C13.6145292,23.5768888 13.4163002,23.4365284 13.1865348,23.29394 Z" id="Path" fill="url(#linearGradient-3)"></path>
                <path d="M138.995763,105.619849 L138.995763,18.3744302 C138.995763,17.2157037 137.627562,16.5672625 136.713928,17.329348 C131.639435,21.5074483 126.164382,25.2643961 120.374284,28.3974143 C117.437603,30.0062614 114.386156,31.4479846 111.278451,32.7448669 C111.051167,32.8295431 110.79463,32.9431874 110.565096,33.0278635 L109.995763,33.226184 L109.995763,90.8260318 C110.196042,90.910708 110.367067,90.966416 110.565096,91.0510921 C116.667991,93.506701 122.570606,96.5862394 128.12892,100.256283 C128.214433,100.285251 128.270691,100.340959 128.356203,100.396667 C128.441716,100.452375 128.497974,100.481343 128.583487,100.537051 C131.520167,102.484603 134.371335,104.630475 137.109986,106.91896 C137.969612,107.230925 138.995763,106.609223 138.995763,105.619849 Z" id="Path" fill="url(#linearGradient-3)"></path>
                <path d="M3.24576603,8 C4.49034242,8 5.49820527,7.0758042 5.49820527,5.93454545 L5.49820527,4.13090909 L7.74576382,4.13090909 C8.99034021,4.13090909 9.99576271,3.20671329 9.99576271,2.06545455 C9.99576271,0.924195804 8.98789987,0 7.74576382,0 L3.24576603,0 C2.00362998,0 0.995762712,0.924195804 0.995762712,2.06545455 L0.995762712,5.93454545 C0.993326788,7.0758042 2.00118963,8 3.24576603,8 Z" id="Path" fill="#42417D"></path>
                <path d="M138.746369,0 L134.245152,0 C133.000913,0 131.995763,0.92393736 131.995763,2.06487696 C131.995763,3.20581655 133.003352,4.12975391 134.245152,4.12975391 L136.494541,4.12975391 L136.494541,5.93512304 C136.494541,7.07606264 137.50213,8 138.74393,8 C139.988169,8 140.995763,7.07606264 140.995763,5.93512304 L140.995763,2.06487696 C140.998198,0.92393736 139.990608,0 138.746369,0 Z" id="Path" fill="#42417D"></path>
                <path d="M7.74697891,120.870173 L5.49819953,120.870173 L5.49819953,119.063794 C5.49819953,117.922216 4.49088295,117 3.24698112,117 C2.00307929,117 0.995762712,117.924454 0.995762712,119.063794 L0.995762712,122.933968 C0.995762712,124.075546 2.00307929,125 3.2445421,125 L7.74453989,125 C8.98844171,125 9.99576271,124.075546 9.99576271,122.933968 C9.99819732,121.794628 8.99088074,120.870173 7.74697891,120.870173 Z" id="Path" fill="#42417D"></path>
                <path d="M137.742104,119 C136.500641,119 135.493324,119.923937 135.493324,121.064877 L135.493324,122.870246 L133.244543,122.870246 C132.000641,122.870246 130.995763,123.794183 130.995763,124.935123 C130.995763,126.076063 132.00308,127 133.244543,127 L137.744543,127 C138.988446,127 139.995763,126.076063 139.995763,124.935123 L139.995763,121.067114 C139.993324,119.923937 138.986007,119 137.742104,119 Z" id="Path" fill="#42417D"></path>
                <path d="M71.4957627,101 C56.7457627,101 41.9957627,105.256024 41.9957627,113.899975 C41.9957627,122.480172 56.8117779,127 71.4957627,127 C86.1797475,127 100.995763,122.480172 100.995763,113.899975 C100.995763,105.256024 86.2457627,101 71.4957627,101 Z" id="Path"></path>
            </g>
            <g id="iconfinder__virtual_reality_goggles_1869730-(1)" transform="translate(51.995763, 100.000000)">
                <g id="Rectangle" transform="translate(0.833333, 0.000000)">
                    <mask id="mask-6" fill="white">
                        <use xlink:href="#path-5"></use>
                    </mask>
                    <use id="Mask" fill="url(#linearGradient-4)" fill-rule="nonzero" xlink:href="#path-5"></use>
                    <rect fill="url(#linearGradient-7)" fill-rule="nonzero" mask="url(#mask-6)" x="28.1666667" y="-5" width="22.1640324" height="34.9575686"></rect>
                </g>
            </g>
        </g>
    </g>
</svg>