<?xml version="1.0" encoding="UTF-8"?>
<svg width="180px" height="180px" viewBox="0 0 180 180" version="1.1" xmlns="http://www.w3.org/2000/svg" xmlns:xlink="http://www.w3.org/1999/xlink">
    <!-- Generator: Sketch 56.3 (81716) - https://sketch.com -->
    <title>ar</title>
    <desc>Created with Sketch.</desc>
    <defs>
        <linearGradient x1="42.0810982%" y1="-64.1815184%" x2="63.2891784%" y2="241.600572%" id="linearGradient-1">
            <stop stop-color="#FFFFFF" offset="0%"></stop>
            <stop stop-color="#AAD7FF" offset="100%"></stop>
        </linearGradient>
        <linearGradient x1="-0.0206718346%" y1="49.9596774%" x2="100%" y2="49.9596774%" id="linearGradient-2">
            <stop stop-color="#F09376" offset="0%"></stop>
            <stop stop-color="#F07295" offset="100%"></stop>
        </linearGradient>
        <linearGradient x1="59.9608171%" y1="364.961531%" x2="46.3245642%" y2="-69.5342299%" id="linearGradient-3">
            <stop stop-color="#FC9250" offset="0%"></stop>
            <stop stop-color="#FBE6D1" offset="100%"></stop>
        </linearGradient>
        <linearGradient x1="119.22516%" y1="9.9521698%" x2="36.2074095%" y2="61.6234935%" id="linearGradient-4">
            <stop stop-color="#F6F3FF" offset="0%"></stop>
            <stop stop-color="#E5D6FF" offset="100%"></stop>
        </linearGradient>
    </defs>
    <g id="ar" stroke="none" stroke-width="1" fill="none" fill-rule="evenodd">
        <circle id="Oval" fill="#FAF7FF" cx="90" cy="90" r="80"></circle>
        <g id="iconfinder_augmented-reality-samartphone-3D_2979206" transform="translate(25.200000, 30.000000)" fill-rule="nonzero">
            <rect id="Rectangle" fill="url(#linearGradient-1)" transform="translate(66.300000, 67.500000) rotate(-90.000000) translate(-66.300000, -67.500000) " x="29.8" y="5" width="73" height="125" rx="2"></rect>
            <path d="M62.8,-29 L64.8,-29 C67.009139,-29 68.8,-27.0701929 68.8,-24.6896552 L68.8,91.6896552 C68.8,94.0701929 67.009139,96 64.8,96 L62.8,96 L62.8,-29 Z" id="Path" fill="#BED5EA" transform="translate(65.800000, 33.500000) rotate(-90.000000) translate(-65.800000, -33.500000) "></path>
            <path d="M-22.185,60 L42.785,60 C45.0024233,60 46.8,61.794059 46.8,64.0071429 L46.8,75 L-26.2,75 L-26.2,64.0071429 C-26.2,62.9443825 -25.7769923,61.92515 -25.0240337,61.173665 C-24.2710752,60.4221799 -23.2498442,60 -22.185,60 L-22.185,60 Z" id="Path" fill="#616799" transform="translate(10.300000, 67.500000) rotate(-90.000000) translate(-10.300000, -67.500000) "></path>
            <path d="M7.8,26 L9.8,26 C12.009139,26 13.8,27.9187796 13.8,30.2857143 L13.8,41 L7.8,41 L7.8,26 Z" id="Path" fill="#494D7C" transform="translate(10.800000, 33.500000) rotate(-90.000000) translate(-10.800000, -33.500000) "></path>
            <path d="M89.0941176,60 L153.505882,60 C155.877458,60 157.8,61.9187796 157.8,64.2857143 L157.8,75 L84.8,75 L84.8,64.2857143 C84.8,61.9187796 86.722542,60 89.0941176,60 Z" id="Path" fill="#616799" transform="translate(121.300000, 67.500000) rotate(90.000000) translate(-121.300000, -67.500000) "></path>
            <path d="M121.8,26 L123.8,26 L123.8,41 L117.8,41 L117.8,30.2857143 C117.8,27.9187796 119.590861,26 121.8,26 Z" id="Path" fill="#494D7C" transform="translate(120.800000, 33.500000) rotate(90.000000) translate(-120.800000, -33.500000) "></path>
            <polygon id="Path" fill="url(#linearGradient-2)" points="65.8 76 37.8 57.6666667 37.8 21 65.8 39.3333333"></polygon>
            <polygon id="Path" fill="url(#linearGradient-3)" points="93.8 57.6666667 65.8 76 65.8 39.3333333 93.8 21"></polygon>
            <polygon id="Path" fill="url(#linearGradient-4)" points="93.8 20.5 65.8 39 37.8 20.5 65.8 2"></polygon>
            <path d="M124.3,28.0028034 L96.1333333,28.0028034 L96.1333333,20.4197426 L96.1333333,19.9430931 L96.1333333,19.6831025 L96.025,19.4231118 C95.9744616,19.3386495 95.9164516,19.2588886 95.8516667,19.184787 L95.7,18.989794 L95.4616667,18.794801 L95.3316667,18.794801 L67.165,0.357130413 C66.4419129,-0.119043471 65.5047537,-0.119043471 64.7816667,0.357130413 L36.615,18.794801 L36.5066667,18.794801 L36.2466667,19.0114599 L36.095,19.2064529 C36.0302151,19.2805545 35.9722051,19.3603154 35.9216667,19.4447777 L35.8133333,19.7047683 L35.8133333,19.964759 L35.4666667,20.4197426 L35.4666667,28.0028034 L7.01833333,28.0028034 C3.58897847,28.0146899 0.811886952,30.7916817 0.8,34.2209133 L0.8,99.7818902 C0.811886952,103.211122 3.58897847,105.988113 7.01833333,106 L124.3,106 C127.889851,106 130.8,103.089955 130.8,99.5002336 L130.8,34.5025698 C130.8,30.912848 127.889851,28.0028034 124.3,28.0028034 Z M39.8,24.4279319 L48.9433333,30.407717 L63.6333333,39.9190418 L63.6333333,71.6595676 L39.8,56.0817942 L39.8,24.4279319 Z M67.9666667,39.9190418 L82.6566667,30.3210534 L91.8,24.4279319 L91.8,56.0817942 L67.9666667,71.6595676 L67.9666667,39.9190418 Z M65.8,4.60364445 L90.0016667,20.4197426 L77.2183333,28.7827754 L65.8,36.2358408 L54.36,28.7611095 L41.5983333,20.4197426 L65.8,4.60364445 Z M36.4416667,59.0716867 L64.6083333,77.4876915 L64.6083333,77.4876915 L64.6083333,77.4876915 L64.9116667,77.4876915 L65.085,77.4876915 C65.4515579,77.6039476 65.8451087,77.6039476 66.2116667,77.4876915 L66.385,77.4876915 L66.6883333,77.4876915 L66.6883333,77.4876915 L66.6883333,77.4876915 L94.855,59.0716867 C95.5837292,58.7466983 96.0748543,58.0474946 96.1333333,57.2517521 L96.1333333,32.335981 L111.3,32.335981 L111.3,101.666822 L20.3,101.666822 L20.3,32.335981 L35.4666667,32.335981 L35.4666667,57.2517521 C35.4631305,57.9841993 35.8299179,58.6688446 36.4416667,59.0716867 Z M7.3,101.666822 C6.10338304,101.666822 5.13333333,100.696808 5.13333333,99.5002336 L5.13333333,34.5025698 C5.13333333,33.3059959 6.10338304,32.335981 7.3,32.335981 L15.9666667,32.335981 L15.9666667,101.666822 L7.3,101.666822 Z M126.466667,99.5002336 C126.466667,100.696808 125.496617,101.666822 124.3,101.666822 L115.633333,101.666822 L115.633333,32.335981 L124.3,32.335981 C125.496617,32.335981 126.466667,33.3059959 126.466667,34.5025698 L126.466667,99.5002336 Z" id="Shape" fill="#616799"></path>
            <path d="M48.9666667,86 L83.6333333,86 C84.8299503,86 85.8,85.1045695 85.8,84 C85.8,82.8954305 84.8299503,82 83.6333333,82 L48.9666667,82 C47.7700497,82 46.8,82.8954305 46.8,84 C46.8,85.1045695 47.7700497,86 48.9666667,86 Z" id="Path" fill="#A1DAFF"></path>
            <path d="M10.8,59 C9.6954305,59 8.8,59.9513949 8.8,61.125 L8.8,73.875 C8.8,75.0486051 9.6954305,76 10.8,76 C11.9045695,76 12.8,75.0486051 12.8,73.875 L12.8,61.125 C12.8,59.9513949 11.9045695,59 10.8,59 Z" id="Path" fill="#8E93BE"></path>
            <path d="M120.8,52 C119.695431,52 118.8,52.9593898 118.8,54.1428571 L118.8,79.8571429 C118.8,81.0406102 119.695431,82 120.8,82 C121.904569,82 122.8,81.0406102 122.8,79.8571429 L122.8,54.1428571 C122.8,52.9593898 121.904569,52 120.8,52 Z" id="Path" fill="#8E93BE"></path>
        </g>
    </g>
</svg>