<?xml version="1.0" encoding="UTF-8"?>
<svg width="180px" height="180px" viewBox="0 0 180 180" version="1.1" xmlns="http://www.w3.org/2000/svg" xmlns:xlink="http://www.w3.org/1999/xlink">
    <!-- Generator: Sketch 56.3 (81716) - https://sketch.com -->
    <title>chatbot</title>
    <desc>Created with Sketch.</desc>
    <defs>
        <linearGradient x1="0%" y1="49.9568594%" x2="100%" y2="49.9568594%" id="linearGradient-1">
            <stop stop-color="#B7BCFF" offset="0%"></stop>
            <stop stop-color="#9CA4FF" offset="100%"></stop>
        </linearGradient>
        <linearGradient x1="-0.0206718346%" y1="49.9596774%" x2="100%" y2="49.9596774%" id="linearGradient-2">
            <stop stop-color="#F09376" offset="0%"></stop>
            <stop stop-color="#F07295" offset="100%"></stop>
        </linearGradient>
        <linearGradient x1="88.4329995%" y1="100.450123%" x2="35.8186309%" y2="30.8531644%" id="linearGradient-3">
            <stop stop-color="#FC9250" offset="0%"></stop>
            <stop stop-color="#FBE6D1" offset="100%"></stop>
        </linearGradient>
        <linearGradient x1="0%" y1="50%" x2="100.000473%" y2="50%" id="linearGradient-4">
            <stop stop-color="#6362D7" offset="0%"></stop>
            <stop stop-color="#A67BFF" offset="100%"></stop>
        </linearGradient>
        <linearGradient x1="82.6475643%" y1="-30.5845198%" x2="39.7104494%" y2="75.3978507%" id="linearGradient-5">
            <stop stop-color="#856DD7" offset="0%"></stop>
            <stop stop-color="#D1C4F8" offset="100%"></stop>
        </linearGradient>
        <path d="M84.75,44.1652656 C84.75,50.9949704 79.2165193,56.53154 72.390625,56.53154 L12.359375,56.53154 C5.53348067,56.53154 0,50.9949704 0,44.1652656 L0,12.3662744 C0,5.53656962 5.53348067,0 12.359375,0 L72.390625,0 C79.2165193,0 84.75,5.53656962 84.75,12.3662744 L84.75,44.1652656 Z" id="path-6"></path>
        <linearGradient x1="34.6641675%" y1="335.462399%" x2="69.4333611%" y2="-311.727457%" id="linearGradient-8">
            <stop stop-color="#856DD7" offset="0%"></stop>
            <stop stop-color="#D1C4F8" offset="100%"></stop>
        </linearGradient>
        <linearGradient x1="67.3997034%" y1="2.91913831%" x2="16.5684515%" y2="140.458164%" id="linearGradient-9">
            <stop stop-color="#856DD7" offset="0%"></stop>
            <stop stop-color="#D1C4F8" offset="100%"></stop>
        </linearGradient>
        <linearGradient x1="94.561739%" y1="-9.71550109%" x2="6.86660943%" y2="107.80128%" id="linearGradient-10">
            <stop stop-color="#F6F3FF" offset="0%"></stop>
            <stop stop-color="#E5D6FF" offset="100%"></stop>
        </linearGradient>
    </defs>
    <g id="chatbot" stroke="none" stroke-width="1" fill="none" fill-rule="evenodd">
        <circle id="Oval" fill="#FAF7FF" cx="90" cy="90" r="80"></circle>
        <g id="iconfinder_mixer-17_5022591" transform="translate(30.000000, 30.000000)">
            <path d="M104.062886,0 L79.038966,0 C74.1031342,0 70.1018519,4.00128232 70.1018519,8.9371142 L70.1018519,23.2364969 C70.1018519,28.1723288 74.1031342,32.1736111 79.038966,32.1736111 L87.0823688,32.1736111 L87.0823688,41.1107253 C87.0808639,41.833393 87.5146698,42.4858653 88.1816339,42.7640914 C88.4003782,42.8522314 88.6339579,42.8981481 88.8697917,42.8981481 C89.3430805,42.8961527 89.7962574,42.7065255 90.1299248,42.3708584 L100.336109,32.1736111 L104.062886,32.1736111 C108.998718,32.1736111 113,28.1723288 113,23.2364969 L113,8.9371142 C113,4.00128232 108.998718,0 104.062886,0 Z" id="Shape" fill="#353967" fill-rule="nonzero"></path>
            <rect id="Rectangle" fill="#FFFFFF" fill-rule="nonzero" x="76" y="8" width="10.4971725" height="1.6"></rect>
            <rect id="Rectangle" fill="url(#linearGradient-1)" fill-rule="nonzero" x="76" y="15.0896944" width="16.4600071" height="1.6"></rect>
            <path d="M104.171875,68.8347344 L102.40625,68.8347344 L102.40625,65.3015131 C102.40625,56.5204642 95.2917749,49.4020175 86.515625,49.4020175 L68.859375,49.4020175 L68.859375,47.6354069 C68.859375,42.7570464 64.9068888,38.8023538 60.03125,38.8023538 L58.265625,38.8023538 L58.265625,19.1399775 C61.7091353,18.2503706 63.9543367,14.9375876 63.5062097,11.4075219 C63.0580828,7.87745617 60.0564422,5.23148148 56.5,5.23148148 C52.9435578,5.23148148 49.9419172,7.87745617 49.4937903,11.4075219 C49.0456633,14.9375876 51.2908647,18.2503706 54.734375,19.1399775 L54.734375,38.8023538 L52.96875,38.8023538 C48.0931112,38.8023538 44.140625,42.7570464 44.140625,47.6354069 L44.140625,49.4020175 L26.484375,49.4020175 C17.7082251,49.4020175 10.59375,56.5204642 10.59375,65.3015131 L10.59375,68.8347344 L8.828125,68.8347344 C3.95248619,68.8347344 0,72.789427 0,77.6677875 L0,84.73423 C0,89.6125905 3.95248619,93.5672831 8.828125,93.5672831 L10.59375,93.5672831 L10.59375,97.1005044 C10.59375,105.881553 17.7082251,113 26.484375,113 L86.515625,113 C95.2917749,113 102.40625,105.881553 102.40625,97.1005044 L102.40625,93.5672831 L104.171875,93.5672831 C109.047514,93.5672831 113,89.6125905 113,84.73423 L113,77.6677875 C113,72.789427 109.047514,68.8347344 104.171875,68.8347344 Z" id="Shape" fill="#616799" fill-rule="nonzero"></path>
            <path d="M52.96875,12.3031944 C52.96875,10.3518502 54.5497445,8.76997314 56.5,8.76997314 C58.4502555,8.76997314 60.03125,10.3518502 60.03125,12.3031944 C60.03125,14.2545386 58.4502555,15.8364156 56.5,15.8364156 C54.5497445,15.8364156 52.96875,14.2545386 52.96875,12.3031944 Z" id="Path" fill="url(#linearGradient-2)" fill-rule="nonzero"></path>
            <path d="M47.671875,47.6354069 C47.671875,44.7083906 50.0433667,42.335575 52.96875,42.335575 L60.03125,42.335575 C62.9566333,42.335575 65.328125,44.7083906 65.328125,47.6354069 L65.328125,49.4020175 L47.671875,49.4020175 L47.671875,47.6354069 Z" id="Path" fill="url(#linearGradient-3)" fill-rule="nonzero"></path>
            <path d="M8.828125,90.0340619 C5.90274172,90.0340619 3.53125,87.6612463 3.53125,84.73423 L3.53125,77.6677875 C3.53125,74.7407712 5.90274172,72.3679556 8.828125,72.3679556 L10.59375,72.3679556 L10.59375,90.0340619 L8.828125,90.0340619 Z" id="Path" fill="url(#linearGradient-4)" fill-rule="nonzero"></path>
            <g id="Path" transform="translate(14.125000, 52.935239)">
                <mask id="mask-7" fill="white">
                    <use xlink:href="#path-6"></use>
                </mask>
                <use id="Mask" fill="url(#linearGradient-5)" fill-rule="nonzero" xlink:href="#path-6"></use>
                <path d="M109.744582,54.5694146 L83.7399616,2.79909571 C82.8980903,1.12268725 81.1825477,0.0647612402 79.3066232,0.0647612402 L64.1938314,0.0647612402 C75.0439437,21.6663828 59.3407986,47.1286875 35.1666524,47.1286875 L-26.2515817,47.1286875 L-20.9055343,58.0647612 L107.59428,58.0647612 C108.43032,58.0631391 109.205894,57.628692 109.643961,56.9166087 C110.082027,56.2045253 110.120101,55.3163753 109.744582,54.5694146 Z" fill="url(#linearGradient-8)" fill-rule="nonzero" mask="url(#mask-7)"></path>
            </g>
            <path d="M109.46875,84.73423 C109.46875,87.6612463 107.097258,90.0340619 104.171875,90.0340619 L102.40625,90.0340619 L102.40625,72.3679556 L104.171875,72.3679556 C107.097258,72.3679556 109.46875,74.7407712 109.46875,77.6677875 L109.46875,84.73423 Z" id="Path" fill="url(#linearGradient-4)" fill-rule="nonzero"></path>
            <path d="M21.0185185,81.5185185 C21.0185185,88.4527604 26.6398322,94.0740741 33.5740741,94.0740741 C40.5083159,94.0740741 46.1296296,88.4527604 46.1296296,81.5185185 C46.1296296,74.5842767 40.5083159,68.962963 33.5740741,68.962963 C26.6398322,68.962963 21.0185185,74.5842767 21.0185185,81.5185185 Z" id="Shape" fill="url(#linearGradient-9)" fill-rule="nonzero"></path>
            <path d="M63.0185185,81.5185185 C63.0185185,88.4527604 68.6398322,94.0740741 75.5740741,94.0740741 C82.5083159,94.0740741 88.1296296,88.4527604 88.1296296,81.5185185 C88.1296296,74.5842767 82.5083159,68.962963 75.5740741,68.962963 C68.6398322,68.962963 63.0185185,74.5842767 63.0185185,81.5185185 Z" id="Shape" fill="url(#linearGradient-9)" fill-rule="nonzero"></path>
            <path d="M23.0185185,79.5185185 C23.0185185,86.4527604 28.6398322,92.0740741 35.5740741,92.0740741 C42.5083159,92.0740741 48.1296296,86.4527604 48.1296296,79.5185185 C48.1296296,72.5842767 42.5083159,66.962963 35.5740741,66.962963 C28.6398322,66.962963 23.0185185,72.5842767 23.0185185,79.5185185 Z" id="Shape" fill="url(#linearGradient-10)" fill-rule="nonzero"></path>
            <path d="M65.0185185,79.5185185 C65.0185185,86.4527604 70.6398322,92.0740741 77.5740741,92.0740741 C84.5083159,92.0740741 90.1296296,86.4527604 90.1296296,79.5185185 C90.1296296,72.5842767 84.5083159,66.962963 77.5740741,66.962963 C70.6398322,66.962963 65.0185185,72.5842767 65.0185185,79.5185185 Z" id="Shape" fill="url(#linearGradient-10)" fill-rule="nonzero"></path>
        </g>
    </g>
</svg>